<?xml version="1.0" encoding="utf-8"?>
<svg xmlns="http://www.w3.org/2000/svg" fill="none" height="245" viewBox="0 0 680 245" width="680">
  <g clip-path="url(#clip0_4038_160490)">
    <mask height="245" id="mask0_4038_160490" maskUnits="userSpaceOnUse" style="mask-type:luminance" width="680" x="0" y="0">
      <path d="M680 0H0v245h680z" fill="#fff"/>
    </mask>
    <g mask="url(#mask0_4038_160490)">
      <mask height="245" id="mask1_4038_160490" maskUnits="userSpaceOnUse" style="mask-type:luminance" width="680" x="0" y="0">
        <path d="M0 0h680v245H0z" fill="#fff"/>
      </mask>
      <g mask="url(#mask1_4038_160490)">
        <path d="m489.719 198.52 23.813-63.722.645-1.705c17.478-.329 32.203 11.305 36.691 27.166a38.8 38.8 0 0 1 11.635-1.58c14.048.225 26.238 7.862 32.907 19.121 1.179 1.991 3.333 3.146 5.645 3.177h.039c8.578.138 15.188 6.867 16.323 15.153v3.256z" fill="#f7f7f7"/>
        <path d="M617.419 196.13c-1.135-8.286-7.748-15.017-16.325-15.154h-.039c-2.313-.032-4.465-1.187-5.645-3.177-6.669-11.259-18.859-18.896-32.907-19.12a38.8 38.8 0 0 0-11.635 1.58c-4.487-15.861-19.213-27.495-36.69-27.166l-.647 1.705-23.812 63.721" stroke="#288A69" stroke-linecap="round" stroke-linejoin="round" stroke-width="2"/>
        <path d="M315.047 150.836c.076 1.102 4.463 11.491 15.842 12.828" stroke="#288A69" stroke-linecap="round" stroke-linejoin="round" stroke-width="2"/>
        <path d="M465.621 69.286c-19.308-.462-74.982 34.246-88.318 34.329-17.923.112-15.112 1.229-15.112 1.229l-32.039 12.441a16.8 16.8 0 0 0-5.449 7.891l-.367 1.131.859 42.774.181.784a14.56 14.56 0 0 0 7.133 9.451c.948 11.828 3.487 20.296 6.47 20.296l21.743-.013s-.441-9.001-.691-19.032l86.589.331s-26.006-13.23-5.547-29.678c4.27-.208 21.044-.235 26.924-1.308 1.21-1.081 2.004-4.559 0-6.746 2.923-4.258 12.484-17.178 2.923-22.402-2.237-9.838 21.285-4.066 22.895-8.435 1.885-1.395 8.496-8.474 9.186-8.934s2.815-30.711 2.815-30.711c-13.982-.722-27.543-3.095-40.195-3.398" fill="#288A69" opacity=".08"/>
        <path d="M294.771 137.46c-1.06 5.612 2.189 10.938 7.258 11.896 5.069.957 10.037-2.817 11.097-8.429 1.06-5.613-2.189-10.938-7.258-11.896-5.069-.957-10.037 2.817-11.097 8.429" fill="#288A69" opacity=".05"/>
        <path d="M312.838 138.349c0-6.976-4.163-12.63-9.298-12.63s-9.298 5.654-9.298 12.63 4.163 12.632 9.298 12.632 9.298-5.656 9.298-12.632" fill="#eaeaea"/>
        <path d="M311.686 138.293c0-5.576-3.328-10.098-7.433-10.098s-7.433 4.522-7.433 10.098 3.327 10.098 7.433 10.098 7.433-4.521 7.433-10.098" fill="#dfdfdf"/>
        <path d="m315.716 148.878-3.685-6.531c1.01-.931 1.659-2.324 1.659-3.892 0-2.524-1.664-4.613-3.843-5.008-.042-.013-5.611-.013-5.653 0-2.179.395-3.842 2.484-3.842 5.008 0 2.591 1.911 4.121 1.911 4.121l6.187 10.029c.739 1.435 2.958 1.755 4.966.734 2.009-1.022 3.04-3.021 2.3-4.461" fill="#288A69" opacity=".05"/>
        <path d="M311.044 130.889c-1.692-3.135-4.423-5.17-7.503-5.17-5.135 0-9.299 5.654-9.299 12.63s4.164 12.632 9.299 12.632 9.297-5.656 9.297-12.632" stroke="#288A69" stroke-linecap="round" stroke-linejoin="round" stroke-width="2"/>
        <path d="m309.487 134.414 7.232 12.82c.74 1.44-.291 3.438-2.299 4.46s-4.229.702-4.968-.733l-3.905-6.985z" fill="#f6f6f6"/>
        <path d="m306.172 142.04 3.317-7.626 7.231 12.82c.74 1.44-.29 3.438-2.298 4.46s-4.228.702-4.967-.733l-2.041-3.731" stroke="#288A69" stroke-linecap="round" stroke-linejoin="round" stroke-width="2"/>
        <path d="M308.219 142.898c3.232-.395 3.626 1.94 5.659 4.873.709 1.747-2.189 4.072-4.845 3.702-.593.115.159 1.343 2.013 1.078 0 0 5.568-.638 5.128-4.938l-4.33-7.433s-.926 2.908-3.135 2.886" fill="#288A69" opacity=".05"/>
        <path d="m314.22 152.695-.072-.101c2.458-.487 2.374-2.297 2.374-2.297" fill="#288A69"/>
        <path d="M313.69 138.455c0-2.524-1.664-4.612-3.842-5.008-.043-.013-5.611-.013-5.654 0-2.178.396-3.842 2.484-3.842 5.008 0 2.591 1.753 4.724 4.016 5.037h5.307c2.263-.313 4.015-2.446 4.015-5.037" fill="#fff"/>
        <path d="M313.69 138.455c0-2.524-1.664-4.612-3.842-5.008-.043-.013-5.611-.013-5.654 0-2.178.396-3.842 2.484-3.842 5.008 0 2.591 1.753 4.724 4.016 5.037h5.307c2.263-.313 4.015-2.446 4.015-5.037" stroke="#288A69" stroke-linecap="round" stroke-linejoin="round" stroke-width="2"/>
        <path d="M303.945 133.508s8.141 1.249 7.311 5.689c0 0-.309 4.014-5.907 3.967l4.942.195s3.956-.329 3.397-6.382c0 0-1.018-3.288-4.844-3.532z" fill="#288A69" opacity=".05"/>
        <path d="M338.945 168.749c0 16.89 3.076 30.58 6.87 30.58l21.744-.013s-.858-17.498-.858-30.885c0-12.974.779-31.993.779-31.993h-21.665c-3.794 0-6.87 15.421-6.87 32.311" fill="#e0e0e0"/>
        <path d="M360.422 168.748c0 16.89 3.076 30.579 6.87 30.579s6.868-13.689 6.868-30.579-3.074-32.31-6.868-32.31-6.87 15.42-6.87 32.31" fill="#e6e6e6"/>
        <path d="M374.162 168.748c0-16.89-3.077-32.31-6.871-32.31s-6.869 15.42-6.869 32.31 3.075 30.579 6.869 30.579c1.779 0 3.399-3.008 4.619-7.944.7-2.83 1.09-5.727 1.256-8.636l.017-.309" stroke="#288A69" stroke-linecap="round" stroke-linejoin="round" stroke-width="2"/>
        <path d="M367.48 136.438h-21.665c-3.794 0-6.87 15.421-6.87 32.311 0 16.889 3.076 30.58 6.87 30.58l21.744-.013" stroke="#288A69" stroke-linecap="round" stroke-linejoin="round" stroke-width="2"/>
        <path d="m341.14 188.449 10.393-.315a4.68 4.68 0 0 1 4.564 3.115c.748 2.135 1.917 6.59 3.116 8.075l6.487-.517s4.072 1.678 3.886-1.234c-.102-.387 3.724-10.594 3.631-10.981-.566-2.361 1.231-4.815 1.231-6.811l-35.214.423z" fill="#288A69" opacity=".05"/>
        <path d="M412.156 168.748c0 16.89 3.076 30.579 6.87 30.579l21.744-.013s-.858-17.496-.858-30.883c0-12.974.779-31.993.779-31.993s-20.786 1.729-21.665 1.729c-3.794 0-6.87 13.692-6.87 30.581" fill="#e0e0e0"/>
        <path d="M434.632 184.632c1.206 8.812 3.384 14.695 5.871 14.695 3.794 0 6.87-13.691 6.87-30.581 0-16.888-3.076-32.308-6.87-32.308s-6.87 15.42-6.87 32.308c0 5.818.365 11.256.999 15.886" fill="#e6e6e6"/>
        <path d="M434.748 185.446c1.226 8.357 3.345 13.881 5.755 13.881 3.794 0 6.87-13.692 6.87-30.581s-3.076-32.308-6.87-32.308-6.87 15.419-6.87 32.308c0 1.902.04 3.762.115 5.568" stroke="#288A69" stroke-linecap="round" stroke-linejoin="round" stroke-width="2"/>
        <path d="M440.692 136.438s-20.787 1.729-21.667 1.729c-3.793 0-6.869 13.693-6.869 30.582s3.076 30.579 6.869 30.579l19.421.013" stroke="#288A69" stroke-linecap="round" stroke-linejoin="round" stroke-width="2"/>
        <path d="m413.508 188.448 10.393-.315a4.68 4.68 0 0 1 4.564 3.116c.748 2.134 1.84 4.803 3.039 6.289l6.564 1.268s3.551 2.466 4.529 0c-.101-.386 3.081-11.827 2.988-12.215-.566-2.36 1.231-4.815 1.231-6.81l-35.214.423z" fill="#288A69" opacity=".05"/>
        <path d="M479.328 168.755c0 16.889 3.825 30.581 8.543 30.581l27.039-.014s-1.065-17.497-1.065-30.884c0-12.974.969-30.266.969-30.266l-26.943.002c-4.718 0-8.543 13.691-8.543 30.581" fill="#e0e0e0"/>
        <path d="m512.811 138.172-24.703.002c-4.676 0-8.467 13.691-8.467 30.581 0 16.889 3.791 30.581 8.467 30.581l26.799-.014" stroke="#288A69" stroke-linecap="round" stroke-linejoin="round" stroke-width="2"/>
        <path d="M530.664 171.524c0 15.359 3.056 27.811 6.828 27.811l21.614-.013s-.852-15.912-.852-28.087c0-11.798.774-27.524.774-27.524h-21.536c-3.772 0-6.828 12.454-6.828 27.813" fill="#e0e0e0"/>
        <path d="M531.523 186.523c1.188 7.705 3.265 12.812 5.628 12.812l21.154-.013" stroke="#288A69" stroke-linecap="round" stroke-linejoin="round" stroke-width="2"/>
        <path d="M548.969 170.959c0 15.359 3.433 27.811 7.667 27.811 4.235 0 7.667-12.452 7.667-27.811s-3.432-27.811-7.667-27.811-7.667 12.452-7.667 27.811" fill="#e6e6e6"/>
        <path d="M553.633 171.725c0 10.208 1.616 18.483 3.612 18.483s3.612-8.275 3.612-18.483-1.617-18.483-3.612-18.483-3.612 8.275-3.612 18.483" fill="#288A69" opacity=".05"/>
        <path d="M549.125 165.917a100 100 0 0 0-.156 5.604c0 15.36 3.432 27.812 7.667 27.812s7.667-12.452 7.667-27.812c0-15.359-3.432-27.81-7.667-27.81-3.706 0-6.796 9.533-7.511 22.206" stroke="#288A69" stroke-linecap="round" stroke-linejoin="round" stroke-width="2"/>
        <path d="M503.398 168.754c0 16.889 4.054 30.58 9.055 30.58 5.002 0 9.055-13.691 9.055-30.58 0-16.89-4.053-30.582-9.055-30.582s-9.055 13.692-9.055 30.582" fill="#e6e6e6"/>
        <path d="M517.516 143.402c-1.445-3.303-3.188-5.23-5.063-5.23-5.001 0-9.055 13.712-9.055 30.627 0 7.392.774 14.171 2.063 19.463" stroke="#288A69" stroke-linecap="round" stroke-linejoin="round" stroke-width="2"/>
        <path d="M506.727 192.43c1.561 4.312 3.556 6.898 5.73 6.898" stroke="#288A69" stroke-linecap="round" stroke-linejoin="round" stroke-width="2"/>
        <path d="M508.977 168.478c0 11.27 1.664 20.405 3.717 20.405s3.718-9.135 3.718-20.405-1.664-20.408-3.718-20.408c-2.053 0-3.717 9.137-3.717 20.408" fill="#288A69" fill-opacity=".05"/>
        <path d="m481.807 188.877 11.813-.315c2.317-.062 4.42 1.194 5.187 3.117.851 2.134 2.092 4.802 3.455 6.288l7.46 1.268s-5.776-11.836-5.776-19.024l-24.305.423z" fill="#288A69" fill-opacity=".05"/>
        <path d="m532.397 189.828 9.451-.287a4.25 4.25 0 0 1 4.151 2.834c.681 1.94 1.674 4.369 2.764 5.72l5.969 1.153s-4.621-10.766-4.621-17.303l-19.447.385z" fill="#288A69" fill-opacity=".05"/>
        <path d="m377.329 115.795-3.178-3.17c-.534-.531-1.219-.768-1.867-.635-2.208.451-7.501 1.386-10.458.67-3.802-.919-6.407-4.455-6.079-7.466.429-3.931 4.781-7.709 12.719-8.132 4.315.136 9.931 7.039 14.035 11.145" fill="#f7f7f7"/>
        <path d="m377.329 115.792-3.179-3.17c-.534-.531-1.219-.768-1.867-.635-2.208.451-7.501 1.387-10.458.671-3.802-.919-6.406-4.455-6.078-7.466.377-3.458 3.787-6.796 10.002-7.838 2.549-.428 5.182.106 7.317 1.564 3.211 2.192 6.566 5.884 9.306 8.625" stroke="#288A69" stroke-linecap="round" stroke-linejoin="round" stroke-width="2"/>
        <path d="M563.598 134.334s-3.317-13.154-5.398-16.302c-1.136-1.718-2.537-4.655-3.895-6.204-3.577-6.004-6.308-15.431-10.641-20.642-5.171-5.862-10.309-16.98-34.471-18.782-39.8-5.725-90.949 2.403-101.065 4.118-10.117 1.72-12.225 7.828-12.225 7.828l-26.875 20.214s-10.082 2.155-14.709 4.076c-6.344 2.633-11.095 8.882-11.095 8.882l-2.839 1.146a3.05 3.05 0 0 0-1.88 2.392l-1.218 8.337-6.115 5.585.639 30.489 2.699 9.993 8.413 4.697 161.151.159c-.433-3.568-.673-7.472-.673-11.566 0-16.89 4.054-30.581 9.056-30.581s9.055 13.691 9.055 30.581c0 4.101-.241 8.01-.674 11.584l28.584.027a96 96 0 0 1-.451-9.403c0-15.359 3.433-27.811 7.668-27.811 2.882 0 5.392 5.771 6.701 14.298l1.429-2.531c3.013-7.109-1.171-20.584-1.171-20.584" fill="#e5e5e5"/>
        <path d="M519.68 74.549s-4.564-2.751-6.735-1.778c-1.215.544-.514 3.45-.668 5.759-.429 6.434-2.152 25.205-2.152 25.205s23.291 15.478 34.725 6.915c2.483-.847 4.412-1.758 6.631-4.443-1.246-3.762-2.023-5.612-2.023-5.612s-5.592-15.91-29.778-26.046" fill="#fff"/>
        <path d="M512.654 72.401s-2.125 30.252-2.815 30.712-7.301 7.539-9.186 8.934c-.875 2.373-8.217 1.752-14.382 2.268-4.677.392-7.318 5.241-5.514 9.573 6.834 18.32-4.894 24.822-5.923 25.741-5.879 1.073-22.414 2.888-26.684 3.095-14.518 13.138-5.555 27.851-5.555 27.851l-101.873-.392-5.65-4.722-3.039-6.664-.861-33.818v-8.955l1.917-5.89 8.617-6.92 13.061-5.586 14.262-3.067 8.108-10.942c10.665-14.389 27.449-23.059 45.359-23.155 13.353-.073 30.591-1.924 49.96-1.46 12.653.302 26.216 2.674 40.198 3.397" fill="#f6f6f6"/>
        <path d="M465.821 121.345a4.044 4.044 0 1 1-3.673 4.028" stroke="#dfdfdf" stroke-linecap="round" stroke-linejoin="round" stroke-width="2"/>
        <path d="m440.51 142.205-83.53-.304-5.06-8.528.281-8.624-5.349-8.395 108.838-.229-8.869 9.248 1.21 7.459z" fill="#ececec"/>
        <path d="M330.805 148.07c4.224.771 12.307 1.806 18.108 2.403 5.012.517 6.369 3.186 8.653 7.677 4.696 6.265 2.447 16.576.228 21.826-2.073 1.537-4.009.323-7.437.385-3.428.121-6.57-.001-6.57-.001l-4.497-1.361-4.777-3.541-2.501-7.577z" fill="#e5e5e5"/>
        <path d="M455.688 179.929c-4.342.021-8.464-1.47-11.184-3.17l-11.018-6.886c-3.213-2.007-8.066-3.175-13.195-3.175l-43.706-.026c-6.245 0-11.982 1.726-14.927 4.491l-8.4 8.51z" fill="#fff"/>
        <path d="m415.82 166.695 4.47.004c5.129 0 9.982 1.167 13.195 3.175l11.019 6.884c2.72 1.701 6.84 3.625 11.182 3.603" stroke="#288A69" stroke-linecap="round" stroke-linejoin="round" stroke-width="2"/>
        <path d="m406.562 166.695 3.421.004" stroke="#288A69" stroke-linecap="round" stroke-linejoin="round" stroke-width="2"/>
        <path d="m357.25 175.652 4.408-4.487c2.945-2.766 8.683-4.493 14.927-4.493l25.375.016" stroke="#288A69" stroke-linecap="round" stroke-linejoin="round" stroke-width="2"/>
        <path d="M503.403 71.24s-4.193 13.594-3.944 22.315c.165 5.762-5.923 9.86-5.923 9.86s-62.673-3.332-124.497.293c4.214-6.644 20.765-23.716 20.765-23.716s10.385-6.168 23.813-8.11 60.585-3.392 89.786-.642" fill="#fff"/>
        <path d="M400.227 102.243c1.354-4.357 3.964-9 6.711-9.984 2.741-.984 14.781-.926 16.003-.314.799.402 4.024 3.981 4.514 10.237" fill="#f7f7f7"/>
        <path d="M400.227 102.243c1.354-4.357 3.964-9 6.711-9.984 2.741-.984 14.781-.926 16.003-.314.799.402 4.024 3.981 4.514 10.237" stroke="#ececec" stroke-linecap="round" stroke-linejoin="round" stroke-width="2"/>
        <path d="M454.078 101.888c.576-3.601 2.42-8.867 4.924-9.627 3.237-.983 19.985-.57 21.429.043 1.088.46 4.179 3.64 4.179 10.008" fill="#f7f7f7"/>
        <path d="M454.078 101.888c.576-3.601 2.42-8.867 4.924-9.627 3.237-.983 19.985-.57 21.429.043 1.088.46 4.179 3.64 4.179 10.008" stroke="#ececec" stroke-linecap="round" stroke-linejoin="round" stroke-width="2"/>
        <path d="M377.141 101.89c5.865-7.067 16.534-22.572 29.474-24.632" stroke="#ececec" stroke-linecap="round" stroke-miterlimit="10" stroke-width="2"/>
        <path d="m442.242 72.666 1.506 3.666-4.198.817c-.612.12-1.022.785-.938 1.524l.321 2.826c.167 1.468.915 2.53 2.153 2.456l14.119-.555c.747-.035 1.102-.725 1.359-1.622l.716-3.68c.026-.812-.532-1.51-1.215-1.518l-8.03-.173.468-4.36" fill="#f7f7f7"/>
        <path d="m442.242 72.666 1.506 3.666-4.198.817c-.612.12-1.022.785-.938 1.524l.321 2.826c.167 1.468.915 2.53 2.153 2.456l14.119-.555c.747-.035 1.102-.725 1.359-1.622l.716-3.68c.026-.812-.532-1.51-1.215-1.518l-8.03-.173.468-4.36" stroke="#ececec" stroke-linecap="round" stroke-linejoin="round" stroke-width="2"/>
        <path d="M501.888 76.82c-2.41 10.555-2.421 15.59-3.956 22.666a6.19 6.19 0 0 1-6.087 3.749c-13.861-.89-66.216-2.842-117.861.505" stroke="#288A69" stroke-linecap="round" stroke-linejoin="round" stroke-width="2"/>
        <path d="M377.997 116.094c-8.545.233-17.35.61-26.13 1.18" stroke="#288A69" stroke-linecap="round" stroke-linejoin="round" stroke-width="2"/>
        <path d="M448.807 116.998c-8.532-.547-34.796-1.666-65.276-1.04" stroke="#288A69" stroke-linecap="round" stroke-linejoin="round" stroke-width="2"/>
        <path d="M516.046 107.63c-3.249-1.253-5.642-2.754-6.202-4.515.457-6.628 1.492-15.103 2.504-25.287" stroke="#288A69" stroke-linecap="round" stroke-linejoin="round" stroke-width="2"/>
        <path d="M539.969 115.594a24.6 24.6 0 0 1 2.538 7.389c1.254 7.247.215 38.568-.043 42.989" stroke="#288A69" stroke-linecap="round" stroke-linejoin="round" stroke-width="2"/>
        <path d="M545.69 109.989s3.237 6.758 1.238 6.876c-1.999.117-28.102 4.292-28.102 4.292s-24.177 2.09-27.415 19.541c-1.986 10.698-1.732 23.138-1.757 31.088-.018 5.949-10.326 8.064-10.326 8.064l24.909.294s-3.353-41.681 8.639-41.938c4.644-.036 7.192 11.78 8.004 19.292.223 2.07.143 8.776 7.889 8.641l19.835-.238s2.687-20.773 7.53-22.192c4.116 0 3.491.252 7.306 12.71 2.557-2.893 2.285-7.117 1.425-10.879l-2.976-18.322-10.413-21.007-.958 1.289a6.17 6.17 0 0 1-4.828 2.489" fill="#288A69" opacity=".05"/>
        <path d="m537.202 122.391-1.874.016" stroke="#288A69" stroke-linecap="round" stroke-linejoin="round" stroke-width="2"/>
        <path d="m549.538 122.82-1.874.018" stroke="#288A69" stroke-linecap="round" stroke-linejoin="round" stroke-width="2"/>
        <path d="M533.078 87.125c1.005 5.053 1.814 10.836 1.79 16.288" stroke="#288A69" stroke-linecap="round" stroke-linejoin="round" stroke-width="2"/>
        <path d="m442.602 158.39 1.142-1.397a14.82 14.82 0 0 1 10.76-5.428l20.336-.987" stroke="#288A69" stroke-linecap="round" stroke-linejoin="round" stroke-width="2"/>
        <path d="m336.883 149.578 10.557 1.003a12.05 12.05 0 0 1 9.618 6.562l.511 1.011" stroke="#288A69" stroke-linecap="round" stroke-linejoin="round" stroke-width="2"/>
        <path d="M456.07 116.709s16.328 1.577 16.683 11.685c.081 2.323-1.016 4.516-2.791 6.016-2.435 2.059-6.792 4.68-12.895 4.278 0 0 10.624 5.027 17.962-5.495 0 0 4.796-9.164-2.793-13.858 0 0-6.605-6.096-16.166-2.626" fill="#288A69" fill-opacity=".05"/>
        <path d="m430.781 102.249 27.955-.06 38.827-31.534-25.936-1.452z" fill="#288A69" opacity=".04"/>
        <path d="M397.8 76.207c-13.141 6.265-28.769 28.355-28.769 28.355l27.044-1.697 49.312-32.604-3.169-1.238-20.137 1.538c-6.128.19-19.382 1.96-24.281 5.646" fill="#288A69" opacity=".04"/>
        <path d="M499.088 180.362H345.233c-6.386 0-11.782-4.636-12.854-10.931-2.651-15.571-1.152-41.377-1.152-41.377.975-19.014 37.814-24.35 37.814-24.35s13.938-17.621 20.735-22.602c4.432-3.247 9.968-7.21 20.085-8.928s62.995-5.5 102.794.226c33.65 6.51 38.447 29.581 39.563 32.769 1.233 3.521 2.866 6.893 5.036 9.928 4.458 6.241 8.301 25.826 7.977 36.194" stroke="#288A69" stroke-linecap="round" stroke-linejoin="round" stroke-width="2"/>
        <path d="m525.076 115.795 3.178-3.17c.533-.531 1.219-.768 1.867-.635 2.208.451 7.501 1.386 10.458.67 3.802-.919 6.407-4.455 6.079-7.466-.429-3.931-4.781-7.709-12.719-8.132-4.315.136-11.826 7.985-15.931 12.091" fill="#e5e5e5"/>
        <path d="M530.062 98.538s16.848.498 14.03 12.292c0 0 9.269-10.819-10.159-13.767z" fill="#fff"/>
        <path d="m525.075 115.795 3.178-3.17c.533-.531 1.219-.768 1.867-.635 2.208.451 7.501 1.386 10.458.67 3.802-.919 6.407-4.455 6.079-7.466-.429-3.931-4.781-7.709-12.719-8.132-4.315.136-10.856 7.111-14.961 11.217" stroke="#288A69" stroke-linecap="round" stroke-linejoin="round" stroke-width="2"/>
        <path d="M550.107 109.156s-1.932.25-4.888.484" stroke="#288A69" stroke-linecap="round" stroke-linejoin="round" stroke-width="2"/>
        <path d="M476.654 128.015c0 6.747-6.679 12.218-14.917 12.218-8.239 0-14.917-5.471-14.917-12.218 0-6.748 6.678-12.218 14.917-12.218 8.238 0 14.917 5.47 14.917 12.218" stroke="#288A69" stroke-linecap="round" stroke-linejoin="round" stroke-width="2"/>
        <path d="M338.087 115.95a11.5 11.5 0 0 1 1.883-.153c6.517 0 11.8 5.468 11.8 12.216s-5.283 12.218-11.8 12.218c-2.081 0-4.038-.557-5.736-1.537" stroke="#288A69" stroke-linecap="round" stroke-linejoin="round" stroke-width="2"/>
        <path d="M461.937 165.263c0 3.113-2.032 5.638-4.539 5.638s-4.539-2.525-4.539-5.638 2.032-5.638 4.539-5.638 4.539 2.525 4.539 5.638" fill="#f6f6f6"/>
        <path d="M454.01 160.523c.708-.568 1.553-.898 2.459-.898 2.507 0 4.539 2.524 4.539 5.637 0 3.114-2.032 5.638-4.539 5.638s-4.539-2.524-4.539-5.638q.001-.733.144-1.413" stroke="#288A69" stroke-linecap="round" stroke-linejoin="round" stroke-width="2"/>
        <path d="M349.695 165.263c0 3.113-1.922 5.638-4.293 5.638s-4.293-2.525-4.293-5.638 1.922-5.638 4.293-5.638 4.293 2.525 4.293 5.638" fill="#f6f6f6"/>
        <path d="M346.226 170.367a3.45 3.45 0 0 1-1.824.533c-2.371 0-4.293-2.523-4.293-5.636s1.922-5.639 4.293-5.639 4.293 2.525 4.293 5.639" stroke="#288A69" stroke-linecap="round" stroke-linejoin="round" stroke-width="2"/>
        <path d="m446.047 135.469-3.213 4.417c-.66 1.12-2.335 1.869-4.222 1.889-26.941 0-55.567.32-78.744 0-1.977-.077-3.683-.904-4.315-2.092l-1.85-3.604" stroke="#288A69" stroke-linecap="round" stroke-linejoin="round" stroke-width="2"/>
        <path d="M396.51 125.102h-4.627" stroke="#288A69" stroke-linecap="round" stroke-linejoin="round" stroke-width="2"/>
        <path d="M337.719 123.713c1.073-1.952 3.038-3.26 5.285-3.26 3.396 0 6.149 2.988 6.149 6.674s-2.753 6.674-6.149 6.674c-2.151 0-4.044-1.199-5.143-3.015" fill="#ebebeb"/>
        <path d="M337.719 123.713c1.073-1.952 3.038-3.26 5.285-3.26 3.396 0 6.149 2.988 6.149 6.674s-2.753 6.674-6.149 6.674c-2.151 0-4.044-1.199-5.143-3.015" stroke="#dfdfdf" stroke-linecap="round" stroke-linejoin="round" stroke-width="2"/>
        <path d="M459.77 133.996a6.674 6.674 0 1 1 2.695-1.84" fill="#ebebeb"/>
        <path d="M459.77 133.996a6.674 6.674 0 1 1 2.695-1.84" stroke="#dfdfdf" stroke-linecap="round" stroke-linejoin="round" stroke-width="2"/>
        <path d="m453.209 117.12-6.889 8.259s.5.755.5 7.388c1.494.534 3.01 4.261 4.997 4.371l14.007-20.865z" fill="#288A69" opacity=".05"/>
        <path d="m474.834 122.172-12.896 18.745s3.869-1.337 6.25-1.396c3.177-3.078 7.437-2.459 8.461-10.099.047-.346-.025-2.362 0-2.717-.541-1.95-.541-1.95-.743-3.251z" fill="#288A69" fill-opacity=".05"/>
        <path d="M338.117 119.602c.809.924 1.178 2.267.875 3.629-.486 2.18-2.507 3.585-4.515 3.138" stroke="#dfdfdf" stroke-linecap="round" stroke-linejoin="round" stroke-width="2"/>
        <path d="m346.85 138.687 4.444-6.802s.761-.15.761-6.784c-1.377-.533-.873-4.943-2.704-5.054l-12.179 20.181z" fill="#288A69" opacity=".05"/>
        <path d="m331.504 133.736 12.869-17.463s-4.094-.381-6.288-.321c-2.926 3.078-6.322 4.177-7.266 11.816-.043.346.024 2.363 0 2.717.499 1.95.499 1.95.685 3.251" fill="#288A69" fill-opacity=".05"/>
        <path d="M455.539 159.75s5.717 3.637 2.467 10.24c0 0 9.016-7.484-2.467-10.24" fill="#288A69" fill-opacity=".05"/>
        <path d="M345.062 159.703s3.254 6.5 1.493 11.465c0 0 8.324-6.345-1.493-11.465" fill="#288A69" opacity=".05"/>
        <path d="M375.508 166.694s46.23 1.304 50.263 2.877c0 0 4.107 2.06 7.225 4.244 2.719 1.904.515 4.722-3.848 4.933l-27.882 1.348h49.995s-22.426-12.369-24.795-13.396c-2.368-1.027-50.958-.006-50.958-.006" fill="#288A69" fill-opacity=".05"/>
        <path d="M338.945 149.776s14.034-.599 21.369 17.415c0 0 .755-9.035-8.982-15.554z" fill="#288A69" opacity=".05"/>
        <path d="m449.475 119.884 6.207-3.759s-81.682.627-89.792.417l75.543 4.623c2.434.15 3.977 2.62 3.115 4.903-.532 1.406-.962 2.975-1.017 4.461a8.05 8.05 0 0 1-1.556 4.483l-.428.58a8.03 8.03 0 0 1-6.12 3.261l-70.435 3.057h74.424l8.607-9.078s-4.023-5.332 1.452-12.948" fill="#288A69" fill-opacity=".05"/>
        <path d="m501.495 78.438-5.975 18.355a5.635 5.635 0 0 1-5.254 3.891l-96.485 1.795s91.344-1.022 98.065.75c0 0 5.301.133 6.542-5.29z" fill="#288A69" fill-opacity=".05"/>
        <path d="M517.516 143.394c-1.445-3.303-3.188-5.23-5.063-5.23-5.001 0-9.055 13.712-9.055 30.627 0 7.392.774 14.171 2.063 19.463" stroke="#288A69" stroke-linecap="round" stroke-linejoin="round" stroke-width="2"/>
        <path d="M518.43 191.727c1.888-5.604 3.079-13.819 3.079-22.975 0-5.768-.463-11.117-1.294-15.768" stroke="#288A69" stroke-linecap="round" stroke-linejoin="round" stroke-width="2"/>
        <path d="M519.273 148.624q-.148-.57-.304-1.116" stroke="#288A69" stroke-linecap="round" stroke-linejoin="round" stroke-width="2"/>
        <path d="M549.125 165.917a100 100 0 0 0-.156 5.604c0 8.233.986 15.63 2.553 20.722.721 2.342 9.776 1.597 10.422-.65 1.454-5.062 2.359-12.183 2.359-20.072 0-15.359-3.432-27.81-7.667-27.81-3.706 0-6.796 9.533-7.511 22.206" stroke="#288A69" stroke-linecap="round" stroke-linejoin="round" stroke-width="2"/>
        <path d="M496.961 199.551c0-12.433 10.683-22.388 22.095-22.388 1.712 0 3.376.227 4.968.656a5.47 5.47 0 0 0 5.098-1.205 27 27 0 0 1 1.813-1.476c4.38-3.268 9.684-5.177 15.392-5.177 10.084 0 18.89 5.957 23.608 14.825.985 1.852 3.238 2.32 4.755.961 2.849-2.551 6.495-4.082 10.476-4.082 2.388 0 4.657.55 6.707 1.541 0 0 10.718 2.893 13.789 16.929" fill="#f7f7f7"/>
        <path d="M528.445 188.669c0-2.825 4.029-8.128 10.539-4.079 2.081-4.049 8.305-3.533 9.773.275" fill="#f7f7f7"/>
        <path d="M528.445 188.669c0-2.825 4.029-8.128 10.539-4.079 2.081-4.049 8.305-3.533 9.773.275" stroke="#288A69" stroke-linecap="round" stroke-linejoin="round" stroke-width="2"/>
        <path d="M591.873 183.208a15.35 15.35 0 0 0-6.707-1.543c-3.98 0-7.627 1.53-10.475 4.082-1.517 1.358-3.77.893-4.755-.959-4.719-8.868-13.524-14.827-23.609-14.827-5.708 0-11.012 1.91-15.392 5.178q-.935.698-1.813 1.475a5.47 5.47 0 0 1-5.098 1.205 19 19 0 0 0-4.967-.655c-11.412 0-22.096 9.956-22.096 22.389" stroke="#288A69" stroke-linecap="round" stroke-linejoin="round" stroke-width="2"/>
        <path d="M595.559 185.698q-.258-.28-.528-.55" stroke="#288A69" stroke-linecap="round" stroke-linejoin="round" stroke-width="2"/>
        <path d="M40.11 199.5h586.825" stroke="#288A69" stroke-linecap="round" stroke-linejoin="round" stroke-width="2"/>
        <path d="M246.383 201.414c3.66-13.729 18.464-16.213 27.257-7.309.567.576 1.487.616 2.082.07 4.832-4.433 17.002-4.907 21.004 6.566l.092 3.423h-50.435z" fill="#f6f6f6"/>
        <path d="M246.383 199.504c4.666-10.969 18.705-15.368 27.484-6.075.461.487 1.222.448 1.697-.025 4.719-4.708 17.126-4.222 21.161 6.1" stroke="#288A69" stroke-linecap="round" stroke-linejoin="round" stroke-width="2"/>
      </g>
    </g>
  </g>
  <defs>
    <clipPath id="clip0_4038_160490">
      <path d="M0 0h680v245H0z" fill="#fff"/>
    </clipPath>
  </defs>
</svg>