<?xml version="1.0" encoding="utf-8"?>
<svg xmlns="http://www.w3.org/2000/svg" fill="none" height="472" viewBox="0 0 616 472" width="616">
  <clipPath id="a">
    <path d="M.2.029h615v471H.2z"/>
  </clipPath>
  <g clip-path="url(#a)">
    <path d="M-10.34 502.039v-87.32h636.08v87.32" fill="#f6f6f6"/>
    <path d="M178.79 421.029H355a2.94 2.94 0 0 0 2.94-2.94V89.479l-53.05-47.45h-126.1a3 3 0 0 0-2.94 3v373.08a2.94 2.94 0 0 0 2.94 2.92" fill="#f6f6f6"/>
    <path d="M305.72 441.189h56.71l-4.49-351.71-52.22-47.45z" fill="#fbfbfb"/>
    <path d="M248.08 196.409h26.31v-43.62h-26.31z" fill="#fff"/>
    <path d="M248.08 297.679h26.31v-43.62h-26.31z" fill="#fff"/>
    <path d="M195.22 196.409h26.31v-43.62h-26.31z" fill="#fff"/>
    <path d="M248.08 104.239h26.31v-33.17h-26.31z" fill="#fff"/>
    <path d="M195.22 104.239h26.31v-33.17h-26.31z" fill="#fff"/>
    <path d="M194.8 297.679h26.31v-43.62H194.8z" fill="#fff"/>
    <path d="M178.79 421.029H355a2.94 2.94 0 0 0 2.94-2.94V89.479l-53.05-47.45h-126.1a3 3 0 0 0-2.94 3v373.08a2.94 2.94 0 0 0 2.94 2.92" stroke="#ebebeb" stroke-linecap="round" stroke-linejoin="round" stroke-width="2"/>
    <path d="M304.89 43.309v300.19" stroke="#ebebeb" stroke-linecap="round" stroke-linejoin="round" stroke-width="2"/>
    <path d="M437.6 37.769v76.92" stroke="#ebebeb" stroke-linecap="round" stroke-linejoin="round" stroke-width="2"/>
    <path d="M393.37 408.249h87.6V95.379l-21.56-26.17h-66.04z" fill="#f6f6f6"/>
    <path d="m459.41 137.769 21.56 4.07v-46.46l-21.56-26.17z" fill="#fbfbfb"/>
    <path d="M393.37 408.249h87.6V95.379l-21.56-26.17h-66.04z" stroke="#ebebeb" stroke-linecap="round" stroke-linejoin="round" stroke-width="2"/>
    <path d="M459.41 69.209v51.35" stroke="#ebebeb" stroke-linecap="round" stroke-linejoin="round" stroke-width="2"/>
    <path d="M499.85 129.649v47.52" stroke="#ebebeb" stroke-linecap="round" stroke-linejoin="round" stroke-width="2"/>
    <path d="M462.04 129.029H351.85a1.63 1.63 0 0 0-1.63 1.63l-.84 282.15a1.63 1.63 0 0 0 1.63 1.63h187.76a1.627 1.627 0 0 0 1.63-1.62l.69-235.09-41.24-48.7h-29.11" fill="#f6f6f6"/>
    <path d="m498.56 427.349 42.53-2.6v-247.01l-41.24-48.09z" fill="#fff"/>
    <path d="M499.85 140.469v121.45" stroke="#ebebeb" stroke-linecap="round" stroke-linejoin="round" stroke-width="2"/>
    <path d="M462.04 129.029H351.85a1.63 1.63 0 0 0-1.63 1.63l-.84 282.15a1.63 1.63 0 0 0 1.63 1.63h187.76a1.627 1.627 0 0 0 1.63-1.62l.69-235.09-41.24-48.7h-29.11" stroke="#ebebeb" stroke-linecap="round" stroke-linejoin="round" stroke-width="2"/>
    <path d="M469.231 158.949h10.11v40.98h-35.05v-40.98h5.94z" fill="#fff"/>
    <path d="M399.87 158.949h10.11v40.98h-35.05v-40.98h5.94z" fill="#fff"/>
    <path d="M469.231 303.789h10.11v40.98h-35.05v-40.98h5.94z" fill="#fff"/>
    <path d="M399.87 303.789h10.11v40.98h-35.05v-40.98h5.94z" fill="#fff"/>
    <path d="M449.3 86.569h-18.08v20.88h18.08z" fill="#fff"/>
    <path d="m475.6 123.909-10.54-11.75v-20.88l10.54 12.35z" fill="#f6f6f6"/>
    <path d="m516.96 195.869-10.55-10.87v-22.88l10.55 11.63z" fill="#f6f6f6"/>
    <path d="m534.52 213.979-10.28-10.6-.33-21.98 10.87 12.58z" fill="#f6f6f6"/>
    <path d="m517.291 238.479-10.541-9.44v-22.88l10.541 10.12z" fill="#f6f6f6"/>
    <path d="m534.78 254.129-10.57-9.46-.3-21.93 10.87 10.51z" fill="#f6f6f6"/>
    <path d="M422.621 86.569h-18.08v20.88h18.08z" fill="#fff"/>
    <path d="M570.07 311.679v103H446.78v-143.2a1.42 1.42 0 0 1 .868-1.342c.175-.073.363-.109.552-.108h97.54l24.74 21.84v13.3" fill="#f6f6f6"/>
    <path d="m570.47 429.339-24.74-15.71v-143.56l24.73 25.37z" fill="#fbfbfb"/>
    <path d="m563.85 319.279-10.55-7.75v-20.88l10.55 8.75z" fill="#f6f6f6"/>
    <path d="M545.73 430.009v-154.23" stroke="#ebebeb" stroke-linecap="round" stroke-linejoin="round" stroke-width="2"/>
    <path d="M570.07 311.679v103H446.78v-143.2a1.42 1.42 0 0 1 .868-1.342c.175-.073.363-.109.552-.108h97.54l24.74 21.84v13.3" stroke="#ebebeb" stroke-linecap="round" stroke-linejoin="round" stroke-width="2"/>
    <path d="M489.87 290.649h-21.71a1 1 0 0 0-1 1v24.85a1 1 0 0 0 1 1h21.71a1 1 0 0 0 1-1v-24.85a1 1 0 0 0-1-1" fill="#fff"/>
    <path d="M526.97 290.649h-21.71a1 1 0 0 0-1 1v24.85a1 1 0 0 0 1 1h21.71a1 1 0 0 0 1-1v-24.85a1 1 0 0 0-1-1" fill="#fff"/>
    <path d="M489.87 330.659h-21.71a1 1 0 0 0-1 1v24.85a1 1 0 0 0 1 1h21.71a1 1 0 0 0 1-1v-24.85a1 1 0 0 0-1-1" fill="#fff"/>
    <path d="M526.97 330.659h-21.71a1 1 0 0 0-1 1v24.85a1 1 0 0 0 1 1h21.71a1 1 0 0 0 1-1v-24.85a1 1 0 0 0-1-1" fill="#fff"/>
    <path d="M489.87 370.259h-21.71a1 1 0 0 0-1 1v24.85a1 1 0 0 0 1 1h21.71a1 1 0 0 0 1-1v-24.85a1 1 0 0 0-1-1" fill="#fff"/>
    <path d="M526.97 370.259h-21.71a1 1 0 0 0-1 1v24.85a1 1 0 0 0 1 1h21.71a1 1 0 0 0 1-1v-24.85a1 1 0 0 0-1-1" fill="#fff"/>
    <path d="M615.2 414.719H494.92" stroke="#ebebeb" stroke-linecap="round" stroke-linejoin="round" stroke-width="2"/>
    <path d="M474.19 297.879v129.47H250.67v-285.06l171.37-20.59 52.15 60.04v57.95" fill="#f6f6f6"/>
    <path d="M474.19 232.699v69.19" stroke="#d6d6d6" stroke-linecap="round" stroke-linejoin="round" stroke-width="2"/>
    <path d="M421.8 235.049v192.3H190.97v-305.65H421.8v21.41" fill="#f6f6f6"/>
    <path d="M421.8 313.269v114.08H190.97v-305.65H421.8v21.41" fill="#fff"/>
    <g stroke-linecap="round" stroke-linejoin="round" stroke-width="2">
      <path d="M364.601 296.279v14.25h29.29v-9.99" stroke="#f6f6f6"/>
      <path d="M351.091 319.529v-12" stroke="#f6f6f6"/>
      <path d="M405.5 319.529v-12" stroke="#f6f6f6"/>
      <path d="M370.67 319.529h23.22v12.87h-14.65" stroke="#f6f6f6"/>
      <path d="M428.791 320.529h-34.9v11.87h25.21" stroke="#f6f6f6"/>
      <path d="M358.8 319.529h-16.83" stroke="#f6f6f6"/>
      <path d="M373.76 295.049h20.131v12.48h4.399" stroke="#f6f6f6"/>
      <path d="M336.741 319.529H324" stroke="#f6f6f6"/>
      <path d="M423.871 325.969v-6.44" stroke="#f6f6f6"/>
      <path d="M279.821 321.689v11.26h29.29v-7" stroke="#f6f6f6"/>
      <path d="M267.43 332.949h27.04v12" stroke="#f6f6f6"/>
      <path d="M267.43 344.949v-12" stroke="#f6f6f6"/>
      <path d="M320.72 344.949v-12" stroke="#f6f6f6"/>
      <path d="M285.9 344.949h23.21" stroke="#f6f6f6"/>
      <path d="M332.331 344.949h-23.22" stroke="#f6f6f6"/>
      <path d="M274.03 344.949H257.2" stroke="#f6f6f6"/>
      <path d="M288.98 320.459h20.13v12.49H324" stroke="#f6f6f6"/>
      <path d="M381.23 282.719v12" stroke="#f6f6f6"/>
      <path d="M354.2 294.719v-12" stroke="#f6f6f6"/>
      <path d="M406.5 294.719v-12" stroke="#f6f6f6"/>
      <path d="M419.101 295.049h-25.21v12.54h16.63" stroke="#f6f6f6"/>
      <path d="M360.8 294.719h-16.83" stroke="#f6f6f6"/>
      <path d="M349.91 379.699v12.95h43.94v12" stroke="#f6f6f6"/>
      <path d="M366.811 404.649v-12" stroke="#f6f6f6"/>
      <path d="M385.281 404.649h20.99" stroke="#f6f6f6"/>
      <path d="M373.411 404.649h-16.83" stroke="#f6f6f6"/>
      <path d="M396.17 385.229h21.91" stroke="#f6f6f6"/>
      <path d="M349.66 344.629h29.29v-6.99" stroke="#f6f6f6"/>
      <path d="M350.771 333.379v6.86" stroke="#f6f6f6"/>
      <path d="M337.26 344.629h27.041v6" stroke="#f6f6f6"/>
      <path d="M364.071 383.569v-14.07" stroke="#f6f6f6"/>
      <path d="M420.371 344.629h-26.48v14.15h7.8" stroke="#f6f6f6"/>
      <path d="M370.661 358.719h8.29v12.65h-22.42" stroke="#f6f6f6"/>
      <path d="M343.47 356.629h23.23" stroke="#f6f6f6"/>
      <path d="M378.95 358.629v13.8h31.33" stroke="#f6f6f6"/>
      <path d="M418.801 358.629h-12.76v13.74h13.64" stroke="#f6f6f6"/>
      <path d="M370.67 383.569h-27.93" stroke="#f6f6f6"/>
      <path d="M378.95 332.149v12.48h4.4" stroke="#f6f6f6"/>
      <path d="M367.34 332.149h-33.36v-4.83" stroke="#f6f6f6"/>
      <path d="M275.68 416.949v11.25h29.29v-6.99" stroke="#f6f6f6"/>
      <path d="M246.391 414.209v13.99h43.93v13.04" stroke="#f6f6f6"/>
      <path d="M319.9 440.199v-12h15.39" stroke="#f6f6f6"/>
      <path d="M379.24 405.219v11.06h22.93v-3.81" stroke="#f6f6f6"/>
      <path d="M366.81 416.279h-16.9v-5.53" stroke="#f6f6f6"/>
      <path d="M261.99 413.759v-10.33h-20" stroke="#f6f6f6"/>
      <path d="M267.05 403.429h-5.06" stroke="#f6f6f6"/>
      <path d="M246.391 400.129v-11.54h23.71" stroke="#f6f6f6"/>
      <path d="M263.051 383.599v-3.5h-16.66" stroke="#f6f6f6"/>
      <path d="M263.051 380.099h1.83" stroke="#f6f6f6"/>
      <path d="M246.39 376.189v-11.04h-4.4" stroke="#f6f6f6"/>
      <path d="M251.25 365.149h16.18" stroke="#f6f6f6"/>
      <path d="M352.2 368.459h-4.01" stroke="#f6f6f6"/>
      <path d="M268.35 441.239h-5.2" stroke="#f6f6f6"/>
      <path d="m210.891 452.769-5.381 1.22" stroke="#f6f6f6"/>
      <path d="m223 468.919-15.54 3.49" stroke="#f6f6f6"/>
      <path d="M256.66 415.719h48.31v12.48h4.4" stroke="#f6f6f6"/>
      <path d="M364.601 332.149v-10.7" stroke="#f6f6f6"/>
      <path d="M405.5 333.179v7.19" stroke="#f6f6f6"/>
      <path d="M421.8 313.269v114.08H190.97v-305.65H421.8v21.41" stroke="#d6d6d6"/>
      <path d="M421.791 266.639v41.99" stroke="#d6d6d6"/>
    </g>
    <path d="M397.78 351.739a2.07 2.07 0 0 1-1.268 1.919c-.251.105-.52.16-.792.161h-41.36a2.067 2.067 0 0 1-2.06-2.08v-39.2a2.07 2.07 0 0 1 2.06-2.07h41.36a2.07 2.07 0 0 1 2.06 2.07v36.49" fill="#f8f8f8"/>
    <path d="M397.78 351.739a2.07 2.07 0 0 1-1.268 1.919c-.251.105-.52.16-.792.161h-41.36a2.067 2.067 0 0 1-2.06-2.08v-39.2a2.07 2.07 0 0 1 2.06-2.07h41.36a2.07 2.07 0 0 1 2.06 2.07v36.49" stroke="#d6d6d6" stroke-linecap="round" stroke-linejoin="round" stroke-width="2"/>
    <path d="M271.92 363.909a2.07 2.07 0 0 1-2.06 2.07h-41.35a2.07 2.07 0 0 1-2.07-2.07v-49.2a2.08 2.08 0 0 1 2.07-2.08h41.35a2.07 2.07 0 0 1 1.907 1.287c.102.252.155.521.153.793v46.52" fill="#f8f8f8"/>
    <path d="M271.92 363.909a2.07 2.07 0 0 1-2.06 2.07h-41.35a2.07 2.07 0 0 1-2.07-2.07v-49.2a2.08 2.08 0 0 1 2.07-2.08h41.35a2.07 2.07 0 0 1 1.907 1.287c.102.252.155.521.153.793v46.52" stroke="#d6d6d6" stroke-linecap="round" stroke-linejoin="round" stroke-width="2"/>
    <path d="M218.32 133.119h-27.44l-3.52-11.46h236.33l-2.34 11.46H236.63" fill="#f6f6f6"/>
    <path d="M218.32 133.119h-27.44l-3.52-11.46h236.33l-2.34 11.46H236.63" stroke="#d6d6d6" stroke-linecap="round" stroke-linejoin="round" stroke-width="2"/>
    <path d="M228.191 133.119h-3.181" stroke="#d6d6d6" stroke-linecap="round" stroke-linejoin="round" stroke-width="2"/>
    <path d="m421.35 133.119 54.25 51.25 3.36-8.72-55.27-53.99z" fill="#f6f6f6" stroke="#d6d6d6" stroke-linecap="round" stroke-linejoin="round" stroke-width="2"/>
    <path d="M418.45 278.099H190.88l-3.52-11.46h237.29l-2.85 11.46" fill="#f6f6f6"/>
    <path d="M418.45 278.099H190.88l-3.52-11.46h237.29l-2.85 11.46" stroke="#d6d6d6" stroke-linecap="round" stroke-linejoin="round" stroke-width="2"/>
    <path d="m429.25 160.219 25.81 71.84" stroke="#d6d6d6" stroke-linecap="round" stroke-linejoin="round" stroke-width="2"/>
    <path d="M437.96 184.369h20.95" stroke="#d6d6d6" stroke-linecap="round" stroke-linejoin="round" stroke-width="2"/>
    <path d="M446.23 207.039h18.93" stroke="#d6d6d6" stroke-linecap="round" stroke-linejoin="round" stroke-width="2"/>
    <path d="m446.58 160.219 24.44 71.84" stroke="#d6d6d6" stroke-linecap="round" stroke-linejoin="round" stroke-width="2"/>
    <path d="m478.01 261.249-16.19-.31-32.57-23.17h17.331z" fill="#ebebeb" stroke="#d6d6d6" stroke-linecap="round" stroke-linejoin="round" stroke-width="2"/>
    <path d="m478.01 232.739-16.19-.31-32.57-23.17h17.331z" fill="#ebebeb" stroke="#d6d6d6" stroke-linecap="round" stroke-linejoin="round" stroke-width="2"/>
    <path d="m429.25 237.769 25.81 71.84" stroke="#d6d6d6" stroke-linecap="round" stroke-linejoin="round" stroke-width="2"/>
    <path d="M437.96 261.919h18.87" stroke="#d6d6d6" stroke-linecap="round" stroke-linejoin="round" stroke-width="2"/>
    <path d="M446.23 284.589h21.19" stroke="#d6d6d6" stroke-linecap="round" stroke-linejoin="round" stroke-width="2"/>
    <path d="m446.58 237.769 24.44 71.84" stroke="#d6d6d6" stroke-linecap="round" stroke-linejoin="round" stroke-width="2"/>
    <path d="M478.01 261.249v-28.51l-31.43-23.48v28.51z" fill="#fff" stroke="#d6d6d6" stroke-linecap="round" stroke-linejoin="round" stroke-width="2"/>
    <path d="M446.581 209.259H429.25v28.51h17.331z" fill="#ebebeb" stroke="#d6d6d6" stroke-linecap="round" stroke-linejoin="round" stroke-width="2"/>
    <path d="M446.581 297.629H429.25v22.26h17.331z" fill="#f6f6f6" stroke="#d6d6d6" stroke-linecap="round" stroke-linejoin="round" stroke-width="2"/>
    <path d="m446.58 319.889 31.43 14.01v-20.02l-31.43-16.25z" fill="#fff" stroke="#d6d6d6" stroke-linecap="round" stroke-linejoin="round" stroke-width="2"/>
    <path d="m478.01 333.899-16.19-.61-32.57-13.4h17.331z" fill="#ebebeb" stroke="#d6d6d6" stroke-linecap="round" stroke-linejoin="round" stroke-width="2"/>
    <path d="m429.25 320.109 25.81 71.84" stroke="#d6d6d6" stroke-linecap="round" stroke-linejoin="round" stroke-width="2"/>
    <path d="M437.96 344.269h20.95" stroke="#d6d6d6" stroke-linecap="round" stroke-linejoin="round" stroke-width="2"/>
    <path d="M446.23 366.929h21.19" stroke="#d6d6d6" stroke-linecap="round" stroke-linejoin="round" stroke-width="2"/>
    <path d="m446.58 320.109 24.44 71.84" stroke="#d6d6d6" stroke-linecap="round" stroke-linejoin="round" stroke-width="2"/>
    <path d="M350.01 167.889v-9.23c0-.76 1.001-1.38 2.201-1.38h47.06c1.21 0 2.19.62 2.19 1.38v61c0 .77-1 1.39-2.19 1.39h-47.07c-1.22 0-2.201-.62-2.201-1.39v-47.72" fill="#f8f8f8"/>
    <path d="M350.01 167.889v-9.23c0-.76 1.001-1.38 2.201-1.38h47.06c1.21 0 2.19.62 2.19 1.38v61c0 .77-1 1.39-2.19 1.39h-47.07c-1.22 0-2.201-.62-2.201-1.39v-47.72" stroke="#d6d6d6" stroke-linecap="round" stroke-linejoin="round" stroke-width="2"/>
    <path d="M375.74 157.279v52.97" stroke="#d6d6d6" stroke-linecap="round" stroke-linejoin="round" stroke-width="2"/>
    <path d="M350.86 188.059h49.75" stroke="#d6d6d6" stroke-linecap="round" stroke-linejoin="round" stroke-width="2"/>
    <path d="M223.45 174.889v-9.23c0-.76 1-1.38 2.2-1.38h47.06c1.22 0 2.2.62 2.2 1.38v61c0 .77-1 1.39-2.2 1.39h-47.06c-1.21 0-2.2-.62-2.2-1.39v-44.56" fill="#f8f8f8"/>
    <path d="M223.45 174.889v-9.23c0-.76 1-1.38 2.2-1.38h47.06c1.22 0 2.2.62 2.2 1.38v61c0 .77-1 1.39-2.2 1.39h-47.06c-1.21 0-2.2-.62-2.2-1.39v-44.56" stroke="#d6d6d6" stroke-linecap="round" stroke-linejoin="round" stroke-width="2"/>
    <path d="M249.18 164.279v52.97" stroke="#d6d6d6" stroke-linecap="round" stroke-linejoin="round" stroke-width="2"/>
    <path d="M274.06 193.059h-49.75" stroke="#d6d6d6" stroke-linecap="round" stroke-linejoin="round" stroke-width="2"/>
    <path d="M421.791 151.239v110.68" stroke="#d6d6d6" stroke-linecap="round" stroke-linejoin="round" stroke-width="2"/>
    <path d="M217.92 344.639v11.85" stroke="#f6f6f6" stroke-linecap="round" stroke-linejoin="round" stroke-width="2"/>
    <path d="m205.82 343.569 59.33-.14" stroke="#f6f6f6" stroke-linecap="round" stroke-linejoin="round" stroke-width="2"/>
    <path d="M229.28 371.529v-13.08" stroke="#f6f6f6" stroke-linecap="round" stroke-linejoin="round" stroke-width="2"/>
    <path d="M276.51 343.429h39.351" stroke="#f6f6f6" stroke-linecap="round" stroke-linejoin="round" stroke-width="2"/>
    <path d="M276.51 371.379v-12.64" stroke="#f6f6f6" stroke-linecap="round" stroke-linejoin="round" stroke-width="2"/>
    <path d="M300.28 343.429v-8.41" stroke="#f6f6f6" stroke-linecap="round" stroke-linejoin="round" stroke-width="2"/>
    <path d="M208.63 388.589v11.84" stroke="#f6f6f6" stroke-linecap="round" stroke-linejoin="round" stroke-width="2"/>
    <path d="m196.54 387.519 59.32-.15" stroke="#f6f6f6" stroke-linecap="round" stroke-linejoin="round" stroke-width="2"/>
    <path d="M219.99 415.469v-13.07" stroke="#f6f6f6" stroke-linecap="round" stroke-linejoin="round" stroke-width="2"/>
    <path d="M267.22 387.369h28.17" stroke="#f6f6f6" stroke-linecap="round" stroke-linejoin="round" stroke-width="2"/>
    <path d="M267.22 415.329v-12.64" stroke="#f6f6f6" stroke-linecap="round" stroke-linejoin="round" stroke-width="2"/>
    <path d="M290.99 387.369v-3.72" stroke="#f6f6f6" stroke-linecap="round" stroke-linejoin="round" stroke-width="2"/>
    <path d="M310.18 353.489v-10.13" stroke="#f6f6f6" stroke-linecap="round" stroke-linejoin="round" stroke-width="2"/>
    <path d="M474.19 183.069v46.62" stroke="#d6d6d6" stroke-linecap="round" stroke-linejoin="round" stroke-width="2"/>
    <path d="M474.19 334.269v88.14" stroke="#d6d6d6" stroke-linecap="round" stroke-linejoin="round" stroke-width="2"/>
    <path d="M419.11 427.349h174.35" stroke="#e5e5e5" stroke-linecap="round" stroke-linejoin="round" stroke-width="2"/>
    <path d="m509.22 422.879 8.85 4.54-2.1-168.51h-4.64z" fill="#fff"/>
    <path d="m509.22 422.879 8.85 4.54-2.1-168.51h-4.64z" stroke="#dfdfdf" stroke-linecap="round" stroke-linejoin="round" stroke-width="2"/>
    <path d="m518.98 417.379-4.41 5.83-6.25-5.83-1.87-57.8h14.39z" fill="#f6f6f6"/>
    <path d="m518.98 417.379-4.41 5.83-6.25-5.83-1.87-57.8h14.39z" stroke="#dfdfdf" stroke-linecap="round" stroke-linejoin="round" stroke-width="2"/>
    <path d="M508.56 416.579a6 6 0 0 0-6 6h22.19a6 6 0 0 0-6-6h-6.07" fill="#f6f6f6"/>
    <path d="M508.56 416.579a6 6 0 0 0-6 6h22.19a6 6 0 0 0-6-6h-6.07" stroke="#dfdfdf" stroke-linecap="round" stroke-linejoin="round" stroke-width="2"/>
    <path d="M528.74 427.349h-30.18l.77-3.43a2.67 2.67 0 0 1 2.74-1.77h23.13a2.66 2.66 0 0 1 2.73 1.77z" fill="#f6f6f6" stroke="#dfdfdf" stroke-linecap="round" stroke-linejoin="round" stroke-width="2"/>
    <path d="M513.8 363.479h-5.92a3.39 3.39 0 0 1-3.41-3.11v-.36a2.33 2.33 0 0 1 2.33-2.33h14.06a2.335 2.335 0 0 1 2.34 2.35 3.397 3.397 0 0 1-3.38 3.39h-2.07" fill="#f6f6f6"/>
    <path d="M513.8 363.479h-5.92a3.39 3.39 0 0 1-3.41-3.11v-.36a2.33 2.33 0 0 1 2.33-2.33h14.06a2.335 2.335 0 0 1 2.34 2.35 3.397 3.397 0 0 1-3.38 3.39h-2.07" stroke="#dfdfdf" stroke-linecap="round" stroke-linejoin="round" stroke-width="2"/>
    <path d="M514.35 320.929h2.74a2.34 2.34 0 1 0 0-4.68h-6.89a2.3 2.3 0 0 0-.897.175 2.32 2.32 0 0 0-1.443 2.165 2.34 2.34 0 0 0 2.34 2.34h1" fill="#f6f6f6"/>
    <path d="M514.35 320.929h2.74a2.34 2.34 0 1 0 0-4.68h-6.89a2.3 2.3 0 0 0-.897.175 2.32 2.32 0 0 0-1.443 2.165 2.34 2.34 0 0 0 2.34 2.34h1" stroke="#dfdfdf" stroke-linecap="round" stroke-linejoin="round" stroke-width="2"/>
    <path d="M517.29 288.159h-7.28a1.87 1.87 0 0 0-1.87 1.87v.72a1.87 1.87 0 0 0 1.87 1.87h7.28a1.87 1.87 0 0 0 1.87-1.87v-.72a1.87 1.87 0 0 0-1.87-1.87" fill="#fff"/>
    <path d="M513.78 288.729c1.38.19 1.73 2.65 0 3.27-2.94 1.08 5 .62 5 .62l-.21-4.46h-4.89" fill="#d6d6d6" opacity=".2"/>
    <path d="M517.29 288.159h-7.28a1.87 1.87 0 0 0-1.87 1.87v.72a1.87 1.87 0 0 0 1.87 1.87h7.28a1.87 1.87 0 0 0 1.87-1.87v-.72a1.87 1.87 0 0 0-1.87-1.87" stroke="#dfdfdf" stroke-linecap="round" stroke-linejoin="round" stroke-width="2"/>
    <path d="M516.79 287.919h-6.29l-3.49-6.23-4.81-16.39 4.7-4.86a9.39 9.39 0 0 1 10.416-2.11 9.3 9.3 0 0 1 3.054 2.11l4.74 4.9-4.8 16.31z" fill="#f6f6f6"/>
    <path d="M520.3 281.649h-13.29l-4.82-16.35 22.91.04z" fill="#fff"/>
    <path d="M512.49 257.649s2.73 2 3 4.85 4 3.22 4 3.22l-2.699 15.93-3.06 6.51h3.639l3-6.51s4.831-14.62 4.731-16.31-3.5-4.42-4-4.86-8.57-2.83-8.57-2.83" fill="#d6d6d6" opacity=".2"/>
    <path d="M516.79 287.919h-6.29l-3.49-6.23-4.81-16.39 4.7-4.86a9.39 9.39 0 0 1 10.416-2.11 9.3 9.3 0 0 1 3.054 2.11l4.74 4.9-4.8 16.31z" stroke="#dfdfdf" stroke-linecap="round" stroke-linejoin="round" stroke-width="2"/>
    <path d="M501 265.339h25.291" stroke="#dfdfdf" stroke-linecap="round" stroke-linejoin="round" stroke-width="2"/>
    <path d="M506.2 281.649h14.83z" fill="#fff"/>
    <path d="M506.2 281.649h14.83" stroke="#dfdfdf" stroke-linecap="round" stroke-linejoin="round" stroke-width="2"/>
    <path d="M506.2 368.509c.78.5 10.19.18 10.19.18v48.26s2.46.95 2.56.43.8-53.94.8-53.94l-13.55.08z" fill="#d6d6d6" opacity=".2"/>
    <path d="m396.33 236.029-20.59-.34c-1.12 0-1.06.66-1.06 1.77v201.71h27.84l-.18-195.14" fill="#f6f6f6"/>
    <path d="m396.33 236.029-20.59-.34c-1.12 0-1.06.66-1.06 1.77v201.71h27.84l-.18-195.14" stroke="#d6d6d6" stroke-linecap="round" stroke-linejoin="round" stroke-width="2"/>
    <path d="M396.33 242.529v196.64h85.71v-150.51l-85.71-52.6" fill="#ebebeb"/>
    <path d="M396.33 242.529v196.64h85.71v-150.51l-85.71-52.6" stroke="#d6d6d6" stroke-linecap="round" stroke-linejoin="round" stroke-width="2"/>
    <path d="M411.31 439.169h58.96v-137.36l-58.96-35.43z" fill="#f6f6f6" stroke="#d6d6d6" stroke-linecap="round" stroke-linejoin="round" stroke-width="2"/>
    <path d="m416.31 306.229 52.07 22.61" stroke="#d6d6d6" stroke-linecap="round" stroke-linejoin="round" stroke-width="2"/>
    <path d="m416.31 325.019 52.07 20.52" stroke="#d6d6d6" stroke-linecap="round" stroke-linejoin="round" stroke-width="2"/>
    <path d="m416.31 343.809 51.78 18.32" stroke="#d6d6d6" stroke-linecap="round" stroke-linejoin="round" stroke-width="2"/>
    <path d="m416.31 362.599 52.07 16.34" stroke="#d6d6d6" stroke-linecap="round" stroke-linejoin="round" stroke-width="2"/>
    <path d="m416.31 381.399 52.07 14.23" stroke="#d6d6d6" stroke-linecap="round" stroke-linejoin="round" stroke-width="2"/>
    <path d="m416.31 400.189 52.07 12.14" stroke="#d6d6d6" stroke-linecap="round" stroke-linejoin="round" stroke-width="2"/>
    <path d="m418.13 289.409 48.49 26.84" stroke="#d6d6d6" stroke-linecap="round" stroke-linejoin="round" stroke-width="2"/>
    <path d="m5.17 183.659-32.54-.62 183.49-154.93 198.18 204.59" fill="#e5e5e5"/>
    <path d="m5.17 183.659-32.54-.62 183.49-154.93 198.18 204.59" stroke="#3a728c" stroke-linecap="round" stroke-linejoin="round" stroke-width="2"/>
    <path d="M375.36 245.189v-28.22l-84.43-55.77v278h84.43v-188.86" fill="#e5e5e5"/>
    <path d="M375.36 245.189v-28.22l-84.43-55.77v278h84.43v-188.86" stroke="#3a728c" stroke-linecap="round" stroke-linejoin="round" stroke-width="2"/>
    <path d="m166.95 38.159 123.98 123.04v277.97H12.15v-277.06l141.56-114.83" fill="#fff"/>
    <path d="m166.95 38.159 123.98 123.04v277.97H12.15v-277.06l141.56-114.83" stroke="#3a728c" stroke-linecap="round" stroke-linejoin="round" stroke-width="2"/>
    <path d="m156.42 45.079 1.12-.91" stroke="#3a728c" stroke-linecap="round" stroke-linejoin="round" stroke-width="2"/>
    <path d="M12.45 162.899v24.6l148.27-119.7 132.35 130.42 81.59 44.31-.16-22.69-126.4-118.21-85.88-63.47z" fill="#3a728c" opacity=".04"/>
    <path d="M238.65 178.289h10.67" stroke="#f6f6f6" stroke-linecap="round" stroke-linejoin="round" stroke-width="2"/>
    <path d="M198.62 178.289h24.48" stroke="#f6f6f6" stroke-linecap="round" stroke-linejoin="round" stroke-width="2"/>
    <path d="M201.42 155.899h77.51" stroke="#f6f6f6" stroke-linecap="round" stroke-linejoin="round" stroke-width="2"/>
    <path d="M133.82 196.769h99.05" stroke="#f6f6f6" stroke-linecap="round" stroke-linejoin="round" stroke-width="2"/>
    <path d="M124.9 196.769h3.06" stroke="#f6f6f6" stroke-linecap="round" stroke-linejoin="round" stroke-width="2"/>
    <path d="M91.63 196.769h26.11" stroke="#f6f6f6" stroke-linecap="round" stroke-linejoin="round" stroke-width="2"/>
    <path d="M44.21 196.769H85.1" stroke="#f6f6f6" stroke-linecap="round" stroke-linejoin="round" stroke-width="2"/>
    <path d="M268.58 216.739h3.48" stroke="#f6f6f6" stroke-linecap="round" stroke-linejoin="round" stroke-width="2"/>
    <path d="M218.57 216.739h42.64" stroke="#f6f6f6" stroke-linecap="round" stroke-linejoin="round" stroke-width="2"/>
    <path d="M122.2 216.739h87.95" stroke="#f6f6f6" stroke-linecap="round" stroke-linejoin="round" stroke-width="2"/>
    <path d="M48.43 239.469h47.88" stroke="#f6f6f6" stroke-linecap="round" stroke-linejoin="round" stroke-width="2"/>
    <path d="M20.24 239.469h11.48" stroke="#f6f6f6" stroke-linecap="round" stroke-linejoin="round" stroke-width="2"/>
    <path d="M102.18 216.739h5.16" stroke="#f6f6f6" stroke-linecap="round" stroke-linejoin="round" stroke-width="2"/>
    <path d="M31.72 216.739h56.37" stroke="#f6f6f6" stroke-linecap="round" stroke-linejoin="round" stroke-width="2"/>
    <path d="M79.95 258.219h26.24" stroke="#f6f6f6" stroke-linecap="round" stroke-linejoin="round" stroke-width="2"/>
    <path d="M31.72 258.219h41.85" stroke="#f6f6f6" stroke-linecap="round" stroke-linejoin="round" stroke-width="2"/>
    <path d="M218.57 256.439h27.05" stroke="#f6f6f6" stroke-linecap="round" stroke-linejoin="round" stroke-width="2"/>
    <path d="M218.57 239.469h36.9" stroke="#f6f6f6" stroke-linecap="round" stroke-linejoin="round" stroke-width="2"/>
    <path d="M242.25 196.769h34.63" stroke="#f6f6f6" stroke-linecap="round" stroke-linejoin="round" stroke-width="2"/>
    <path d="M47.4 153.339h77.5" stroke="#f6f6f6" stroke-linecap="round" stroke-linejoin="round" stroke-width="2"/>
    <path d="M88.09 108.599h31.69" stroke="#f6f6f6" stroke-linecap="round" stroke-linejoin="round" stroke-width="2"/>
    <path d="M60.06 131.569h31.69" stroke="#f6f6f6" stroke-linecap="round" stroke-linejoin="round" stroke-width="2"/>
    <path d="M79.95 176.389h16.36" stroke="#f6f6f6" stroke-linecap="round" stroke-linejoin="round" stroke-width="2"/>
    <path d="M20.11 176.389h46.72" stroke="#f6f6f6" stroke-linecap="round" stroke-linejoin="round" stroke-width="2"/>
    <path d="M199.29 108.599h31.69" stroke="#f6f6f6" stroke-linecap="round" stroke-linejoin="round" stroke-width="2"/>
    <path d="M164.92 83.339h27.16" stroke="#f6f6f6" stroke-linecap="round" stroke-linejoin="round" stroke-width="2"/>
    <path d="M120.41 83.339h37.49" stroke="#f6f6f6" stroke-linecap="round" stroke-linejoin="round" stroke-width="2"/>
    <path d="M212.14 371.869h36.89" stroke="#f6f6f6" stroke-linecap="round" stroke-linejoin="round" stroke-width="2"/>
    <path d="M205.35 292.589h15.18" stroke="#f6f6f6" stroke-linecap="round" stroke-linejoin="round" stroke-width="2"/>
    <path d="M266.13 310.409h14.55" stroke="#f6f6f6" stroke-linecap="round" stroke-linejoin="round" stroke-width="2"/>
    <path d="M269.82 284.719h14.55" stroke="#f6f6f6" stroke-linecap="round" stroke-linejoin="round" stroke-width="2"/>
    <path d="M273.41 256.989h12.94" stroke="#f6f6f6" stroke-linecap="round" stroke-linejoin="round" stroke-width="2"/>
    <path d="M20.24 370.529h56.38" stroke="#f6f6f6" stroke-linecap="round" stroke-linejoin="round" stroke-width="2"/>
    <path d="M85.79 370.529h17.3" stroke="#f6f6f6" stroke-linecap="round" stroke-linejoin="round" stroke-width="2"/>
    <path d="M18.82 281.539h17.29" stroke="#f6f6f6" stroke-linecap="round" stroke-linejoin="round" stroke-width="2"/>
    <path d="M115.08 335.499v-96.36a1 1 0 0 1 1-1h81.36a2.003 2.003 0 0 1 2 2v153l-84.36-1" fill="#ebebeb"/>
    <path d="M115.08 335.499v-96.36a1 1 0 0 1 1-1h81.36a2.003 2.003 0 0 1 2 2v153l-84.36-1" stroke="#3a728c" stroke-linecap="round" stroke-linejoin="round" stroke-width="2"/>
    <path d="M115.08 385.379v-45.55" stroke="#3a728c" stroke-linecap="round" stroke-linejoin="round" stroke-width="2"/>
    <path d="M155.55 89.839a42.61 42.61 0 0 1 39.403 26.295 42.6 42.6 0 0 1 3.247 16.315v31.74h-85.27v-31.74a42.61 42.61 0 0 1 26.311-39.37 42.6 42.6 0 0 1 16.309-3.24" fill="#e5e5e5" stroke="#3a728c" stroke-linecap="round" stroke-linejoin="round" stroke-width="2"/>
    <path d="m187.2 103.939-26.34 60.25h37.34l.46-33.78c-2.7-16.81-8.86-23.36-11.41-26.47z" fill="#fff" opacity=".6"/>
    <path d="M110.4 410.539v-19.4h81.55v25.47l-89.55 4.95" fill="#fff"/>
    <path d="M110.4 410.539v-19.4h81.55v25.47l-89.55 4.95" stroke="#3a728c" stroke-linecap="round" stroke-linejoin="round" stroke-width="2"/>
    <path d="M202.88 393.759v45.41h-32.2v-24.19l20.69.38.58-24.22z" fill="#ebebeb" stroke="#3a728c" stroke-linecap="round" stroke-linejoin="round" stroke-width="2"/>
    <path d="M136.7 414.879h33.98v24.29H94.07v-24.29h29.52" fill="#fff"/>
    <path d="M136.7 414.879h33.98v24.29H94.07v-24.29h29.52" stroke="#3a728c" stroke-linecap="round" stroke-linejoin="round" stroke-width="2"/>
    <path d="M127.99 414.449h1.73" stroke="#3a728c" stroke-linecap="round" stroke-linejoin="round" stroke-width="2"/>
    <path d="m-1.89 147.489 158.35-131.35 150.94 124.13 86.32 78.99-6.67 6.67-94.76-62.6-136.14-134.26L5.58 155.899z" fill="#e5e5e5" stroke="#3a728c" stroke-linecap="round" stroke-linejoin="round" stroke-width="2"/>
    <path d="m156.46 16.139 157.61 117.46 79.65 85.66-94.76-62.6z" fill="#fff" stroke="#3a728c" stroke-linecap="round" stroke-linejoin="round" stroke-width="2"/>
    <path d="m305.72 356.629 8.94 2.08" stroke="#dfdfdf" stroke-linecap="round" stroke-linejoin="round" stroke-width="2"/>
    <path d="m295.72 371.459 17.47 4.07" stroke="#dfdfdf" stroke-linecap="round" stroke-linejoin="round" stroke-width="2"/>
    <path d="M243.29 244.529a20.64 20.64 0 0 1 20.64 20.64v52h-41.28v-52a20.64 20.64 0 0 1 20.64-20.64" fill="#e5e5e5" stroke="#3a728c" stroke-linecap="round" stroke-linejoin="round" stroke-width="2"/>
    <path d="m257.27 250.029-17.38 71.13h-10l.73-55.94s.71-16.2 16.68-20.25c-.04-.05 7.74 2.6 9.97 5.06" fill="#fff" opacity=".6"/>
    <path d="M243.29 244.529a20.64 20.64 0 0 0-20.64 20.64v52h7.93v-52a20.64 20.64 0 0 1 16.68-20.25 21 21 0 0 0-4-.39z" fill="#e5e5e5"/>
    <path d="m293.46 262.619 13.72 5.69" stroke="#dfdfdf" stroke-linecap="round" stroke-linejoin="round" stroke-width="2"/>
    <path d="m301.3 297.999 5.72 2.37" stroke="#dfdfdf" stroke-linecap="round" stroke-linejoin="round" stroke-width="2"/>
    <path d="m293.29 294.679 4.53 1.88" stroke="#dfdfdf" stroke-linecap="round" stroke-linejoin="round" stroke-width="2"/>
    <path d="m302.33 208.439 24.66 13.44" stroke="#dfdfdf" stroke-linecap="round" stroke-linejoin="round" stroke-width="2"/>
    <path d="M515.39 439.169h2.68" stroke="#3a728c" stroke-linecap="round" stroke-linejoin="round" stroke-width="2"/>
    <path d="M467.72 439.169h43.15" stroke="#3a728c" stroke-linecap="round" stroke-linejoin="round" stroke-width="2"/>
    <path d="M176.031 263.919h-39.26v43.97h39.26z" fill="#f6f6f6" stroke="#3a728c" stroke-linecap="round" stroke-linejoin="round" stroke-width="2"/>
    <path d="M156.4 286.509v15.99" stroke="#3a728c" stroke-linecap="round" stroke-linejoin="round" stroke-width="2"/>
    <path d="M156.4 268.309v14.17" stroke="#3a728c" stroke-linecap="round" stroke-linejoin="round" stroke-width="2"/>
    <path d="M140.82 285.909h30.5" stroke="#3a728c" stroke-linecap="round" stroke-linejoin="round" stroke-width="2"/>
    <path d="m157.39 89.879-32.49 74.31h-3v-31.74l.15-2.6a43.07 43.07 0 0 1 35.31-40z" fill="#fff" opacity=".6"/>
    <path d="M121.93 164.189v-31.74l.15-2.6a43.07 43.07 0 0 1 35.31-40" stroke="#3a728c" stroke-linecap="round" stroke-linejoin="round" stroke-width="2"/>
    <path d="M158.26 97.659v58.35" stroke="#3a728c" stroke-linecap="round" stroke-linejoin="round" stroke-width="2"/>
    <path d="M130.47 129.639h63.5" stroke="#3a728c" stroke-linecap="round" stroke-linejoin="round" stroke-width="2"/>
    <path d="M155.55 89.839a42.61 42.61 0 0 1 39.403 26.295 42.6 42.6 0 0 1 3.247 16.315v31.74h-85.27v-31.74a42.61 42.61 0 0 1 26.311-39.37 42.6 42.6 0 0 1 16.309-3.24" stroke="#3a728c" stroke-linecap="round" stroke-linejoin="round" stroke-width="2"/>
    <path d="M230.45 299.279v-31.47c0-11.4 7.27-20.88 16.86-22.89" stroke="#3a728c" stroke-linecap="round" stroke-linejoin="round" stroke-width="2"/>
    <path d="M243.29 244.529a20.64 20.64 0 0 1 20.64 20.64v52h-41.28v-52a20.64 20.64 0 0 1 20.64-20.64" stroke="#3a728c" stroke-linecap="round" stroke-linejoin="round" stroke-width="2"/>
    <path d="M252.921 346.279h-39.32a7.26 7.26 0 0 1-6.433-3.79 7.27 7.27 0 0 1 .313-7.46l3.49-5.27a7.34 7.34 0 0 1 6.12-3.28h44.349a7.248 7.248 0 0 1 6.12 11.24l-.729 1.11a16.7 16.7 0 0 1-13.91 7.45" fill="#3a728c" opacity=".04"/>
    <path d="M263.53 310.229a6 6 0 0 0-5.24 3.31v-.88c0-6.17-4.5-11.16-10.06-11.16-4.58 0-8.44 3.41-9.65 8.07a8.13 8.13 0 0 0-7-4.19c-4.13 0-7.56 3.36-8.19 7.76h-1.72c-3.45 0-6.26 3.11-6.26 6.95v3.73h54.2v-6.79c.04-3.76-2.7-6.8-6.08-6.8" fill="#fff"/>
    <path d="M263.53 310.229a6 6 0 0 0-5.24 3.31v-.88c0-6.17-4.5-11.16-10.06-11.16-4.58 0-8.44 3.41-9.65 8.07a8.13 8.13 0 0 0-7-4.19c-4.13 0-7.56 3.36-8.19 7.76h-1.72c-3.45 0-6.26 3.11-6.26 6.95v3.73h54.2v-6.79c.04-3.76-2.7-6.8-6.08-6.8" stroke="#3a728c" stroke-linecap="round" stroke-linejoin="round" stroke-width="2"/>
    <path d="M211.98 321.109h59.85a1 1 0 0 1 1 1v4.61a8.1 8.1 0 0 1-8.1 8.1h-44.66a8.1 8.1 0 0 1-8.1-8.1v-5.61z" fill="#e5e5e5"/>
    <path d="M211.98 321.109h59.85a1 1 0 0 1 1 1v4.61a8.1 8.1 0 0 1-8.1 8.1h-44.66a8.1 8.1 0 0 1-8.1-8.1v-5.61z" stroke="#3a728c" stroke-linecap="round" stroke-linejoin="round" stroke-width="2"/>
    <path d="M210.45 321.109h52a1 1 0 0 1 1 1v4.61a8.1 8.1 0 0 1-8.1 8.1h-37.81a8.1 8.1 0 0 1-8.1-8.1v-4.61q.001-.2.077-.385a1 1 0 0 1 .933-.615" fill="#fff"/>
    <path d="M210.45 321.109h52a1 1 0 0 1 1 1v4.61a8.1 8.1 0 0 1-8.1 8.1h-37.81a8.1 8.1 0 0 1-8.1-8.1v-4.61q.001-.2.077-.385a1 1 0 0 1 .933-.615" stroke="#3a728c" stroke-linecap="round" stroke-linejoin="round" stroke-width="2"/>
    <path d="M115.08 247.919h75.99v143.22l8.38 2v-154.58l-83.37-.42z" fill="#3a728c" opacity=".04"/>
    <path d="M215.94 317.409h48.47s.87-4.27-4.37-4.27a4.558 4.558 0 0 1 6.469-3.085 4.56 4.56 0 0 1 1.961 1.865l1.18 2.13v7.42l-56-.36 2.2-3.7" fill="#3a728c" opacity=".04"/>
    <path d="m305.72 356.629 29.28 6.81" stroke="#dfdfdf" stroke-linecap="round" stroke-linejoin="round" stroke-width="2"/>
    <path d="m324.36 378.309 29.28 6.81" stroke="#dfdfdf" stroke-linecap="round" stroke-linejoin="round" stroke-width="2"/>
    <path d="m361.78 346.899 11.21 2.4" stroke="#dfdfdf" stroke-linecap="round" stroke-linejoin="round" stroke-width="2"/>
    <path d="m318 376.649 3 .69" stroke="#dfdfdf" stroke-linecap="round" stroke-linejoin="round" stroke-width="2"/>
    <path d="m295.72 371.459 17.47 4.07" stroke="#dfdfdf" stroke-linecap="round" stroke-linejoin="round" stroke-width="2"/>
    <path d="m353.28 360.999 11.21 2.39" stroke="#dfdfdf" stroke-linecap="round" stroke-linejoin="round" stroke-width="2"/>
    <path d="m293.46 262.619 13.72 5.69" stroke="#dfdfdf" stroke-linecap="round" stroke-linejoin="round" stroke-width="2"/>
    <path d="m359.27 352.469-49.68-12.48v-118.11l49.68 27.23v99.31" fill="#f6f6f6"/>
    <path d="m309.59 230.639 40.68 20.8v99.12l-40.68-10.57z" fill="#e5e5e5"/>
    <path d="m321.16 236.549-11.57 28.79v53.25l29.53-73.32z" fill="#fff" opacity=".41"/>
    <path d="m350.01 277.009-26.47 65.9 26.73 7.65z" fill="#fff" opacity=".41"/>
    <path d="m309.59 230.639 40.68 20.8v92.54" stroke="#3a728c" stroke-linecap="round" stroke-linejoin="round" stroke-width="2"/>
    <path d="m359.27 352.469-49.68-12.48v-118.11l49.68 27.23v99.31" stroke="#3a728c" stroke-linecap="round" stroke-linejoin="round" stroke-width="2"/>
    <path d="M332 245.269v99.92" stroke="#3a728c" stroke-linecap="round" stroke-linejoin="round" stroke-width="2"/>
    <path d="m312.89 286.009 32.67 12.62" stroke="#3a728c" stroke-linecap="round" stroke-linejoin="round" stroke-width="2"/>
    <path d="M-33.57 331.849c-20.12 11.91-77.91 2.58-77.34-34.88-37.65-17.55-28.11-66.12-5.26-72.51-7.74-60.12 74.29-97.84 112.16-44.19 35.91.81 63.18 43.29 37.89 80.59 16.14 32.81-23.79 56.34-23.79 56.34" fill="#fff"/>
    <path d="M-33.57 331.849c-20.12 11.91-77.91 2.58-77.34-34.88-37.65-17.55-28.11-66.12-5.26-72.51-7.74-60.12 74.29-97.84 112.16-44.19 35.91.81 63.18 43.29 37.89 80.59 16.14 32.81-23.79 56.34-23.79 56.34" stroke="#3a728c" stroke-linecap="round" stroke-linejoin="round" stroke-width="2"/>
    <path d="M52.6 316.739c9.59 1.39 21.42 0 28.84-12 33.15 1.21 49-32.39 35.49-55.11 14.93-35.6-16.88-63.6-48.73-62.18 1.52-1.79 1.22-20.63-15.36-26.33-11.79-24-35.37-35.83-73.06-19.48-56.55-31.21-118.49 29.48-96 82.89" fill="#fff"/>
    <path d="M52.6 316.739c9.59 1.39 21.42 0 28.84-12 33.15 1.21 49-32.39 35.49-55.11 14.93-35.6-16.88-63.6-48.73-62.18 1.52-1.79 1.22-20.63-15.36-26.33-11.79-24-35.37-35.83-73.06-19.48-56.55-31.21-118.49 29.48-96 82.89" stroke="#3a728c" stroke-linecap="round" stroke-linejoin="round" stroke-width="2"/>
    <path d="M-29.71 442.909s15.91-56.76 10.91-97.55c-5.4-44.13-39.59-86-39.59-86l7.16-3.18 17.77 14.23-12.05-43 12.36-1.73 16.58 43.74 5-10.95 9.85 3.19s-3 15.39.25 28.36c3.35 13.23 14.71 17.42 22.28 5.84 3-4.55 4.38-17.76 2.77-25.11a6.45 6.45 0 0 0 3.2-4.26 7.15 7.15 0 0 0 4.61 1.35l5.22 16.6 23.65-29.64a18.7 18.7 0 0 0 10.19 5.85 2.1 2.1 0 0 1 1.18 3.38c-8.28 10.23-35.11 46-38.71 85.09-4 43.2 8 94.43 8 94.43" fill="#f6f6f6"/>
    <path d="M42.87 311.599c-4.89 11.57-8.73 24.35-10 37.51-4 43.2 8 94.43 8 94.43" stroke="#3a728c" stroke-linecap="round" stroke-linejoin="round" stroke-width="2"/>
    <path d="M-29.71 442.909s15.91-56.76 10.91-97.55c-5.4-44.13-39.59-86-39.59-86l7.16-3.18 17.77 14.23-12.05-43 12.36-1.73 16.58 43.74 5-10.95 8.77 4.32c-.09 0-.12 11.42-.14 12.22-.11 7.28.43 15.85 4.72 22a11.64 11.64 0 0 0 8.89 5.07 11.48 11.48 0 0 0 9.76-4.76c4.77-6.42 2.55-14.69 1.45-22.29-.15-1.05-.33-2.09-.56-3.12 1.35-.9 5.18-3.37 5.47-5.4a7.15 7.15 0 0 0 4.61 1.35l5.22 16.6 23.65-29.64a18.7 18.7 0 0 0 10.19 5.85 2.103 2.103 0 0 1 1.17 3.36 212.6 212.6 0 0 0-24.93 39.16" fill="#f6f6f6"/>
    <path d="M-29.71 442.909s15.91-56.76 10.91-97.55c-5.4-44.13-39.59-86-39.59-86l7.16-3.18 17.77 14.23-12.05-43 12.36-1.73 16.58 43.74 5-10.95 8.77 4.32c-.09 0-.12 11.42-.14 12.22-.11 7.28.43 15.85 4.72 22a11.64 11.64 0 0 0 8.89 5.07 11.48 11.48 0 0 0 9.76-4.76c4.77-6.42 2.55-14.69 1.45-22.29-.15-1.05-.33-2.09-.56-3.12 1.35-.9 5.18-3.37 5.47-5.4a7.15 7.15 0 0 0 4.61 1.35l5.22 16.6 23.65-29.64a18.7 18.7 0 0 0 10.19 5.85 2.103 2.103 0 0 1 1.17 3.36 212.6 212.6 0 0 0-24.93 39.16" stroke="#3a728c" stroke-linecap="round" stroke-linejoin="round" stroke-width="2"/>
    <path d="M49.71 242.269c0-.21.05-.43.08-.66z" fill="#fff"/>
    <path d="M49.71 242.269c0-.21.05-.43.08-.66" stroke="#3a728c" stroke-linecap="round" stroke-linejoin="round" stroke-width="2"/>
    <path d="M83.35 267.149c-12.29 5-17.15-6.52-17.15-6.52s-15.7-1.19-16.54-15" fill="#fff"/>
    <path d="M83.35 267.149c-12.29 5-17.15-6.52-17.15-6.52s-15.7-1.19-16.54-15" stroke="#3a728c" stroke-linecap="round" stroke-linejoin="round" stroke-width="2"/>
    <path d="M40.52 260.169c-1.87 10.19-11.25 8.46-14.1 5.93-.89 4.05-6.34 8.63-12.65 7.33" fill="#fff"/>
    <path d="M40.52 260.169c-1.87 10.19-11.25 8.46-14.1 5.93-.89 4.05-6.34 8.63-12.65 7.33" stroke="#3a728c" stroke-linecap="round" stroke-linejoin="round" stroke-width="2"/>
    <path d="M7.12 226.199a19 19 0 0 0 0 2.23z" fill="#fff"/>
    <path d="M7.12 226.199a19 19 0 0 0 0 2.23" stroke="#3a728c" stroke-linecap="round" stroke-linejoin="round" stroke-width="2"/>
    <path d="M64.09 187.819c-9.67 1.51-21.79 9.34-27.83 17.31-19.72-2.22-26.15 8-28.23 15.65" stroke="#3a728c" stroke-linecap="round" stroke-linejoin="round" stroke-width="2"/>
    <path d="M-13.06 255.659s4.63 10.09 16.1 4.92z" fill="#fff"/>
    <path d="M-13.06 255.659s4.63 10.09 16.1 4.92" stroke="#3a728c" stroke-linecap="round" stroke-linejoin="round" stroke-width="2"/>
    <path d="M73.2 187.469c-1.68-.08-3.37-.09-5.06 0 1.52-1.79 1.22-20.63-15.36-26.34-11.79-23.94-35.37-35.82-73.06-19.47-48-26.48-99.85 13.21-100.71 58.48.16-.59 19.45-73.16 101.8-45.53 22.75-11.53 51.24-6 62.82 13.72 6.44 1.28 10.18 7.93 12.32 14.39-22.6 11.79-17.67 20-19.71 22.43 16.41-20.67 36.96-17.68 36.96-17.68" fill="#3a728c" opacity=".04"/>
    <path d="M36.26 205.129c-11.9-.83-19 3-19 3s-11.71 9.18-9.19 22.62c.51 2.72 9.19-20.23 33.62-14.32 32.43-30.56 69.91 3.8 61.79 36.28 10.62 27.69-13.07 40.65-26.52 40.65-10.29 9.61-29.76 7.4-29.76 7.4l-3.42 8.84-.87 3.92 9.73 3.22c9.59 1.38 21.42 0 28.84-12 33.15 1.21 49-32.39 35.49-55.11 10.79-25.75-2.84-47.51-23.26-57.06-9.42-3.05-18.29-5.05-25.51-5.13-9.16-.09-19.86 2.28-31.94 17.69" fill="#3a728c" opacity=".04"/>
    <path d="m42.87 311.599 3.83-8.41a212.6 212.6 0 0 1 24.93-39.16 2.103 2.103 0 0 0-.228-2.898 2.1 2.1 0 0 0-.942-.482 18.7 18.7 0 0 1-10.19-5.85l-6.25 7.84c2.19 1.08 5.7 2.69 7.29 2.69l1.2 3.09s-29.94 29.4-35.17 84.77c-3.61 38.27 4.86 64.93 11.25 78.92-3.26-17.54-8.5-52.29-5.67-83 1.22-13.16 5.06-25.94 9.95-37.51" fill="#3a728c" opacity=".04"/>
    <path d="M43.18 276.199v101.44" stroke="#3a728c" stroke-linecap="round" stroke-linejoin="round" stroke-width="2"/>
    <path d="M65.49 272.079v105.56" stroke="#3a728c" stroke-linecap="round" stroke-linejoin="round" stroke-width="2"/>
    <path d="M46.82 385.439H30.67a5.72 5.72 0 0 1-5.296-3.536 5.7 5.7 0 0 1-.434-2.194 5.73 5.73 0 0 1 5.73-5.68H83.2a5.74 5.74 0 0 1 5.73 5.73 5.727 5.727 0 0 1-5.73 5.68H68.27" fill="#e5e5e5"/>
    <path d="M46.82 385.439H30.67a5.72 5.72 0 0 1-5.296-3.536 5.7 5.7 0 0 1-.434-2.194 5.73 5.73 0 0 1 5.73-5.68H83.2a5.74 5.74 0 0 1 5.73 5.73 5.727 5.727 0 0 1-5.73 5.68H68.27" stroke="#3a728c" stroke-linecap="round" stroke-linejoin="round" stroke-width="2"/>
    <path d="M50.26 385.439H27.94a5.7 5.7 0 0 1-2.195-.433 5.74 5.74 0 0 1-3.107-3.102 5.7 5.7 0 0 1-.438-2.195 5.74 5.74 0 0 1 5.74-5.68h42.48a5.72 5.72 0 0 1 4.067 1.643 5.72 5.72 0 0 1 1.713 4.037 5.715 5.715 0 0 1-3.535 5.296 5.7 5.7 0 0 1-2.195.434H55.54" fill="#fff"/>
    <path d="M50.26 385.439H27.94a5.7 5.7 0 0 1-2.195-.433 5.74 5.74 0 0 1-3.107-3.102 5.7 5.7 0 0 1-.438-2.195 5.74 5.74 0 0 1 5.74-5.68h42.48a5.72 5.72 0 0 1 4.067 1.643 5.72 5.72 0 0 1 1.713 4.037 5.715 5.715 0 0 1-3.535 5.296 5.7 5.7 0 0 1-2.195.434H55.54" stroke="#3a728c" stroke-linecap="round" stroke-linejoin="round" stroke-width="2"/>
  </g>
</svg>