<?xml version="1.0" encoding="utf-8"?>
<svg xmlns="http://www.w3.org/2000/svg" fill="none" height="472" viewBox="0 0 616 472" width="616">
  <g clip-path="url(#clip0_83_3815)">
    <path d="M-7.43 502.039v-87.24h630.071v87.24" fill="#f6f6f6"/>
    <path d="M181.021 414.869H22.361v-158.54l32.84-36.69 125.8 3.25a2.52 2.52 0 0 1 2.4 2.63v175.19c.02 1.45-1.05 14.16-2.38 14.16" fill="#f6f6f6"/>
    <path d="m54.44 415.069-32.08-.2V255.946l32.86-36.307z" fill="#fbfbfb"/>
    <path d="m35.86 285.679-7.4 6.48v-23.91l6.58-7.96z" fill="#f6f6f6"/>
    <path d="m49.95 271.979-7.59 7.13v-26.45l7.41-7.73z" fill="#f6f6f6"/>
    <path d="m36.17 343.139-7.71 5.42v-25.01l7.71-4.74z" fill="#f6f6f6"/>
    <path d="m50.06 333.359-7.7 5.42v-25.46l7.7-6.78z" fill="#f6f6f6"/>
    <path d="m36.17 388.759-7.71 6.44v-26.03l7.71-4.74z" fill="#f6f6f6"/>
    <path d="m50.06 382.179-7.7 6.86v-28.9l7.7-4.78z" fill="#f6f6f6"/>
    <path d="M94.63 301.619H70.3v27.3h24.33z" fill="#fff"/>
    <path d="M94.63 352.489H70.3v27.3h24.33z" fill="#fff"/>
    <path d="M156.651 301.619h-24.33v27.3h24.33z" fill="#fff"/>
    <path d="M94.63 238.649H70.3v27.3h24.33z" fill="#fff"/>
    <path d="M148.291 238.649h-24.33v27.3h24.33z" fill="#fff"/>
    <path d="M156.651 254.219h-24.33v27.3h24.33z" fill="#fff"/>
    <path d="M157.041 352.489h-24.33v27.3h24.33z" fill="#fff"/>
    <path d="M181.021 414.869H22.361v-158.54l32.84-36.69 125.8 3.25a2.52 2.52 0 0 1 2.4 2.63v175.19c.02 1.45-1.05 14.16-2.38 14.16" stroke="#ebebeb" stroke-linecap="round" stroke-linejoin="round" stroke-width="2"/>
    <path d="M55.22 226.889v159.06" stroke="#ebebeb" stroke-linecap="round" stroke-linejoin="round" stroke-width="2"/>
    <path d="M10.03 412.159c1.9-12.94 14.74-18.82 25.66-13.38 1.77-23 31.9-26.43 40.15-8.9 4.47-1.59 8.14-.89 10.69.93a21.6 21.6 0 0 1 8.585-4.034 21.6 21.6 0 0 1 9.486.034c7.81 1.64 12.43 8.23 15.13 14.74 17.92.48 18.78 13.48 18.78 13.48H9.871" fill="#f8f8f8"/>
    <path d="M119.731 401.549c-2.7-6.51-7.32-13.1-15.13-14.74a21.6 21.6 0 0 0-9.486-.034 21.6 21.6 0 0 0-8.584 4.034c-2.55-1.82-6.22-2.52-10.69-.93-8.25-17.53-38.38-14.14-40.15 8.9-10.93-5.44-23.76.44-25.66 13.38l-.16 2.87h7.82c2.64-10.28 13.25-11.77 17.61-11.32a3.166 3.166 0 0 0 3.27-2.16c1.37-3.64 5.44-12.49 15.17-15s17.25 3.95 20.58 7.37c1.29.54 1.21-.79 4.7-1.52h.18a8.41 8.41 0 0 1 7.29 2.54 1.07 1.07 0 0 0 1.06.28c15.45-4.61 24.84 3.06 29.05 10.54a1.06 1.06 0 0 0 .92.53c8.86 0 14.05 6.24 15.75 8.73h5.25s-.87-12.99-18.79-13.47" fill="#d6d6d6" opacity=".2"/>
    <path d="M10.03 412.159c1.9-12.94 14.74-18.82 25.66-13.38 1.77-23 31.9-26.43 40.15-8.9 4.47-1.59 8.14-.89 10.69.93a21.6 21.6 0 0 1 8.585-4.034 21.6 21.6 0 0 1 9.486.034c7.81 1.64 12.43 8.23 15.13 14.74 17.92.48 18.78 13.48 18.78 13.48H9.871" stroke="#ebebeb" stroke-linecap="round" stroke-linejoin="round" stroke-width="2"/>
    <path d="M301.951 52.459v4.18" stroke="#e5e5e5" stroke-linecap="round" stroke-linejoin="round" stroke-width="2"/>
    <path d="m392.871 102.749-116.06 30.51v-92.25l41.29-39.96h74.77z" fill="#fbfbfb" stroke="#ebebeb" stroke-linecap="round" stroke-linejoin="round" stroke-width="2"/>
    <path d="M318.101 61.939V1.049h107.55v76.82h-107.55" fill="#f6f6f6"/>
    <path d="M318.101 61.939V1.049h107.55v76.82h-107.55" stroke="#ebebeb" stroke-linecap="round" stroke-linejoin="round" stroke-width="2"/>
    <path d="M426.411 77.869v341.82h-185.81v-309.25l36.18-32.57z" fill="#fbfbfb" stroke="#ebebeb" stroke-linecap="round" stroke-linejoin="round" stroke-width="2"/>
    <path d="M289.191 406.479h167.89V77.869h-180.3v106.28" fill="#f6f6f6"/>
    <path d="M289.191 406.479h167.89V77.869h-180.3v106.28" stroke="#ebebeb" stroke-linecap="round" stroke-linejoin="round" stroke-width="2"/>
    <path d="M357.881 105.239h-36.83v46.29h36.83z" fill="#fff"/>
    <path d="M430.161 105.239h-36.83v46.29h36.83z" fill="#f6f6f6"/>
    <path d="M392.34 20.609h-31.87v40.79h31.87z" fill="#fff"/>
    <path d="m268.09 129.979-17.84 8.99v-25.23l17.84-15.6v27.95" fill="#f6f6f6"/>
    <path d="m306.55 60.889-17.84 14.68v-30.92l17.84-15.6v27.95" fill="#f6f6f6"/>
    <path d="m268.09 213.949-17.84 12.98v-31.12l17.84-13.69v27.94" fill="#fff"/>
    <path d="m245.651 323.809-19.57 7.14v-43.11l19.57-9.28z" fill="#f8f8f8" stroke="#e5e5e5" stroke-linecap="round" stroke-linejoin="round" stroke-width="2"/>
    <path d="M275.941 286.149h-19.57v46.29h19.57z" fill="#fff" stroke="#e5e5e5" stroke-linecap="round" stroke-linejoin="round" stroke-width="2"/>
    <path d="m245.651 395.279-19.57 3.39v-35.64l19.57-5.41z" fill="#f8f8f8" stroke="#e5e5e5" stroke-linecap="round" stroke-linejoin="round" stroke-width="2"/>
    <path d="M275.941 373.989h-19.57v46.29h19.57z" fill="#fff" stroke="#e5e5e5" stroke-linecap="round" stroke-linejoin="round" stroke-width="2"/>
    <path d="M368.891 284.499v-104.61h31.87v129.4h-31.87" fill="#f6f6f6"/>
    <path d="M368.891 284.499v-104.61h31.87v129.4h-31.87" stroke="#e5e5e5" stroke-linecap="round" stroke-linejoin="round" stroke-width="2"/>
    <path d="M407.271 335.889h-36.7v46.29h36.7z" fill="#ebebeb" stroke="#e5e5e5" stroke-linecap="round" stroke-linejoin="round" stroke-width="2"/>
    <path d="M103.881 415.069H1.061" stroke="#ebebeb" stroke-linecap="round" stroke-linejoin="round" stroke-width="2"/>
    <path d="M124.081 354.819c-10.07 1.1-40.22-.17-36.86-28.93-20.45-14.67-14.13-54.74 18-57.47-2.83-18.77 22.44-36.22 41.56-21.61 13-12.13 45.82-.53 37.81 26.68 26 3.19 27.1 40.4 3.21 50 9.16 15.66 3.64 32.91-38.61 29.35" fill="#fff"/>
    <path d="M146.75 246.809c-19.12-14.61-44.39 2.84-41.56 21.61-32.1 2.73-38.42 42.8-18 57.47-3 25.43 20.24 29.36 32.63 29.17-13.62-3.92-24.62-18.94-21.5-30.57-19-12.81-7.06-46.6 11.06-50.71 3.81-16.59 19.3-27.11 38.08-17.45a24.2 24.2 0 0 1 .65-10.65q-.713.525-1.36 1.13" fill="#d6d6d6" opacity=".2"/>
    <path d="M124.081 354.819c-10.07 1.1-40.22-.17-36.86-28.93-20.45-14.67-14.13-54.74 18-57.47-2.83-18.77 22.44-36.22 41.56-21.61 13-12.13 45.82-.53 37.81 26.68 26 3.19 27.1 40.4 3.21 50 9.16 15.66 3.64 32.91-38.61 29.35" stroke="#ebebeb" stroke-linecap="round" stroke-linejoin="round" stroke-width="2"/>
    <path d="M161.031 426.629c-11.5-13.37-7.85-43.32-7.94-70.75a63.6 63.6 0 0 1 6.49-28.3l4.24-8.62-1 .11a14.6 14.6 0 0 1-7.7-1.31l-.63.73-2.78-22.74c-3.91-5.5-13.86.27-20.49-6 .73 1-.64 37.38-.64 37.38 0 2.18-2.76-.38-4.13-2l-10.86-13.2-1.74 3.92-5.7 1.62 15.28 24.7a38.7 38.7 0 0 1 5.4 17.37c1 15.89.64 51.77-8.4 69.17" fill="#f6f6f6"/>
    <path d="m135.551 295.229-1.27 36.43a3.282 3.282 0 0 1-4.68 2.93 3.35 3.35 0 0 1-1.1-.88l-14.65-17.86s2.61-18.14 3-18.18 18.23-10.94 19.12-10.2-.42 7.76-.42 7.76" fill="#fff"/>
    <path d="M161.031 426.629c-15-19.46-9.1-87.15-1.45-99.05l5-9.12a6.81 6.81 0 0 1-9.36-.89" stroke="#ebebeb" stroke-linecap="round" stroke-linejoin="round" stroke-width="2"/>
    <path d="m131.2 289.709-.67 38.89a13.2 13.2 0 0 1-4.1-3.55l-10.84-13.12s-.68 3-1.74 3.92c-1.55 1.41-5.65 2.18-5.65 2.18l4.06 5.45 11.21 18.7a38.7 38.7 0 0 1 5.4 17.37c1 15.89 1.46 55.74-8.4 69.17" stroke="#ebebeb" stroke-linecap="round" stroke-linejoin="round" stroke-width="2"/>
    <path d="m153.5 318.809-1.56-23.1" stroke="#ebebeb" stroke-linecap="round" stroke-linejoin="round" stroke-width="2"/>
    <path d="M100.921 319.479c7.49 1.29 16-2.18 16.92-11z" fill="#fff"/>
    <path d="M100.921 319.479c7.49 1.29 16-2.18 16.92-11" stroke="#ebebeb" stroke-linecap="round" stroke-linejoin="round" stroke-width="2"/>
    <path d="m96.09 318.359.75.2z" fill="#fff"/>
    <path d="m96.09 318.359.75.2" stroke="#ebebeb" stroke-linecap="round" stroke-linejoin="round" stroke-width="2"/>
    <path d="M120.771 285.679s5.87 12.71 17.38 6.88c0 0 4.45 7.6 13.79 3.15" fill="#fff"/>
    <path d="M120.771 285.679s5.87 12.71 17.38 6.88c0 0 4.45 7.6 13.79 3.15" stroke="#ebebeb" stroke-linecap="round" stroke-linejoin="round" stroke-width="2"/>
    <path d="M388.091 243.379v183.06h-188.55v-297.21a1.76 1.76 0 0 1 1.82-1.68h184.92a1.75 1.75 0 0 1 1.81 1.68v105.2" fill="#fff"/>
    <path d="M388.091 243.379v183.06h-188.55v-297.21a1.76 1.76 0 0 1 1.82-1.68h184.92a1.75 1.75 0 0 1 1.81 1.68v105.2" stroke="#d6d6d6" stroke-linecap="round" stroke-linejoin="round" stroke-width="2"/>
    <path d="M272.59 153.819h-43.86a1 1 0 0 0-1 1v42.5a1 1 0 0 0 1 1h43.86a1 1 0 0 0 1-1v-42.5a1 1 0 0 0-1-1" fill="#f8f8f8" stroke="#d6d6d6" stroke-linecap="round" stroke-linejoin="round" stroke-width="2"/>
    <path d="M357.431 153.819h-45.86v44.5h45.86z" fill="#f6f6f6" stroke="#d6d6d6" stroke-linecap="round" stroke-linejoin="round" stroke-width="2"/>
    <path d="M357.431 240.499h-45.86v44.5h45.86z" fill="#f6f6f6" stroke="#d6d6d6" stroke-linecap="round" stroke-linejoin="round" stroke-width="2"/>
    <path d="M272.59 326.519h-43.86a1 1 0 0 0-1 1v42.5a1 1 0 0 0 1 1h43.86a1 1 0 0 0 1-1v-42.5a1 1 0 0 0-1-1" fill="#f6f6f6" stroke="#d6d6d6" stroke-linecap="round" stroke-linejoin="round" stroke-width="2"/>
    <path d="M357.431 326.519h-45.86v44.5h45.86z" fill="#f6f6f6" stroke="#d6d6d6" stroke-linecap="round" stroke-linejoin="round" stroke-width="2"/>
    <path d="m144.671 183.809 56.87-56.26v298.89h-55.65z" fill="#f8f8f8" stroke="#d6d6d6" stroke-linecap="round" stroke-linejoin="round" stroke-width="2"/>
    <path d="m201.22 130.839-56.75 52.97-3.47-10.85 58.41-57.08z" fill="#f6f6f6" stroke="#d6d6d6" stroke-linecap="round" stroke-linejoin="round" stroke-width="2"/>
    <path d="M381.961 130.279h-180.74l-1.81-14.39h182.55z" fill="#f6f6f6" stroke="#d6d6d6" stroke-linecap="round" stroke-linejoin="round" stroke-width="2"/>
    <path d="m188.201 205.949-26.84 9.94v-28a1 1 0 0 1 .43-.82l24.84-22.81a1 1 0 0 1 .495-.176.995.995 0 0 1 1.075.946z" fill="#f6f6f6"/>
    <path d="m188.201 205.949-26.84 9.94v-28a1 1 0 0 1 .43-.82l24.84-22.81a1 1 0 0 1 .495-.176.995.995 0 0 1 1.075.946z" stroke="#d6d6d6" stroke-linecap="round" stroke-linejoin="round" stroke-width="2"/>
    <path d="m187.37 318.949-33.88 17v-49.9l33.88-21.12z" fill="#f8f8f8"/>
    <path d="m187.37 318.949-33.88 17v-49.9l33.88-21.12z" stroke="#d6d6d6" stroke-linecap="round" stroke-linejoin="round" stroke-width="2"/>
    <path d="m177.901 233.159-9.08 9.47-26.96 16.85v-39.51l36.04-22.6z" fill="#f6f6f6"/>
    <path d="m177.901 233.159-9.08 9.47-26.96 16.85v-39.51l36.04-22.6z" stroke="#d6d6d6" stroke-linecap="round" stroke-linejoin="round" stroke-width="2"/>
    <path d="m165.931 241.899 11.97-8.74h15.59l-37.48 26.32h-14.15l20.6-15.04" fill="#ebebeb"/>
    <path d="m165.931 241.899 11.97-8.74h15.59l-37.48 26.32h-14.15l20.6-15.04" stroke="#d6d6d6" stroke-linecap="round" stroke-linejoin="round" stroke-width="2"/>
    <path d="M21.57 427.439h132.391" stroke="#e5e5e5" stroke-linecap="round" stroke-linejoin="round" stroke-width="2"/>
    <path d="M193.491 197.369h-15.41v35.79h15.41z" fill="#fff" stroke="#d6d6d6" stroke-linecap="round" stroke-linejoin="round" stroke-width="2"/>
    <path d="M133.661 212.639c-4.85-11.61 5.54-18.61 12.72-15.93-.34-6.52 7.22-10.48 13.41-7.15 1.54-5.07 9.83-6.64 11.23.65" fill="#f6f6f6"/>
    <path d="M133.661 212.639c-4.85-11.61 5.54-18.61 12.72-15.93-.34-6.52 7.22-10.48 13.41-7.15 1.54-5.07 9.83-6.64 11.23.65" stroke="#d6d6d6" stroke-linecap="round" stroke-linejoin="round" stroke-width="2"/>
    <path d="m166.331 211.419-19.57 13.61c-2.58 1.57-11.65 1.19-13.1-5.18l7.21-5.74 26-23.33a3 3 0 0 1 2.37-.75l3.19.38a3 3 0 0 1 2.67 3v2.43a18.24 18.24 0 0 1-8.77 15.58" fill="#ebebeb" stroke="#d6d6d6" stroke-linecap="round" stroke-linejoin="round" stroke-width="2"/>
    <path d="M167.901 194.959c0 6.38-3.33 10.29-8.78 13.6l-19.57 14a3.9 3.9 0 0 1-1.95.561 3.89 3.89 0 0 1-3.411-1.923 3.87 3.87 0 0 1-.529-1.958v-4l33.07-24.59a3.8 3.8 0 0 1 2.56-.61l1.73.21" fill="#f8f8f8"/>
    <path d="M167.901 194.959c0 6.38-3.33 10.29-8.78 13.6l-19.57 14a3.9 3.9 0 0 1-1.95.561 3.89 3.89 0 0 1-3.411-1.923 3.87 3.87 0 0 1-.529-1.958v-4l33.07-24.59a3.8 3.8 0 0 1 2.56-.61l1.73.21" stroke="#d6d6d6" stroke-linecap="round" stroke-linejoin="round" stroke-width="2"/>
    <path d="M148.361 199.699c1.69-5.35 9.63-8.58 12.5-7.51a16.8 16.8 0 0 1 8.86-1.2l1.3-.78c-1.4-7.29-9.69-5.72-11.23-.65-6.19-3.33-13.75.63-13.41 7.15-7.18-2.68-17.57 4.32-12.72 15.93.62-10.3 5.3-13.55 14.7-12.94" fill="#d6d6d6" opacity=".2"/>
    <path d="m167.771 217.029-25.83 15.69c-2.59 1.56 1.37-1.33-.08-7.71l4.9-1 22.83-15.11 7-10.57v3.15a18.25 18.25 0 0 1-8.82 15.55" fill="#d6d6d6" opacity=".2"/>
    <path d="M250.381 204.039v235.25h256.68l-40.01-296.81-138.97 14.2-64.02 31.96" fill="#e5e5e5"/>
    <path d="M250.381 204.039v235.25h256.68l-40.01-296.81-138.97 14.2-64.02 31.96" stroke="#3a728c" stroke-linecap="round" stroke-linejoin="round" stroke-width="2"/>
    <path d="m327.391 438.479.69-282.24 135-121.6 143.36 121.6v281.69" fill="#f6f6f6"/>
    <path d="m328.081 156.239 135-121.6 143.36 121.6v282.23" fill="#f6f6f6"/>
    <path d="m328.081 156.239 135-121.6 143.36 121.6v282.23" stroke="#3a728c" stroke-linecap="round" stroke-linejoin="round" stroke-width="2"/>
    <path d="m327.72 309.679.33-144.21" stroke="#3a728c" stroke-linecap="round" stroke-linejoin="round" stroke-width="2"/>
    <path d="m327.401 374.559.32-55.23" stroke="#3a728c" stroke-linecap="round" stroke-linejoin="round" stroke-width="2"/>
    <path d="M457.421 95.759v12.5h30.36v-7.77" stroke="#ebebeb" stroke-linecap="round" stroke-linejoin="round" stroke-width="2"/>
    <path d="M427.061 92.719v15.54h45.54v13.34" stroke="#ebebeb" stroke-linecap="round" stroke-linejoin="round" stroke-width="2"/>
    <path d="M443.421 121.599v-13.34" stroke="#ebebeb" stroke-linecap="round" stroke-linejoin="round" stroke-width="2"/>
    <path d="M499.821 121.599v-13.34" stroke="#ebebeb" stroke-linecap="round" stroke-linejoin="round" stroke-width="2"/>
    <path d="M463.71 121.599h24.07v14.3H472.6" stroke="#ebebeb" stroke-linecap="round" stroke-linejoin="round" stroke-width="2"/>
    <path d="M523.971 121.599h-36.19v14.3h26.14" stroke="#ebebeb" stroke-linecap="round" stroke-linejoin="round" stroke-width="2"/>
    <path d="M539.88 121.599h-8.71" stroke="#ebebeb" stroke-linecap="round" stroke-linejoin="round" stroke-width="2"/>
    <path d="M451.41 121.599h-17.44" stroke="#ebebeb" stroke-linecap="round" stroke-linejoin="round" stroke-width="2"/>
    <path d="M466.921 94.399h20.86v13.86h4.57" stroke="#ebebeb" stroke-linecap="round" stroke-linejoin="round" stroke-width="2"/>
    <path d="M428.541 121.599h-13.21" stroke="#ebebeb" stroke-linecap="round" stroke-linejoin="round" stroke-width="2"/>
    <path d="M518.861 128.749v-7.15" stroke="#ebebeb" stroke-linecap="round" stroke-linejoin="round" stroke-width="2"/>
    <path d="M369.541 123.999v12.5h30.36v-7.77" stroke="#ebebeb" stroke-linecap="round" stroke-linejoin="round" stroke-width="2"/>
    <path d="M356.69 136.499h28.03v13.34" stroke="#ebebeb" stroke-linecap="round" stroke-linejoin="round" stroke-width="2"/>
    <path d="M356.69 149.839v-13.34" stroke="#ebebeb" stroke-linecap="round" stroke-linejoin="round" stroke-width="2"/>
    <path d="M411.94 149.839v-13.34" stroke="#ebebeb" stroke-linecap="round" stroke-linejoin="round" stroke-width="2"/>
    <path d="M375.831 149.839h24.07" stroke="#ebebeb" stroke-linecap="round" stroke-linejoin="round" stroke-width="2"/>
    <path d="M423.971 149.839h-24.07" stroke="#ebebeb" stroke-linecap="round" stroke-linejoin="round" stroke-width="2"/>
    <path d="M363.531 149.839h-17.45" stroke="#ebebeb" stroke-linecap="round" stroke-linejoin="round" stroke-width="2"/>
    <path d="M379.031 122.639h20.87v13.86h15.43" stroke="#ebebeb" stroke-linecap="round" stroke-linejoin="round" stroke-width="2"/>
    <path d="M459.48 68.199v12.5h30.37v-7.77" stroke="#ebebeb" stroke-linecap="round" stroke-linejoin="round" stroke-width="2"/>
    <path d="M429.121 76.659v4.04h45.55v13.33" stroke="#ebebeb" stroke-linecap="round" stroke-linejoin="round" stroke-width="2"/>
    <path d="M446.641 94.029v-13.33" stroke="#ebebeb" stroke-linecap="round" stroke-linejoin="round" stroke-width="2"/>
    <path d="M501.881 94.029v-13.33" stroke="#ebebeb" stroke-linecap="round" stroke-linejoin="round" stroke-width="2"/>
    <path d="M513.921 94.399h-26.14v13.93h17.25" stroke="#ebebeb" stroke-linecap="round" stroke-linejoin="round" stroke-width="2"/>
    <path d="M453.481 94.029h-17.45" stroke="#ebebeb" stroke-linecap="round" stroke-linejoin="round" stroke-width="2"/>
    <path d="M468.98 66.829h20.87v13.87h4.56" stroke="#ebebeb" stroke-linecap="round" stroke-linejoin="round" stroke-width="2"/>
    <path d="M472.561 195.549v12.5h28.06" stroke="#ebebeb" stroke-linecap="round" stroke-linejoin="round" stroke-width="2"/>
    <path d="M442.201 193.659v14.39h45.54v13.33" stroke="#ebebeb" stroke-linecap="round" stroke-linejoin="round" stroke-width="2"/>
    <path d="M459.71 221.379v-13.33" stroke="#ebebeb" stroke-linecap="round" stroke-linejoin="round" stroke-width="2"/>
    <path d="M478.861 221.379h21.76" stroke="#ebebeb" stroke-linecap="round" stroke-linejoin="round" stroke-width="2"/>
    <path d="M466.551 221.379h-17.44" stroke="#ebebeb" stroke-linecap="round" stroke-linejoin="round" stroke-width="2"/>
    <path d="M482.061 194.179h18.56" stroke="#ebebeb" stroke-linecap="round" stroke-linejoin="round" stroke-width="2"/>
    <path d="M441.931 149.489h30.37v-7.77" stroke="#ebebeb" stroke-linecap="round" stroke-linejoin="round" stroke-width="2"/>
    <path d="M443.081 136.979v7.63" stroke="#ebebeb" stroke-linecap="round" stroke-linejoin="round" stroke-width="2"/>
    <path d="M429.091 149.489h28.03v6.66" stroke="#ebebeb" stroke-linecap="round" stroke-linejoin="round" stroke-width="2"/>
    <path d="M456.871 192.749v-15.63" stroke="#ebebeb" stroke-linecap="round" stroke-linejoin="round" stroke-width="2"/>
    <path d="M487.781 162.819v-13.33h27.46" stroke="#ebebeb" stroke-linecap="round" stroke-linejoin="round" stroke-width="2"/>
    <path d="M463.701 162.819h8.6v14.3h-23.24" stroke="#ebebeb" stroke-linecap="round" stroke-linejoin="round" stroke-width="2"/>
    <path d="M435.521 162.819H459.6" stroke="#ebebeb" stroke-linecap="round" stroke-linejoin="round" stroke-width="2"/>
    <path d="M496.371 162.819h-24.07v14.3h15.18" stroke="#ebebeb" stroke-linecap="round" stroke-linejoin="round" stroke-width="2"/>
    <path d="M463.72 192.749h-28.96" stroke="#ebebeb" stroke-linecap="round" stroke-linejoin="round" stroke-width="2"/>
    <path d="M472.301 135.619v13.87h4.56" stroke="#ebebeb" stroke-linecap="round" stroke-linejoin="round" stroke-width="2"/>
    <path d="M460.261 135.619h-34.58v-5.37" stroke="#ebebeb" stroke-linecap="round" stroke-linejoin="round" stroke-width="2"/>
    <path d="M365.24 235.039v12.5h30.36v-7.76" stroke="#ebebeb" stroke-linecap="round" stroke-linejoin="round" stroke-width="2"/>
    <path d="M334.871 231.999v15.54h45.55v14.49" stroke="#ebebeb" stroke-linecap="round" stroke-linejoin="round" stroke-width="2"/>
    <path d="M411.091 260.879v-13.34h15.95" stroke="#ebebeb" stroke-linecap="round" stroke-linejoin="round" stroke-width="2"/>
    <path d="M472.601 222.009v12.3h23.77v-4.24" stroke="#ebebeb" stroke-linecap="round" stroke-linejoin="round" stroke-width="2"/>
    <path d="M459.711 234.309h-17.51v-6.15" stroke="#ebebeb" stroke-linecap="round" stroke-linejoin="round" stroke-width="2"/>
    <path d="M524.971 148.329h18.19v-13.41" stroke="#ebebeb" stroke-linecap="round" stroke-linejoin="round" stroke-width="2"/>
    <path d="M537.771 134.469h8.57" stroke="#ebebeb" stroke-linecap="round" stroke-linejoin="round" stroke-width="2"/>
    <path d="M351.051 231.499v-11.48h-20.73" stroke="#ebebeb" stroke-linecap="round" stroke-linejoin="round" stroke-width="2"/>
    <path d="M356.301 220.019h-5.25" stroke="#ebebeb" stroke-linecap="round" stroke-linejoin="round" stroke-width="2"/>
    <path d="M334.871 216.349v-12.82h24.59" stroke="#ebebeb" stroke-linecap="round" stroke-linejoin="round" stroke-width="2"/>
    <path d="M352.151 197.989v-9.09h-17.28" stroke="#ebebeb" stroke-linecap="round" stroke-linejoin="round" stroke-width="2"/>
    <path d="M352.151 188.899h1.9" stroke="#ebebeb" stroke-linecap="round" stroke-linejoin="round" stroke-width="2"/>
    <path d="M334.871 184.559v-12.27h-4.55" stroke="#ebebeb" stroke-linecap="round" stroke-linejoin="round" stroke-width="2"/>
    <path d="M339.921 172.289h16.77" stroke="#ebebeb" stroke-linecap="round" stroke-linejoin="round" stroke-width="2"/>
    <path d="M444.571 175.969h-4.15" stroke="#ebebeb" stroke-linecap="round" stroke-linejoin="round" stroke-width="2"/>
    <path d="M583.371 222.739v-12.24h18.72v-12.53h-18.06v-13.22h-10.2" stroke="#ebebeb" stroke-linecap="round" stroke-linejoin="round" stroke-width="2"/>
    <path d="M577.69 197.699h6.34" stroke="#ebebeb" stroke-linecap="round" stroke-linejoin="round" stroke-width="2"/>
    <path d="M589.84 184.749h12.25v-13.47h-24.4" stroke="#ebebeb" stroke-linecap="round" stroke-linejoin="round" stroke-width="2"/>
    <path d="M357.651 262.029h-5.401" stroke="#ebebeb" stroke-linecap="round" stroke-linejoin="round" stroke-width="2"/>
    <path d="M569.231 392.939v6.8h-5.69" stroke="#ebebeb" stroke-linecap="round" stroke-linejoin="round" stroke-width="2"/>
    <path d="M574.9 399.739h-5.67" stroke="#ebebeb" stroke-linecap="round" stroke-linejoin="round" stroke-width="2"/>
    <path d="M583 338.049h13.721v-14.26h-12.32v-11.87h19.32" stroke="#ebebeb" stroke-linecap="round" stroke-linejoin="round" stroke-width="2"/>
    <path d="M601.391 323.789h-4.67" stroke="#ebebeb" stroke-linecap="round" stroke-linejoin="round" stroke-width="2"/>
    <path d="m298.081 274.849-5.581 1.36" stroke="#dfdfdf" stroke-linecap="round" stroke-linejoin="round" stroke-width="2"/>
    <path d="m310.63 292.789-16.109 3.88" stroke="#dfdfdf" stroke-linecap="round" stroke-linejoin="round" stroke-width="2"/>
    <path d="m270.031 398.489 26.26-1.43v13.97h12.97v13.2l-12.75.21" stroke="#dfdfdf" stroke-linecap="round" stroke-linejoin="round" stroke-width="2"/>
    <path d="m297.361 411.029-16.41.35v9.16" stroke="#dfdfdf" stroke-linecap="round" stroke-linejoin="round" stroke-width="2"/>
    <path d="m291.971 424.509-23.43.91" stroke="#dfdfdf" stroke-linecap="round" stroke-linejoin="round" stroke-width="2"/>
    <path d="M295.531 424.439v8.62" stroke="#dfdfdf" stroke-linecap="round" stroke-linejoin="round" stroke-width="2"/>
    <path d="M345.531 233.679h50.07v13.86h4.57" stroke="#ebebeb" stroke-linecap="round" stroke-linejoin="round" stroke-width="2"/>
    <path d="M457.421 135.619v-11.89" stroke="#ebebeb" stroke-linecap="round" stroke-linejoin="round" stroke-width="2"/>
    <path d="M499.821 136.769v7.98" stroke="#ebebeb" stroke-linecap="round" stroke-linejoin="round" stroke-width="2"/>
    <path d="M538.901 257.839v12.51h30.37v-7.77" stroke="#ebebeb" stroke-linecap="round" stroke-linejoin="round" stroke-width="2"/>
    <path d="M508.541 254.809v15.54h45.54v13.33" stroke="#ebebeb" stroke-linecap="round" stroke-linejoin="round" stroke-width="2"/>
    <path d="M524.911 283.679v-13.33" stroke="#ebebeb" stroke-linecap="round" stroke-linejoin="round" stroke-width="2"/>
    <path d="M545.201 283.679h24.07v14.3h-15.19" stroke="#ebebeb" stroke-linecap="round" stroke-linejoin="round" stroke-width="2"/>
    <path d="M582.331 297.979h21.39" stroke="#ebebeb" stroke-linecap="round" stroke-linejoin="round" stroke-width="2"/>
    <path d="M600.341 283.679h-31.07" stroke="#ebebeb" stroke-linecap="round" stroke-linejoin="round" stroke-width="2"/>
    <path d="M532.901 283.679h-17.45" stroke="#ebebeb" stroke-linecap="round" stroke-linejoin="round" stroke-width="2"/>
    <path d="M548.401 256.479h20.87v13.87h4.56" stroke="#ebebeb" stroke-linecap="round" stroke-linejoin="round" stroke-width="2"/>
    <path d="M510.021 283.679h-13.2" stroke="#ebebeb" stroke-linecap="round" stroke-linejoin="round" stroke-width="2"/>
    <path d="M600.341 290.829v-7.15" stroke="#ebebeb" stroke-linecap="round" stroke-linejoin="round" stroke-width="2"/>
    <path d="M451.021 286.079v12.51h30.37v-7.77" stroke="#ebebeb" stroke-linecap="round" stroke-linejoin="round" stroke-width="2"/>
    <path d="M438.171 298.589h28.03v13.33" stroke="#ebebeb" stroke-linecap="round" stroke-linejoin="round" stroke-width="2"/>
    <path d="M438.171 311.919v-13.33" stroke="#ebebeb" stroke-linecap="round" stroke-linejoin="round" stroke-width="2"/>
    <path d="M493.421 311.919v-13.33" stroke="#ebebeb" stroke-linecap="round" stroke-linejoin="round" stroke-width="2"/>
    <path d="M457.321 311.919h24.07" stroke="#ebebeb" stroke-linecap="round" stroke-linejoin="round" stroke-width="2"/>
    <path d="M505.451 311.919h-24.06" stroke="#ebebeb" stroke-linecap="round" stroke-linejoin="round" stroke-width="2"/>
    <path d="M445.021 311.919h-17.45" stroke="#ebebeb" stroke-linecap="round" stroke-linejoin="round" stroke-width="2"/>
    <path d="M460.521 284.719h20.87v13.87h15.429" stroke="#ebebeb" stroke-linecap="round" stroke-linejoin="round" stroke-width="2"/>
    <path d="M540.971 230.279v12.5h30.36v-7.77" stroke="#ebebeb" stroke-linecap="round" stroke-linejoin="round" stroke-width="2"/>
    <path d="M510.601 238.749v4.03h45.55v13.34" stroke="#ebebeb" stroke-linecap="round" stroke-linejoin="round" stroke-width="2"/>
    <path d="M528.121 256.119v-13.34" stroke="#ebebeb" stroke-linecap="round" stroke-linejoin="round" stroke-width="2"/>
    <path d="M583.371 256.119v-13.34" stroke="#ebebeb" stroke-linecap="round" stroke-linejoin="round" stroke-width="2"/>
    <path d="M595.401 256.479h-26.13v13.93h17.239" stroke="#ebebeb" stroke-linecap="round" stroke-linejoin="round" stroke-width="2"/>
    <path d="M534.961 256.119h-17.44" stroke="#ebebeb" stroke-linecap="round" stroke-linejoin="round" stroke-width="2"/>
    <path d="M596.721 228.909h-25.39v13.87h4.57" stroke="#ebebeb" stroke-linecap="round" stroke-linejoin="round" stroke-width="2"/>
    <path d="M554.041 355.329v12.5h28.069" stroke="#ebebeb" stroke-linecap="round" stroke-linejoin="round" stroke-width="2"/>
    <path d="M523.681 353.439v14.39h45.55v13.33" stroke="#ebebeb" stroke-linecap="round" stroke-linejoin="round" stroke-width="2"/>
    <path d="M541.201 381.159v-13.33" stroke="#ebebeb" stroke-linecap="round" stroke-linejoin="round" stroke-width="2"/>
    <path d="M560.341 381.159h33.27" stroke="#ebebeb" stroke-linecap="round" stroke-linejoin="round" stroke-width="2"/>
    <path d="M548.041 381.159h-17.45" stroke="#ebebeb" stroke-linecap="round" stroke-linejoin="round" stroke-width="2"/>
    <path d="M563.541 353.959h17.42v5.49" stroke="#ebebeb" stroke-linecap="round" stroke-linejoin="round" stroke-width="2"/>
    <path d="M523.42 311.569h30.36v-7.77" stroke="#ebebeb" stroke-linecap="round" stroke-linejoin="round" stroke-width="2"/>
    <path d="M524.571 299.069v7.62" stroke="#ebebeb" stroke-linecap="round" stroke-linejoin="round" stroke-width="2"/>
    <path d="M510.571 311.569h28.03v6.66" stroke="#ebebeb" stroke-linecap="round" stroke-linejoin="round" stroke-width="2"/>
    <path d="M538.361 352.539v-13.34" stroke="#ebebeb" stroke-linecap="round" stroke-linejoin="round" stroke-width="2"/>
    <path d="M545.191 324.899h8.59v14.3h-23.23" stroke="#ebebeb" stroke-linecap="round" stroke-linejoin="round" stroke-width="2"/>
    <path d="M517 324.899h24.091" stroke="#ebebeb" stroke-linecap="round" stroke-linejoin="round" stroke-width="2"/>
    <path d="M577.851 324.899h-24.07v14.3h15.18" stroke="#ebebeb" stroke-linecap="round" stroke-linejoin="round" stroke-width="2"/>
    <path d="M545.201 352.539H516.25" stroke="#ebebeb" stroke-linecap="round" stroke-linejoin="round" stroke-width="2"/>
    <path d="M553.781 297.699v13.87h4.57" stroke="#ebebeb" stroke-linecap="round" stroke-linejoin="round" stroke-width="2"/>
    <path d="M541.751 297.699h-34.59v-5.36" stroke="#ebebeb" stroke-linecap="round" stroke-linejoin="round" stroke-width="2"/>
    <path d="M446.72 397.129v12.5h30.37v-7.77" stroke="#ebebeb" stroke-linecap="round" stroke-linejoin="round" stroke-width="2"/>
    <path d="M492.571 422.959v-13.33h15.95" stroke="#ebebeb" stroke-linecap="round" stroke-linejoin="round" stroke-width="2"/>
    <path d="M453.021 422.959h24.07" stroke="#ebebeb" stroke-linecap="round" stroke-linejoin="round" stroke-width="2"/>
    <path d="M501.151 422.959h-24.06" stroke="#ebebeb" stroke-linecap="round" stroke-linejoin="round" stroke-width="2"/>
    <path d="M427.01 395.759h50.081v13.87h4.56" stroke="#ebebeb" stroke-linecap="round" stroke-linejoin="round" stroke-width="2"/>
    <path d="M538.901 297.699v-11.89" stroke="#ebebeb" stroke-linecap="round" stroke-linejoin="round" stroke-width="2"/>
    <path d="M367.641 301.189v12.5h30.37v-7.77" stroke="#ebebeb" stroke-linecap="round" stroke-linejoin="round" stroke-width="2"/>
    <path d="M337.281 298.149v15.54h45.54" stroke="#ebebeb" stroke-linecap="round" stroke-linejoin="round" stroke-width="2"/>
    <path d="M353.641 327.019v-13.33" stroke="#ebebeb" stroke-linecap="round" stroke-linejoin="round" stroke-width="2"/>
    <path d="M398.011 327.019v14.3h-15.19" stroke="#ebebeb" stroke-linecap="round" stroke-linejoin="round" stroke-width="2"/>
    <path d="M398.01 327.019v14.3h26.131" stroke="#ebebeb" stroke-linecap="round" stroke-linejoin="round" stroke-width="2"/>
    <path d="M377.141 299.819h20.87v13.87h4.56" stroke="#ebebeb" stroke-linecap="round" stroke-linejoin="round" stroke-width="2"/>
    <path d="M338.761 327.019h-8.6" stroke="#ebebeb" stroke-linecap="round" stroke-linejoin="round" stroke-width="2"/>
    <path d="M429.081 334.169v-7.15" stroke="#ebebeb" stroke-linecap="round" stroke-linejoin="round" stroke-width="2"/>
    <path d="M369.701 273.619v12.5h30.37v-7.77" stroke="#ebebeb" stroke-linecap="round" stroke-linejoin="round" stroke-width="2"/>
    <path d="M337.041 279.189v-6.93h15.21v-10.23h-7.61" stroke="#ebebeb" stroke-linecap="round" stroke-linejoin="round" stroke-width="2"/>
    <path d="M384.891 299.459v-13.34h-47.85" stroke="#ebebeb" stroke-linecap="round" stroke-linejoin="round" stroke-width="2"/>
    <path d="M356.861 299.459v-13.34" stroke="#ebebeb" stroke-linecap="round" stroke-linejoin="round" stroke-width="2"/>
    <path d="M412.101 299.459v-13.34h13.34v-11.76h-6.38" stroke="#ebebeb" stroke-linecap="round" stroke-linejoin="round" stroke-width="2"/>
    <path d="M424.141 299.819H398.01v12.59h17.24" stroke="#ebebeb" stroke-linecap="round" stroke-linejoin="round" stroke-width="2"/>
    <path d="M363.701 299.459H346.25" stroke="#ebebeb" stroke-linecap="round" stroke-linejoin="round" stroke-width="2"/>
    <path d="M379.201 272.259h20.87v13.86h4.56" stroke="#ebebeb" stroke-linecap="round" stroke-linejoin="round" stroke-width="2"/>
    <path d="M382.781 398.669v12.5h28.06" stroke="#ebebeb" stroke-linecap="round" stroke-linejoin="round" stroke-width="2"/>
    <path d="M352.421 396.779v14.39h45.54v13.34" stroke="#ebebeb" stroke-linecap="round" stroke-linejoin="round" stroke-width="2"/>
    <path d="M369.931 424.509v-13.34" stroke="#ebebeb" stroke-linecap="round" stroke-linejoin="round" stroke-width="2"/>
    <path d="M389.081 424.509h21.76" stroke="#ebebeb" stroke-linecap="round" stroke-linejoin="round" stroke-width="2"/>
    <path d="M376.781 424.509h-17.45" stroke="#ebebeb" stroke-linecap="round" stroke-linejoin="round" stroke-width="2"/>
    <path d="M392.281 397.299h18.56" stroke="#ebebeb" stroke-linecap="round" stroke-linejoin="round" stroke-width="2"/>
    <path d="M352.151 354.909h30.37v-7.77" stroke="#ebebeb" stroke-linecap="round" stroke-linejoin="round" stroke-width="2"/>
    <path d="M353.311 342.409v7.62" stroke="#ebebeb" stroke-linecap="round" stroke-linejoin="round" stroke-width="2"/>
    <path d="M339.311 354.909h28.03v6.67" stroke="#ebebeb" stroke-linecap="round" stroke-linejoin="round" stroke-width="2"/>
    <path d="M367.091 395.879v-13.34" stroke="#ebebeb" stroke-linecap="round" stroke-linejoin="round" stroke-width="2"/>
    <path d="M398.01 368.239v-13.33h27.451" stroke="#ebebeb" stroke-linecap="round" stroke-linejoin="round" stroke-width="2"/>
    <path d="M373.921 368.239h8.6v14.3h-23.24" stroke="#ebebeb" stroke-linecap="round" stroke-linejoin="round" stroke-width="2"/>
    <path d="M345.74 368.239h24.09" stroke="#ebebeb" stroke-linecap="round" stroke-linejoin="round" stroke-width="2"/>
    <path d="M406.591 368.239h-24.07v14.3h15.18" stroke="#ebebeb" stroke-linecap="round" stroke-linejoin="round" stroke-width="2"/>
    <path d="M373.94 395.879h-28.96" stroke="#ebebeb" stroke-linecap="round" stroke-linejoin="round" stroke-width="2"/>
    <path d="M382.521 341.039v13.87h4.56" stroke="#ebebeb" stroke-linecap="round" stroke-linejoin="round" stroke-width="2"/>
    <path d="M370.491 341.039h-34.59v-5.36" stroke="#ebebeb" stroke-linecap="round" stroke-linejoin="round" stroke-width="2"/>
    <path d="M367.641 341.039v-11.88" stroke="#ebebeb" stroke-linecap="round" stroke-linejoin="round" stroke-width="2"/>
    <path d="M410.041 342.189v7.98" stroke="#ebebeb" stroke-linecap="round" stroke-linejoin="round" stroke-width="2"/>
    <path d="M497.75 240.799h-66v134.8h66v-108.46" fill="#ececec"/>
    <path d="M431.75 375.599h66v-108.46" fill="#ececec"/>
    <path d="M431.75 375.599h66v-108.46" stroke="#3a728c" stroke-linecap="round" stroke-linejoin="round" stroke-width="2"/>
    <path d="M431.75 329.799v36.79" stroke="#3a728c" stroke-linecap="round" stroke-linejoin="round" stroke-width="2"/>
    <path d="M497.75 240.799h-66v84.1" fill="#ececec"/>
    <path d="M497.75 240.799h-66v84.1" stroke="#3a728c" stroke-linecap="round" stroke-linejoin="round" stroke-width="2"/>
    <path d="M433.801 278.439a5.3 5.3 0 0 0 1.888 2.884 5.3 5.3 0 0 0 3.262 1.116h66.95c2.62 0 4.5-3.16 3.74-6.3l-6.54-27.26-71.9-1.56c-2.12 0-3.62 2.59-3 5.12z" fill="#3a728c" opacity=".04" style="mix-blend-mode:darken"/>
    <path d="M438.561 260.229h68.07c.76-2.69.29-14.57-9-20.37a4.17 4.17 0 0 0-2.24-.61h-66.44a1.1 1.1 0 0 0-1.1 1.1v15.87z" fill="#fff" stroke="#3a728c" stroke-linecap="round" stroke-linejoin="round" stroke-width="2"/>
    <path d="M362.741 325.089h42.84a1 1 0 0 0 1-1v-57.65a1 1 0 0 0-1-1h-42.84a1 1 0 0 0-1 1v57.65a1 1 0 0 0 1 1" fill="#ececec"/>
    <path d="M534.62 325.089h42.84a1 1 0 0 0 1-1v-57.65a1 1 0 0 0-1-1h-42.84a1 1 0 0 0-1 1v57.65a1 1 0 0 0 1 1" fill="#ececec"/>
    <path d="M533.671 269.779h38.71a1.16 1.16 0 0 1 1.15 1.15v54.15l3-.09 1.93-.91v-57.65l-1.61-1.55-42.22.55-1.73.77z" fill="#fff"/>
    <path d="M361.74 269.779h38.75a1.15 1.15 0 0 1 1.15 1.15v54.15h4v-59.65h-42.9z" fill="#fff"/>
    <path d="M401.64 321.409v-50.48a1.15 1.15 0 0 0-1.15-1.15h-38.75" stroke="#3a728c" stroke-linecap="round" stroke-linejoin="round" stroke-width="2"/>
    <path d="M401.64 321.409v-50.48a1.15 1.15 0 0 0-1.15-1.15h-38.75" stroke="#3a728c" stroke-linecap="round" stroke-linejoin="round" stroke-width="2"/>
    <path d="M383.26 270.839v48.63" stroke="#3a728c" stroke-linecap="round" stroke-linejoin="round" stroke-width="2"/>
    <path d="M368.621 295.129h27.88" stroke="#3a728c" stroke-linecap="round" stroke-linejoin="round" stroke-width="2"/>
    <path d="M573.53 321.409v-50.48a1.157 1.157 0 0 0-1.15-1.15h-38.71" stroke="#3a728c" stroke-linecap="round" stroke-linejoin="round" stroke-width="2"/>
    <path d="M553.99 270.839v48.63" stroke="#3a728c" stroke-linecap="round" stroke-linejoin="round" stroke-width="2"/>
    <path d="M539.351 295.129h27.89" stroke="#3a728c" stroke-linecap="round" stroke-linejoin="round" stroke-width="2"/>
    <path d="M534.62 325.089h42.84a1 1 0 0 0 1-1v-57.65a1 1 0 0 0-1-1h-42.84a1 1 0 0 0-1 1v57.65a1 1 0 0 0 1 1" stroke="#3a728c" stroke-linecap="round" stroke-linejoin="round" stroke-width="2"/>
    <path d="M362.741 325.089h42.84a1 1 0 0 0 1-1v-57.65a1 1 0 0 0-1-1h-42.84a1 1 0 0 0-1 1v57.65a1 1 0 0 0 1 1" stroke="#3a728c" stroke-linecap="round" stroke-linejoin="round" stroke-width="2"/>
    <path d="M467.02 296.519c1.823 0 3.3-1.576 3.3-3.52s-1.477-3.52-3.3-3.52-3.3 1.576-3.3 3.52 1.478 3.52 3.3 3.52" fill="#f6f6f6" stroke="#3a728c" stroke-linecap="round" stroke-linejoin="round" stroke-width="2"/>
    <path d="M412.951 227.769h13.54a2.533 2.533 0 0 0 2.53-2.53v-65.78a2.53 2.53 0 0 0-2.53-2.53h-60.35a2.53 2.53 0 0 0-2.53 2.53v65.78a2.53 2.53 0 0 0 2.53 2.53h35.06" fill="#ececec"/>
    <path d="M369.031 161.029h54.1a1.15 1.15 0 0 1 1.062.71c.058.139.088.289.088.44v65.61h5l-.3-68.31-2.53-2.53h-60.31l-2.44 1.9-.17 2.67z" fill="#fff"/>
    <path d="M429.321 227.769h-22.24l22.08-57.8-.07 47.53z" fill="#fff" opacity=".41"/>
    <path d="M393.26 227.769h-28.12l-1.93-4.61 23.9-66.23h33.21z" fill="#fff" opacity=".41"/>
    <path d="M369.031 161.029h54.1q.228 0 .44.087a1.16 1.16 0 0 1 .622.623c.058.139.088.289.088.44v65.61" stroke="#3a728c" stroke-linecap="round" stroke-linejoin="round" stroke-width="2"/>
    <path d="M406.581 227.769h.5" stroke="#3a728c" stroke-linecap="round" stroke-linejoin="round" stroke-width="2"/>
    <path d="M395.76 205.909v16.73" stroke="#3a728c" stroke-linecap="round" stroke-linejoin="round" stroke-width="2"/>
    <path d="M395.76 165.469v35.55" stroke="#3a728c" stroke-linecap="round" stroke-linejoin="round" stroke-width="2"/>
    <path d="M421.351 194.049h-52" stroke="#3a728c" stroke-linecap="round" stroke-linejoin="round" stroke-width="2"/>
    <path d="M412.951 227.769h13.54a2.533 2.533 0 0 0 2.53-2.53v-65.78a2.53 2.53 0 0 0-2.53-2.53h-60.35a2.53 2.53 0 0 0-2.53 2.53v65.78a2.53 2.53 0 0 0 2.53 2.53h35.06" stroke="#3a728c" stroke-linecap="round" stroke-linejoin="round" stroke-width="2"/>
    <path d="M526.791 227.769h41.16a2.523 2.523 0 0 0 2.52-2.53v-65.78a2.52 2.52 0 0 0-2.52-2.53h-60.36a2.53 2.53 0 0 0-2.53 2.53v65.78a2.53 2.53 0 0 0 2.53 2.53h12.07" fill="#ececec"/>
    <path d="m569.271 228.279-20.87-.16 17.07-44.7 5 .31z" fill="#fff" opacity=".41"/>
    <path d="M565.731 227.769v-66.27h-60.67l.82-4.57h63.39l1.2 2.53v65.78l-1.18 2.14z" fill="#fff"/>
    <path d="m534.571 228.159-29.05-.36-.66-5.14 25.11-65.73h31.8z" fill="#fff" opacity=".41"/>
    <path d="M510.48 161.009h41.22" stroke="#3a728c" stroke-linecap="round" stroke-linejoin="round" stroke-width="2"/>
    <path d="M526.791 227.769h41.16a2.523 2.523 0 0 0 2.52-2.53v-65.78a2.52 2.52 0 0 0-2.52-2.53h-60.36a2.53 2.53 0 0 0-2.53 2.53v65.78a2.53 2.53 0 0 0 2.53 2.53h12.07" stroke="#3a728c" stroke-linecap="round" stroke-linejoin="round" stroke-width="2"/>
    <path d="M537.21 219.709v2.93" stroke="#3a728c" stroke-linecap="round" stroke-linejoin="round" stroke-width="2"/>
    <path d="M537.21 165.469v49.36" stroke="#3a728c" stroke-linecap="round" stroke-linejoin="round" stroke-width="2"/>
    <path d="M562.801 194.049h-52" stroke="#3a728c" stroke-linecap="round" stroke-linejoin="round" stroke-width="2"/>
    <path d="M438.491 255.119c.225 1.695.248 3.41.07 5.11l-10.71 2.8v-22.34a.768.768 0 0 1 1.22-.63 24.5 24.5 0 0 1 6.78 7.42" fill="#dfdfdf"/>
    <path d="M438.491 255.119c.225 1.695.248 3.41.07 5.11l-10.71 2.8v-22.34a.768.768 0 0 1 1.22-.63 24.5 24.5 0 0 1 6.78 7.42" stroke="#3a728c" stroke-linecap="round" stroke-linejoin="round" stroke-width="2"/>
    <path d="M437.411 250.779c.06.18.13.35.19.53z" fill="#dfdfdf"/>
    <path d="M437.411 250.779c.06.18.13.35.19.53" stroke="#3a728c" stroke-linecap="round" stroke-linejoin="round" stroke-width="2"/>
    <path d="M134.931 437.309c-3.79-11.9 23.27-38.28 23.27-38.28s7.19-18.36 30.48-16.42c15.18-36.33 65.65-30 79.83-15.81 5.28-11.53 47-25.54 55.13-.24 36.95-9.71 46.16 17.46 47.48 33.5.31 3.84 8.18 39.2 8.18 39.2" fill="#fff"/>
    <path d="M134.931 437.309c-3.79-11.9 23.27-38.28 23.27-38.28s7.19-18.36 30.48-16.42c15.18-36.33 65.65-30 79.83-15.81 5.28-11.53 47-25.54 55.13-.24 36.95-9.71 46.16 17.46 47.48 33.5.31 3.84 8.18 39.2 8.18 39.2" stroke="#3a728c" stroke-linecap="round" stroke-linejoin="round" stroke-width="2"/>
    <path d="M171.98 385.279a40.83 40.83 0 0 0-41.11 32.75c-10-.42-18.43 12.19-16.31 21.25h56.37" fill="#fff"/>
    <path d="M171.98 385.279a40.83 40.83 0 0 0-41.11 32.75c-10-.42-18.43 12.19-16.31 21.25h56.37" stroke="#3a728c" stroke-linecap="round" stroke-linejoin="round" stroke-width="2"/>
    <path d="M240.381 420.589c1.76-22.9 31.7-26.26 39.9-8.84 4.44-1.59 8.08-.89 10.62.92l1.68 22.12s-54.42 3-54.42 2.93" fill="#fff"/>
    <path d="M250.631 424.189c2.89-19.11 26.27-20.1 32.08-5 3.57-3.93 9.94-1.6 10.82 1.43" stroke="#3a728c" stroke-linecap="round" stroke-linejoin="round" stroke-width="2"/>
    <path d="m627.901 439.289-565.42.06" stroke="#3a728c" stroke-linecap="round" stroke-linejoin="round" stroke-width="2"/>
    <path d="M196.2 384.549c24.91-30.23 59-17.38 70.13-12a6.91 6.91 0 0 0 7.08-.59c23.4-16.85 37.73-8.83 44.39-2.17a12.39 12.39 0 0 0 11.4 3.31c24.66-5.44 40.61 19.93 40.62 19.94l-.75-4.08c-4.35-14.69-16.21-30-45.41-22.37-8.13-25.3-49.85-11.29-55.13.24-14.18-14.17-64.65-20.52-79.83 15.81a32.7 32.7 0 0 0-16.73 2.64 40.83 40.83 0 0 0-41.1 32.75c-10-.42-18.43 12.19-16.31 21.25h4.33c-.1-9.22 6-13.28 10.67-15a12.7 12.7 0 0 0 7.13-6.49c9.65-20.95 25.68-23.64 32.29-23.81a12.3 12.3 0 0 0 5.51-1.43 30.3 30.3 0 0 1 12.77-3.5 12.4 12.4 0 0 0 8.94-4.5" fill="#3a728c" opacity=".04" style="mix-blend-mode:darken"/>
    <path d="M240.381 420.589c1.76-22.9 31.7-26.26 39.9-8.84 4.44-1.59 8.08-.89 10.62.92l1.68 22.12s-54.42 3-54.42 2.93" fill="#fff"/>
    <path d="M250.631 424.189c2.89-19.11 26.27-20.1 32.08-5 3.57-3.93 9.94-1.6 10.82 1.43" stroke="#3a728c" stroke-linecap="round" stroke-linejoin="round" stroke-width="2"/>
    <path d="M362.99 415.789s17.55-37.76 25.44-21.76c0 0 37.64-19 45.14 16.22 0 0 25.19 3.12 23.92 28.23l5.48.8s-.44-30.22-26.45-31.62c0 0-.8-29.51-30.6-27.69 0 0-14.06 3.74-18.75 9.64" fill="#3a728c"/>
    <path d="m469.711 30.029-157.6 144-69.75 36.95s-4-9.14-4-9.18l126.11-115.9 99.25-61.87z" fill="#e5e5e5" stroke="#3a728c" stroke-linecap="round" stroke-linejoin="round" stroke-width="2"/>
    <path d="m397.821 83.309-89.4 80.37-70.03 38.09 126.08-115.87 99.24-61.84-55.58 49.98" fill="#fff"/>
    <path d="m397.821 83.309-89.4 80.37-70.03 38.09 126.08-115.87 99.24-61.84-55.58 49.98" stroke="#3a728c" stroke-linecap="round" stroke-linejoin="round" stroke-width="2"/>
    <path d="M296.091 188.229v7.24" stroke="#dfdfdf" stroke-linecap="round" stroke-linejoin="round" stroke-width="2"/>
    <path d="m312.791 203.529 9.9-4.07v9.06l2.56-1.1" stroke="#dfdfdf" stroke-linecap="round" stroke-linejoin="round" stroke-width="2"/>
    <path d="m322.831 215.479-8.771 3.77-.039 11.6 11.6-4.27" stroke="#dfdfdf" stroke-linecap="round" stroke-linejoin="round" stroke-width="2"/>
    <path d="m320.391 255.199-6.33 1.94v-14.5l9.18-3.13v-11.74" stroke="#dfdfdf" stroke-linecap="round" stroke-linejoin="round" stroke-width="2"/>
    <path d="M314.02 262.909v6.81l-12.05 3.79v10.71l12.09-3.37v10.81l8.22-2.41" stroke="#dfdfdf" stroke-linecap="round" stroke-linejoin="round" stroke-width="2"/>
    <path d="m316.451 280.159 5.83-1.5v-6.4" stroke="#dfdfdf" stroke-linecap="round" stroke-linejoin="round" stroke-width="2"/>
    <path d="m269.941 235.839 7.94-3.32v11.91l-10.28 3.69v10.44l11.51-3.75v12.7l-6.9 2.08" stroke="#dfdfdf" stroke-linecap="round" stroke-linejoin="round" stroke-width="2"/>
    <path d="m277.881 244.429 1.75-.57" stroke="#dfdfdf" stroke-linecap="round" stroke-linejoin="round" stroke-width="2"/>
    <path d="M250.709 224.149 328 187.559l135.71-128.01 142.73 125.19v-28.5l-143.36-121.6-150.861 139.203-61.51 32.763z" fill="#dfdfdf" opacity=".62" style="mix-blend-mode:darken"/>
    <path d="m365.04 98.449-19.57 17.71-6.199 3.7v-24.04l6.199-25.63h19.57z" fill="#f6f6f6" stroke="#3a728c" stroke-linecap="round" stroke-linejoin="round" stroke-width="2"/>
    <path d="M345.471 105.039v-34.85l-8.87 5.72v45.55l8.87-5.3" fill="#dfdfdf"/>
    <path d="M345.471 105.039v-34.85l-8.87 5.72v45.55l8.87-5.3" stroke="#3a728c" stroke-linecap="round" stroke-linejoin="round" stroke-width="2"/>
    <path d="M271.401 282.869v-56.4l24.53-11.13a1.15 1.15 0 0 1 1.128.027 1.16 1.16 0 0 1 .572.973v57.76z" fill="#ebebeb" stroke="#3a728c" stroke-linecap="round" stroke-linejoin="round" stroke-width="2"/>
    <path d="M280.611 273.539v-44.98l17.02-7.83" fill="#f6f6f6"/>
    <path d="M280.611 273.539v-44.98l17.02-7.83" stroke="#3a728c" stroke-linecap="round" stroke-linejoin="round" stroke-width="2"/>
    <path d="m442.11 370.339-16.67 2.16 16.67 30h92.76v-30.74a1.426 1.426 0 0 0-1.43-1.42" fill="#fff"/>
    <path d="m442.11 370.339-16.67 2.16 16.67 30h92.76v-30.74a1.426 1.426 0 0 0-1.43-1.42" stroke="#3a728c" stroke-linecap="round" stroke-linejoin="round" stroke-width="2"/>
    <path d="M526.03 370.339h-70.8" stroke="#3a728c" stroke-linecap="round" stroke-linejoin="round" stroke-width="2"/>
    <path d="M530.811 393.789v-47.14h5.71v46.57" fill="#dfdfdf"/>
    <path d="M530.811 393.789v-47.14h5.71v46.57" stroke="#3a728c" stroke-linecap="round" stroke-linejoin="round" stroke-width="2"/>
    <path d="m460.41 393.959-5.18 36h109.34v-34.58a1.51 1.51 0 0 0-1.59-1.42h-30.71" fill="#fff"/>
    <path d="m460.41 393.959-5.18 36h109.34v-34.58a1.51 1.51 0 0 0-1.59-1.42h-30.71" stroke="#3a728c" stroke-linecap="round" stroke-linejoin="round" stroke-width="2"/>
    <path d="M501.15 393.959h-31.69" stroke="#3a728c" stroke-linecap="round" stroke-linejoin="round" stroke-width="2"/>
    <path d="m434.29 373.229-5.08.64v-39.89h5.08z" fill="#dfdfdf" stroke="#3a728c" stroke-linecap="round" stroke-linejoin="round" stroke-width="2"/>
    <path d="M420.841 386.029v-13.3l19.76-2.27a1.425 1.425 0 0 1 1.394.855c.076.178.116.371.116.565v21.84a1.06 1.06 0 0 0 1.11 1l15.65-.81a1.42 1.42 0 0 1 1.39 1.43v21.49a1.04 1.04 0 0 0 .696.991q.206.073.424.059l15.71-.56v22h-32.89c-12.42 0-23.33.2-23.33.2v-49" fill="#ececec"/>
    <path d="M420.841 386.029v-13.3l19.76-2.27a1.425 1.425 0 0 1 1.394.855c.076.178.116.371.116.565v21.84a1.06 1.06 0 0 0 1.11 1l15.65-.81a1.42 1.42 0 0 1 1.39 1.43v21.49a1.04 1.04 0 0 0 .696.991q.206.073.424.059l15.71-.56v22h-32.89c-12.42 0-23.33.2-23.33.2v-49" stroke="#3a728c" stroke-linecap="round" stroke-linejoin="round" stroke-width="2"/>
    <path d="m446.721 394.499-4 .26a1.16 1.16 0 0 1-1.31-1.05v-47.06h5.34v43.38" fill="#dfdfdf"/>
    <path d="m446.721 394.499-4 .26a1.16 1.16 0 0 1-1.31-1.05v-47.06h5.34v43.38" stroke="#3a728c" stroke-linecap="round" stroke-linejoin="round" stroke-width="2"/>
    <path d="m465.671 417.729-4.12.17a1.15 1.15 0 0 1-.867-.253 1.14 1.14 0 0 1-.424-.797v-46.67h5.411z" fill="#dfdfdf" stroke="#3a728c" stroke-linecap="round" stroke-linejoin="round" stroke-width="2"/>
    <path d="M559.061 417.319h-81.97v21.97h87.48v-20.97" fill="#fff"/>
    <path d="M559.061 417.319h-81.97v21.97h87.48v-20.97" stroke="#3a728c" stroke-linecap="round" stroke-linejoin="round" stroke-width="2"/>
    <path d="M452.101 440.809c0 7.94-16 14.37-26.48 14.37s-19.06-6.43-19.06-14.37 8.53-14.37 19.06-14.37 26.48 6.44 26.48 14.37" fill="#f6f6f6"/>
    <path d="M369.831 393.029c6.95-9 17.34-3.42 17.34-3.42a31.9 31.9 0 0 1 21.74-9.93 26.9 26.9 0 0 1 7.69.71c13.4 3.3 19.08 14.7 19.92 27.27 17.81 1.38 26.45 18.11 26.45 31.62h-16.45c-3.89-6-12.73-5.3-14.77-1.08-5.37-8.83-20.57-6.49-24.45 1.05h-68.47" fill="#fff"/>
    <path d="M369.831 393.029c6.95-9 17.34-3.42 17.34-3.42a31.9 31.9 0 0 1 21.74-9.93 26.9 26.9 0 0 1 7.69.71c13.4 3.3 19.08 14.7 19.92 27.27 17.81 1.38 26.45 18.11 26.45 31.62h-16.45c-3.89-6-12.73-5.3-14.77-1.08-5.37-8.83-20.57-6.49-24.45 1.05h-68.47" stroke="#3a728c" stroke-linecap="round" stroke-linejoin="round" stroke-width="2"/>
    <path d="M379.331 414.469c1.24-7.06 9.31-10.27 16-6.19a6.438 6.438 0 0 1 9.823.12 6.44 6.44 0 0 1 1.437 3.38" fill="#fff"/>
    <path d="M379.331 414.469c1.24-7.06 9.31-10.27 16-6.19a6.438 6.438 0 0 1 9.823.12 6.44 6.44 0 0 1 1.437 3.38" stroke="#3a728c" stroke-linecap="round" stroke-linejoin="round" stroke-width="2"/>
    <path d="M465.66 122.689c10.312 0 18.67-8.359 18.67-18.67s-8.358-18.67-18.67-18.67c-10.311 0-18.67 8.359-18.67 18.67s8.359 18.67 18.67 18.67" fill="#fff"/>
    <path d="M462.571 85.629a18.638 18.638 0 0 0-11.173 30.447 18.64 18.64 0 0 0 11.173 6.333 18.64 18.64 0 0 0 0-36.78" fill="#ececec"/>
    <path d="M462.26 89.239v28.14" stroke="#3a728c" stroke-linecap="round" stroke-linejoin="round" stroke-width="2"/>
    <path d="M449.641 104.489h24.52" stroke="#3a728c" stroke-linecap="round" stroke-linejoin="round" stroke-width="2"/>
    <path d="m408.131 74.039 55.6-49.98 163.47 146.63-5.19 6.94-158.27-142.19-151.63 138.56" fill="#e5e5e5"/>
    <path d="m408.131 74.039 55.6-49.98 163.47 146.63-5.19 6.94-158.27-142.19-151.63 138.56" stroke="#3a728c" stroke-linecap="round" stroke-linejoin="round" stroke-width="2"/>
    <path d="m402.431 79.159-1.1.99" stroke="#3a728c" stroke-linecap="round" stroke-linejoin="round" stroke-width="2"/>
    <path d="m464.901 381.489-50.1-56.13a1 1 0 0 1-.28-.71v-3.89a1.65 1.65 0 0 1 1.65-1.65h5.86l50.38 55.45h-6.09a1.42 1.42 0 0 0-1.324.913 1.4 1.4 0 0 0-.096.557z" fill="#ebebeb" stroke="#3a728c" stroke-linecap="round" stroke-linejoin="round" stroke-width="2"/>
    <path d="M466.321 374.559h6.09l-50.38-55.45h-5.86" fill="#fff"/>
    <path d="M466.321 374.559h6.09l-50.38-55.45h-5.86" stroke="#3a728c" stroke-linecap="round" stroke-linejoin="round" stroke-width="2"/>
    <path d="M472.411 374.579v5.86a1.003 1.003 0 0 1-1 1h-5.41a1 1 0 0 1-.74-.275 1 1 0 0 1-.31-.725v-4.83a1 1 0 0 1 .291-.758 1 1 0 0 1 .759-.292h6.44z" fill="#ebebeb" stroke="#3a728c" stroke-linecap="round" stroke-linejoin="round" stroke-width="2"/>
    <path d="M462.44 122.389a18.65 18.65 0 0 0 0-36.74" stroke="#3a728c" stroke-linecap="round" stroke-linejoin="round" stroke-width="2"/>
    <path d="M465.66 122.689c10.312 0 18.67-8.359 18.67-18.67s-8.358-18.67-18.67-18.67c-10.311 0-18.67 8.359-18.67 18.67s8.359 18.67 18.67 18.67" stroke="#3a728c" stroke-linecap="round" stroke-linejoin="round" stroke-width="2"/>
    <path d="M565.73 161.499v66.27" stroke="#3a728c" stroke-linecap="round" stroke-linejoin="round" stroke-width="2"/>
    <path d="M369.831 393.029a20.66 20.66 0 0 1 17 .14 4 4 0 0 0 3.27.1c7.15-3.08 35.37-13.24 42.91 14.62a3.94 3.94 0 0 0 2.86 2.81c6.18 1.48 22.66 7.35 21.63 27.78l5.48.8s-.44-30.22-26.45-31.62c0 0-.8-29.51-30.6-27.69 0 0-14.06 3.74-18.75 9.64.02.01-8.82-5.83-17.35 3.42" fill="#3a728c" opacity=".04" style="mix-blend-mode:darken"/>
    <path d="M612.261 449.029c-6.58-30.19-6.21-48.78-6.21-48.78h-40.79s.37 18.59-6.2 48.78" fill="#f6f6f6"/>
    <path d="m559.061 448.739 10.24-23.71s24.85 4.09 37.69-5.56c4-15.19-25.79-29.53-25.79-29.53l-15.94 10.32-1.89 24.39z" fill="#ebebeb"/>
    <path d="M612.261 449.029c-6.58-30.19-6.21-48.78-6.21-48.78h-40.79s.37 18.59-6.2 48.78" stroke="#3a728c" stroke-linecap="round" stroke-linejoin="round" stroke-width="2"/>
    <path d="M524.941 298.299c-1.52 3.09-13.95 39.74-44.83 55.7-3.55 1.84-4.65 7-3.57 11.19 2.8 10.68 15.32 26.09 37.41 27.59-5.86 3.77 3.3 20.86 45.45 14.44-2.66 11.94 36.58 13 60.44-.34 23.85 4.69 54.74-3.62 51.63-10.7 18.45-3.61 41.82-35.31 22.64-42.24-17.52-6.82-37.84-29-50.33-57.58" fill="#fff"/>
    <path d="M524.941 298.299c-1.52 3.09-13.95 39.74-44.83 55.7-3.55 1.84-4.65 7-3.57 11.19 2.8 10.68 15.32 26.09 37.41 27.59-5.86 3.77 3.3 20.86 45.45 14.44-2.66 11.94 36.58 13 60.44-.34 23.85 4.69 54.74-3.62 51.63-10.7 18.45-3.61 41.82-35.31 22.64-42.24-17.52-6.82-37.84-29-50.33-57.58" stroke="#3a728c" stroke-linecap="round" stroke-linejoin="round" stroke-width="2"/>
    <path d="M539.851 344.409a117 117 0 0 1-11.48 19.45c-2.26 3.07-2.18 6.43 1.71 7.45 5.14 1.36 7 .22 7 .22s-2.74 3.5-2.33 5.08c1 3.9 12.27 1.37 17-6.59" fill="#f6f6f6"/>
    <path d="M543.401 338.969s-2.81 8.88-12.48 18.45c-2.71 2.68-2.18 6.43 1.71 7.46 3.389.756 6.922.548 10.2-.6 0 0-1.17 3.61-1.6 5.07-.74 2.52 2.91 5.15 10.52.67" fill="#fff"/>
    <path d="M543.401 338.969s-2.81 8.88-12.48 18.45c-2.71 2.68-2.18 6.43 1.71 7.46 3.389.756 6.922.548 10.2-.6 0 0-1.17 3.61-1.6 5.07-.74 2.52 2.91 5.15 10.52.67" stroke="#3a728c" stroke-linecap="round" stroke-linejoin="round" stroke-width="2"/>
    <path d="M671.471 396.179c17.73-3.47 40-32.88 24.68-41.31-.3 1-.58 2.12-.85 3.3-4.6 20.31-20.68 27.52-28.48 28.72a3.46 3.46 0 0 0-2.58 2.23c-3 7.42-23.29 14.48-45.65 6.29a3.07 3.07 0 0 0-1.94-.06c-39.15 11.6-47.53 3.75-49.22-1.2a3.3 3.3 0 0 0-3.82-2.31c-8.72 2-31.62 6.44-41.88-.88a3.84 3.84 0 0 1-.83-5.1 3.783 3.783 0 0 0-1.71-5.57c-6.69-2.34-18.94-7.85-21.66-17.49a3.84 3.84 0 0 1 1.63-4.34c7.45-4.45 14.7-12.86 20.6-21.54a4.12 4.12 0 0 0 .56-3.67c-1.36-3.63 8.28-13.83 11.5-19.12a3.2 3.2 0 0 1 3-1.58c25 2.57 37.43-7.17 42.78-13.5a3.7 3.7 0 0 0 .79-1.62l-53.5.87c-1.52 3.09-13.95 39.74-44.83 55.7-3.55 1.84-4.65 7.06-3.57 11.19 2.8 10.68 15.32 26.09 37.41 27.59-5.86 3.77 3.3 20.86 45.45 14.44-2.66 11.94 36.58 13 60.44-.34 23.9 4.69 54.79-3.62 51.68-10.7" fill="#3a728c" opacity=".04" stroke="#3a728c" stroke-linecap="round" stroke-linejoin="round" stroke-width="2"/>
    <path d="M694.111 353.939c-17.52-6.82-37.84-29-50.33-57.58l-26.29.43-2.08 5.69s15 7.81 23.29 2.44c2.73 5.75 29.18 49.81 56.6 53.25a10 10 0 0 0 4.32-.25 11 11 0 0 0-5.51-3.98" fill="#3a728c" opacity=".04" stroke="#3a728c" stroke-linecap="round" stroke-linejoin="round" stroke-width="2"/>
    <path d="M549.5 216.089c-6.43 13.42-20.33 35.28-46.08 54.24-10.59 7.47 5.31 24.11 24.75 21.68-1.54 7.69 12.74 17.21 42.62 8.53 3.43 6.74 21.59 5.67 32.47-3.09 10.87 8.28 32.55 7.13 31-1.55 19.62 8.34 45.3-10.82 38.32-20.84-10.21-8.76-40.6-43.27-45.6-71.08l-67.39-9.42" fill="#fff"/>
    <path d="M610.96 301.349c11 3.6 24.53 1.46 23.27-5.45 23.19 5.95 41.13-9.66 38.32-20.84-6.51-4-41.48-50.34-44.32-62.74" stroke="#3a728c" stroke-linecap="round" stroke-linejoin="round" stroke-width="2"/>
    <path d="M525.08 249.739c-8.38 9.21-16.81 17.26-21.66 20.59-10.59 7.47 5.31 24.11 24.75 21.68-1.54 7.69 12.74 17.21 42.62 8.53" stroke="#3a728c" stroke-linecap="round" stroke-linejoin="round" stroke-width="2"/>
    <path d="m529.2 245.139-.51.58" stroke="#3a728c" stroke-linecap="round" stroke-linejoin="round" stroke-width="2"/>
    <path d="M549.501 216.089c-2.38 6.54-9.9 16.84-18.42 26.83" stroke="#3a728c" stroke-linecap="round" stroke-linejoin="round" stroke-width="2"/>
    <path d="M589.461 273.929c-2.2 1.78-12.31 3.76-9.16-2.37a12.9 12.9 0 0 1-6.1-2.84 3.658 3.658 0 0 1 .7-5.88 22.6 22.6 0 0 0 7.94-8.13" fill="#fff"/>
    <path d="M574.901 262.839c0 3 6.33 5.74 10 5.22 0 0-2.19 2.52-2.05 3.78.21 1.93 6.58 2.09 6.58 2.09l-15.65 9.23-3.77-19.88 6.31-5.1" fill="#f6f6f6"/>
    <path d="M589.461 273.929c-2.2 1.78-12.31 3.76-9.16-2.37a12.9 12.9 0 0 1-6.1-2.84 3.658 3.658 0 0 1 .7-5.88 22.6 22.6 0 0 0 7.94-8.13" stroke="#3a728c" stroke-linecap="round" stroke-linejoin="round" stroke-width="2"/>
    <path d="m598.421 213.109-.8.43z" fill="#fff"/>
    <path d="m598.421 213.109-.8.43" stroke="#3a728c" stroke-linecap="round" stroke-linejoin="round" stroke-width="2"/>
    <path d="M672.56 275.029c-8.83-7.57-32.719-34.38-42.269-59.47l-10.7-12.63-4.591-.65.19 4s2.081 3.17 6.451 9.15a56.4 56.4 0 0 1 6 10.5c6.3 14.36 20.929 44.59 37.719 52.08-4.63 14-37.769 9-37.769 9s3.09 8.43-12.2 15.47c9.89 1.82 19.91-.58 18.82-6.58 19.64 8.34 45.319-10.82 38.349-20.87" fill="#3a728c" opacity=".04"/>
    <path d="m585.301 204.799-28.85-3.59-7 14.88c-6.43 13.42-20.33 35.28-46.08 54.24-10.59 7.47 5.31 24.11 24.75 21.68-1.54 7.69 12.74 17.21 42.62 8.53a6.14 6.14 0 0 0 2.27 2.38c3-3.59 7.86-10.68-2.27-9.76-28.83 2.62-36.48-.42-37.83-8.16a3.1 3.1 0 0 0-3.2-2.74c-2.078.25-4.185.079-6.196-.503a15.6 15.6 0 0 1-5.504-2.887 3.5 3.5 0 0 1-1.167-2.6 3.48 3.48 0 0 1 1.167-2.6c4.91-4.15 11.16-11.94 17.1-20.12a3.47 3.47 0 0 0 .51-3c-1.31-4.17 17.72-21.08 24.95-27.92a2.77 2.77 0 0 1 3.38-.44c8.32 5.13 38 .37 37.93-9.84.03-4.96-16.58-7.55-16.58-7.55" fill="#3a728c" opacity=".04"/>
    <path d="M597.09 214.779c-19.06 8.73-34.73 0-32.22-4.53-23 6.79-42.24-15.05-32.54-20.62 5.68-3.25 14.58-8.72 26-20.89-7.89-5.31 11-12.12 28.07-45.81 1.75-4 4.86-4.05 7.12-.38 14.75 24 28.78 28.65 23.92 33a93.9 93.9 0 0 0 30.46 34.94 4.55 4.55 0 0 1 2.15 2.89c1.93 10.79-18 24.76-32.49 15.2" fill="#fff"/>
    <path d="M597.09 214.779c-19.06 8.73-34.73 0-32.22-4.53-23 6.79-42.24-15.05-32.54-20.62 5.68-3.25 14.58-8.72 26-20.89-7.89-5.31 11-12.12 28.07-45.81 1.75-4 4.86-4.05 7.12-.38 14.75 24 28.78 28.65 23.92 33a93.9 93.9 0 0 0 30.46 34.94 4.55 4.55 0 0 1 2.15 2.89c1.93 10.79-18 24.76-32.49 15.2" stroke="#3a728c" stroke-linecap="round" stroke-linejoin="round" stroke-width="2"/>
    <path d="M558.771 183.869c-.19 2.73-3.62 4.34-3.29 6 .21 1 2.08 1.36 3.49.4-.09 2.1-2.5 4.16-2.42 5.19.18 2.54 8.28 3 13-2.25" fill="#f6f6f6"/>
    <path d="M563.2 179.459c-.61 2-3.21 4.17-3.43 4.54-.84 1.38 1 2.9 3 2.69-1.08 1.47-2.89 2-3 3-.3 2.53 5.63 5.3 11.21 1.28" fill="#fff"/>
    <path d="M563.2 179.459c-.61 2-3.21 4.17-3.43 4.54-.84 1.38 1 2.9 3 2.69-1.08 1.47-2.89 2-3 3-.3 2.53 5.63 5.3 11.21 1.28" stroke="#3a728c" stroke-linecap="round" stroke-linejoin="round" stroke-width="2"/>
    <path d="M601.661 213.029c1-2.65 0-4.85-4.72-4-11.13 2.05-24.611 1.3-28.271-6.27a27.66 27.66 0 0 1-27.779-8.17s21.27-17.77 24.5-24.28c-5.61-2.19 12.27-15.07 28.17-47.73-2.26-3.67-5.37-3.61-7.12.38-17.09 33.69-36 40.5-28.07 45.81-11.46 12.17-20.36 17.64-26 20.89-9.7 5.57 9.51 27.41 32.54 20.62-2.51 4.5 11.16 13.26 30.22 4.53z" fill="#3a728c" opacity=".04"/>
    <g fill="#3a728c" opacity=".04" style="mix-blend-mode:darken">
      <path d="m94.04 452.549-2.94.26a8.7 8.7 0 0 0 2.94-.26" opacity=".04" style="mix-blend-mode:darken"/>
      <path d="M99.76 440.549c.14-5.39 3.621-21.83 3.621-21.83l-.651-10.17c0-.46.42-3.89 0-4.09 0 0-12-2-15.7-3.67-9.24-3.87-12.83-9.13-12.83-9.13-1-.39.1.95.38 2l-3.07 3.55s9.4 9.09 23.07 10.78a1.3 1.3 0 0 1 1.13 1c1 5.68.18 7.48-.41 8a1.26 1.26 0 0 0-.33 1.13l.62 3.86s.45 8.36-1.45 8.3c-.28 1.6-3.56 9.17-2.06 11.74.94 1.61 5 2.18 4.72 7a3.4 3.4 0 0 1-2.75 3.51l8.85-.75s1.15-8.6-3.14-11.23" opacity=".04" style="mix-blend-mode:darken"/>
    </g>
  </g>
  <defs>
    <clipPath id="clip0_83_3815">
      <path d="M.2.029h615v471H.2z" fill="#fff"/>
    </clipPath>
  </defs>
</svg>