<?xml version="1.0" encoding="utf-8"?>
<svg xmlns="http://www.w3.org/2000/svg" fill="none" height="475" viewBox="0 0 778 475" width="778">
  <g clip-path="url(#clip0_4038_156070)">
    <mask height="475" id="mask0_4038_156070" maskUnits="userSpaceOnUse" style="mask-type:luminance" width="778" x="0" y="0">
      <path d="M778 0H0v475h778z" fill="#fff"/>
    </mask>
    <g mask="url(#mask0_4038_156070)">
      <path d="M47.956 453.996c-6.658 5.278-9.99 1.093-9.99 1.093-5.563.938-6.737-4.61-6.737-4.61s-2.456.119-3.85-4.306c-.678-2.157 1.429-4.073 3.473-3.239 5.459 2.228 9.522 2.299 15.1.911l14.492-1.11" fill="#fff"/>
      <path d="M47.956 453.996c-6.658 5.278-9.99 1.093-9.99 1.093-5.563.938-6.737-4.61-6.737-4.61s-2.456.119-3.85-4.306c-.678-2.157 1.429-4.073 3.473-3.239 5.459 2.228 9.522 2.299 15.1.911l14.492-1.11" stroke="#494949" stroke-linecap="round" stroke-linejoin="round" stroke-width="2"/>
      <path d="M29.184 442.998c-4.312 1.75-.376 7.25 1.813 7.5.75 2.75 3.812 5.375 7.062 4.687 2.25 2.5 5.688 2.251 9.188-.687-.126-.5-.282-1.656-.657-4.031-6.219 5.531-6.969.531-6.969.531s-3.5 1.5-6.25-3.125c-4.5.375-.742-6.273-4.188-4.875" fill="#288A69" fill-opacity=".04"/>
      <path d="M88.982 379.508s-5.604-13.25-3.662-17.864c.83-1.972 3.8-2.151 6.613.444 4.312 3.975 6.774 6.715 6.774 6.715" fill="#ebebeb"/>
      <path d="M88.982 379.508s-5.604-13.25-3.662-17.864c.83-1.972 3.8-2.151 6.613.444 4.312 3.975 6.774 6.715 6.774 6.715" stroke="#494949" stroke-linecap="round" stroke-linejoin="round" stroke-width="2"/>
      <path d="M101.604 408.361s-2.192-2.282 4.317-11.256c7.038 1.071 9.06-5.968 9.06-5.968 3.82 1.197 6.819-1.418 8.015-7.431 5.138-2.646.613-13.666-1.61-17.785-1.693-3.138-4.492-2.881-6.043-2.296-17.659 7.504-23.435 6.832-23.727 6.876l-1.7-1.669c-8.824 1.181-9.057 10.607-8.813 16.408l-3.232 6.864" fill="#fff"/>
      <path d="M110.184 366.424s.778 4.048 4.925 5.145c5.413 1.434 7.769-1.302 7.769-1.302l-1.632-5.17-3.682-2.241z" fill="#ebebeb"/>
      <path d="M110.125 366.391s.778 4.047 4.924 5.145c5.413 1.433 7.77-1.303 7.77-1.303" stroke="#494949" stroke-linecap="round" stroke-linejoin="round" stroke-width="2"/>
      <path d="M101.659 408.44s-2.192-2.283 4.317-11.257c7.037 1.071 9.059-5.968 9.059-5.968 3.821 1.197 6.82-1.418 8.016-7.431 5.137-2.646.613-13.666-1.61-17.785-1.693-3.138-4.492-2.881-6.044-2.296-17.658 7.504-23.434 6.832-23.726 6.877l-1.7-1.67c-8.825 1.181-9.058 10.607-8.813 16.408l-3.233 6.864" stroke="#494949" stroke-linecap="round" stroke-linejoin="round" stroke-width="2"/>
      <path d="m114.853 391.418-2.494-3.996Z" fill="#ebebeb"/>
      <path d="m114.853 391.418-2.494-3.996" stroke="#4a494a" stroke-linecap="round" stroke-linejoin="round" stroke-width="2"/>
      <path d="m122.997 383.701-1.731-2.763Z" fill="#ebebeb"/>
      <path d="m122.997 383.701-1.731-2.763" stroke="#4a494a" stroke-linecap="round" stroke-linejoin="round" stroke-width="2"/>
      <path d="m105.13 396.856-1.138-1.708Z" fill="#ebebeb"/>
      <path d="m105.13 396.856-1.138-1.708" stroke="#4a494a" stroke-linecap="round" stroke-linejoin="round" stroke-width="2"/>
      <path d="M117.832 363.108c-1.976 1.848 5.957 12.052.503 15.46-1.921 7.98-4.615 7.979-8.19 8.293-2.376 7.728-12.88 11.675-12.88 11.675s-14.685-4.637-17.287-10.222c-4.44 5.776-.922 13.926-.922 13.926l22.123 5.215 4.725-9.821s6.803-1.071 8.891-6.259c3.782.085 5.815 1.481 8.665-7.774 5.08-5.603-3.652-22.342-5.628-20.493" fill="#288A69" fill-opacity=".04"/>
      <path d="m64.007 455.004 4.731-8.552c7.436 1.702 40.226-4.379 33.648-31.93l-.797-5.678s-24.526-17.088-25.96-13.143c-6.073 16.697-34.167 23.192-30.008 50.185" fill="#fff"/>
      <path d="m64.007 455.004 4.731-8.552c7.436 1.702 40.226-4.379 33.648-31.93l-.797-5.678s-24.526-17.088-25.96-13.143c-6.073 16.697-34.167 23.192-30.008 50.185" stroke="#494949" stroke-linecap="round" stroke-linejoin="round" stroke-width="2"/>
      <path d="M76.88 391.635c3.41 2.483 14.679 10.017 27.391 11.143a1.193 1.193 0 0 1 1.039 1.562 132 132 0 0 0-1.636 5.233 1.18 1.18 0 0 1-1.284.855c-4.298-.528-21.125-3.175-29.436-12.907a1.2 1.2 0 0 1-.124-1.347 235 235 0 0 1 2.326-4.17 1.182 1.182 0 0 1 1.725-.369" fill="#dfdfdf"/>
      <path d="M76.88 391.635c3.41 2.483 14.679 10.017 27.391 11.143a1.193 1.193 0 0 1 1.039 1.562 132 132 0 0 0-1.636 5.233 1.18 1.18 0 0 1-1.284.855c-4.298-.528-21.125-3.175-29.436-12.907a1.2 1.2 0 0 1-.124-1.347 235 235 0 0 1 2.326-4.17 1.182 1.182 0 0 1 1.725-.369" stroke="#4a494a" stroke-linecap="round" stroke-linejoin="round" stroke-width="2"/>
      <path d="M63.192 426.555c3.408.2 7.031 1.113 8.125 3.462 2.42 1.704 6.148 4.184 5.21 6.917 1.925 3.426 2.486 9.492.79 10.671 2.352 3.818 3.244 7.857 1.135 9.649-2.975 2.529-11.27 1.944-13.978.243-3.155 1.319-5.812 1.319-8.303-.786-2.989 1.337-6.459.545-7.968-2.712" fill="#fff"/>
      <path d="M63.192 426.555c3.408.2 7.031 1.113 8.125 3.462 2.42 1.704 6.148 4.184 5.21 6.917 1.925 3.426 2.486 9.492.79 10.671 2.352 3.818 3.244 7.857 1.135 9.649-2.975 2.529-11.27 1.944-13.978.243-3.155 1.319-5.812 1.319-8.303-.786-2.989 1.337-6.459.545-7.968-2.712" stroke="#494949" stroke-linecap="round" stroke-linejoin="round" stroke-width="2"/>
      <path d="M81.942 431.409c-.08 2.163-1.158 7.116 1.053 7.257-.023 2.597-2.211 6.886.102 7.746-.669 7.074.735 9.036 1.866 10.225 3.487 3.666 16.243 1.991 17.244-.368 1.048-2.471 1.227-6.148-2.782-9.753-.677-8.781 2.175-13.319 3.2-19.641" fill="#fff"/>
      <path d="M75.75 396.258 73 401.883s10.125 10.25 26.375 12c1.25 9.125-4.5 32.75-4.5 32.75s3.875 2.625 3.125 6.625-11.75 4.625-11.75 4.625 17.5 4.25 17.25-5.25c-1.625-5.75-4.125-6.375-4.125-6.375s6.375-27.5 2.75-35.875c-7.625-1.75-20.25-8.5-20.25-8.5z" fill="#288A69" opacity=".04"/>
      <path d="M81.942 431.409c-.08 2.163-1.158 7.116 1.053 7.257-.023 2.597-2.211 6.886.102 7.746-.669 7.074.735 9.036 1.866 10.225 3.487 3.666 16.243 1.991 17.244-.368 1.048-2.471 1.227-6.148-2.782-9.753-.677-8.781 2.175-13.319 3.2-19.641" stroke="#494949" stroke-linecap="round" stroke-linejoin="round" stroke-width="2"/>
      <path d="M46.5 450.883c3.125 7.375 7 7.625 9.875 5.375 2.625 3.75 7.875 1 7.875 1s8.625 3.625 13.625-1-1.75-6.625-1.75-6.625 1.75 2.875-1.625 4.375-8.375-.75-8.375-.75-7.875 1-9-1c-3 1.25-7.75-1.5-7.75-1.5s-2.5-1.25-2.875.125" fill="#288A69" opacity=".04"/>
      <path d="m97.43 379.355.48.983a.86.86 0 0 1-1.546.754l-.48-.983a.86.86 0 0 1 1.546-.754" fill="#288A69"/>
      <path d="M91.304 370.409a63 63 0 0 1-4.03-3.882c-2.871-3.047-6.002-4.428-7.736-2.003-2.674 4.779 1.94 16.252 1.774 20.982" fill="#fff"/>
      <path d="M91.304 370.409a63 63 0 0 1-4.03-3.882c-2.871-3.047-6.002-4.428-7.736-2.003-2.674 4.779 1.94 16.252 1.774 20.982" stroke="#494949" stroke-linecap="round" stroke-linejoin="round" stroke-width="2"/>
      <path d="M83.678 367.213s-.968-.013.56 2.51c1.528 2.524 2.888 3.874 2.888 3.874" fill="#f6f6f6"/>
      <path d="M83.678 367.213s-.968-.013.56 2.51c1.528 2.524 2.888 3.874 2.888 3.874" stroke="#494949" stroke-linecap="round" stroke-linejoin="round" stroke-width="2"/>
      <path d="m340.419 336.945-5.639 54.37h-13.397l5.64-54.179z" fill="#cacaca"/>
      <path d="m340.419 336.945-5.639 54.37h-13.397l5.64-54.179z" stroke="#288A69" stroke-linecap="round" stroke-linejoin="round" stroke-width="2"/>
      <path d="M327.679 391.315h-11.023l5.639-54.179 11.023-.191" fill="#ebebeb"/>
      <path d="M327.679 391.315h-11.023l5.639-54.179 11.023-.191" stroke="#288A69" stroke-linecap="round" stroke-linejoin="round" stroke-width="2"/>
      <path d="m328.711 380.469-.516 4.978" stroke="#288A69" stroke-linecap="round" stroke-linejoin="round" stroke-width="2"/>
      <path d="m331.921 349.562-2.71 26.115Z" fill="#dfdfdf"/>
      <path d="m331.921 349.562-2.71 26.115" stroke="#288A69" stroke-linecap="round" stroke-linejoin="round" stroke-width="2"/>
      <path d="M316.828 453.863a4.937 4.937 0 0 0 5.436-4.146l7.433-54.936-12.172-1.383-5.067 55.204a4.94 4.94 0 0 0 4.37 5.261" fill="#eaeaea"/>
      <path d="M316.828 453.863a4.937 4.937 0 0 0 5.436-4.146l7.433-54.936-12.172-1.383-5.067 55.204a4.94 4.94 0 0 0 4.37 5.261" stroke="#288A69" stroke-linecap="round" stroke-linejoin="round" stroke-width="2"/>
      <path d="M353.618 453.799a4.94 4.94 0 0 0 4.069-5.495l-8.134-54.835-12.076 2.056 10.481 54.436a4.94 4.94 0 0 0 5.66 3.838" fill="#eaeaea"/>
      <path d="M353.618 453.799a4.94 4.94 0 0 0 4.069-5.495l-8.134-54.835-12.076 2.056 10.481 54.436a4.94 4.94 0 0 0 5.66 3.838" stroke="#288A69" stroke-linecap="round" stroke-linejoin="round" stroke-width="2"/>
      <path d="M191.611 453.86a4.937 4.937 0 0 0 5.442-4.139l7.503-54.926-12.17-1.397-5.138 55.197a4.94 4.94 0 0 0 4.363 5.265" fill="#eaeaea"/>
      <path d="M204.281 406.125s-2.743.317-6.038-.234c-1.009-.169-1.952.539-2.105 1.55-.661 4.374-7.463 45.73-5.248 48.024 2.985 3.334-5.535 1.74-5.951 1.388-.415-.354-6.049 1.751-5.243.259.805-1.49 12.314-63.714 12.314-63.714l14.466 6.423z" fill="#dddddc"/>
      <path d="M191.611 453.86a4.937 4.937 0 0 0 5.442-4.139l7.503-54.926-12.17-1.397-5.138 55.197a4.94 4.94 0 0 0 4.363 5.265" stroke="#288A69" stroke-linecap="round" stroke-linejoin="round" stroke-width="2"/>
      <path d="M236.75 453.799a4.94 4.94 0 0 0 4.07-5.495l-8.135-54.835-12.076 2.056 10.481 54.436a4.94 4.94 0 0 0 5.66 3.838" fill="#eaeaea"/>
      <path d="M236.75 453.799a4.94 4.94 0 0 0 4.07-5.495l-8.135-54.835-12.076 2.056 10.481 54.436a4.94 4.94 0 0 0 5.66 3.838" stroke="#288A69" stroke-linecap="round" stroke-linejoin="round" stroke-width="2"/>
      <path d="m367.655 326.835-8.765-2.053a1.3 1.3 0 0 0-.434-.079H205.629c-.632 0-1.162.479-1.226 1.108l-1.897 18.566a1.23 1.23 0 0 0 1.227 1.357h152.648q.151 0 .299.038l8.35.853a1.232 1.232 0 0 0 1.525-1.062l1.893-17.441a1.23 1.23 0 0 0-.793-1.287" fill="#dfdfdf"/>
      <path d="m367.655 326.835-8.765-2.053a1.3 1.3 0 0 0-.434-.079H205.629c-.632 0-1.162.479-1.226 1.108l-1.897 18.566a1.23 1.23 0 0 0 1.227 1.357h152.648q.151 0 .299.038l8.35.853a1.232 1.232 0 0 0 1.525-1.062l1.893-17.441a1.23 1.23 0 0 0-.793-1.287" stroke="#288A69" stroke-linecap="round" stroke-linejoin="round" stroke-width="2"/>
      <path d="m357.688 334.425.854-8.363a1.233 1.233 0 0 0-1.226-1.359H205.63c-.633 0-1.162.479-1.227 1.108l-1.896 18.566a1.23 1.23 0 0 0 1.226 1.358h151.686c.633 0 1.163-.479 1.227-1.108l.555-5.438" fill="#ebebeb"/>
      <path d="m357.688 334.425.854-8.363a1.233 1.233 0 0 0-1.226-1.359H205.63c-.633 0-1.162.479-1.227 1.108l-1.896 18.566a1.23 1.23 0 0 0 1.226 1.358h151.686c.633 0 1.163-.479 1.227-1.108l.555-5.438" stroke="#288A69" stroke-linecap="round" stroke-linejoin="round" stroke-width="2"/>
      <path d="m364.222 365.048.849-7.637a1.234 1.234 0 0 0-.926-1.33l-8.681-.936a1.2 1.2 0 0 0-.299-.036h-56.888l-.777 21.031h55.592q.076 0 .153.009l8.455.276a1.233 1.233 0 0 0 1.378-1.091l.732-6.581" fill="#dfdfdf"/>
      <path d="m364.222 365.048.849-7.637a1.234 1.234 0 0 0-.926-1.33l-8.681-.936a1.2 1.2 0 0 0-.299-.036h-56.888l-.777 21.031h55.592q.076 0 .153.009l8.455.276a1.233 1.233 0 0 0 1.378-1.091l.732-6.581" stroke="#288A69" stroke-linecap="round" stroke-linejoin="round" stroke-width="2"/>
      <path d="M273.825 355.109s-72.717.479-72.781 1.107l-1.897 18.567a1.233 1.233 0 0 0 1.226 1.358H352.06c.632 0 1.162-.478 1.226-1.107l1.897-18.568a1.23 1.23 0 0 0-1.227-1.357h-71.294" fill="#ebebeb"/>
      <path d="M273.825 355.109s-72.717.479-72.781 1.107l-1.897 18.567a1.233 1.233 0 0 0 1.226 1.358H352.06c.632 0 1.162-.478 1.226-1.107l1.897-18.568a1.23 1.23 0 0 0-1.227-1.357h-71.294" stroke="#288A69" stroke-linecap="round" stroke-linejoin="round" stroke-width="2"/>
      <path d="M358.808 390.895v10.776a1.99 1.99 0 0 1-1.988 1.987l-23.742-2.433.37-14.819 23.302 2.431c1.136 0 2.058.922 2.058 2.058" fill="#dfdfdf"/>
      <path d="M358.808 390.895v10.776a1.99 1.99 0 0 1-1.988 1.987l-23.742-2.433.37-14.819 23.302 2.431c1.136 0 2.058.922 2.058 2.058" stroke="#288A69" stroke-linecap="round" stroke-linejoin="round" stroke-width="2"/>
      <path d="M335.121 399.195a2.04 2.04 0 0 1-2.043 2.039l-161.154-.07a1.473 1.473 0 0 1-1.471-1.473v-11.875c0-.813.659-1.473 1.472-1.472l161.523.071a1.674 1.674 0 0 1 1.673 1.673v5.702" fill="#ebebeb"/>
      <path d="M335.121 399.195a2.04 2.04 0 0 1-2.043 2.039l-161.154-.07a1.473 1.473 0 0 1-1.471-1.473v-11.875c0-.813.659-1.473 1.472-1.472l161.523.071a1.674 1.674 0 0 1 1.673 1.673v5.702" stroke="#288A69" stroke-linecap="round" stroke-linejoin="round" stroke-width="2"/>
      <path d="M342.332 332.156h-29.785" stroke="#288A69" stroke-linecap="round" stroke-linejoin="round" stroke-width="2"/>
      <path d="M343.861 359.93h-23.634" stroke="#288A69" stroke-linecap="round" stroke-linejoin="round" stroke-width="2"/>
      <path d="M350.019 359.93h-1.675" stroke="#288A69" stroke-linecap="round" stroke-linejoin="round" stroke-width="2"/>
      <path d="M269.094 363.867h13.485" stroke="#288A69" stroke-linecap="round" stroke-linejoin="round" stroke-width="2"/>
      <path d="M300.354 365.438h-6.245" stroke="#288A69" stroke-linecap="round" stroke-linejoin="round" stroke-width="2"/>
      <path d="m320.846 349.011 18.52.97.52-4.24-18.75-.44zm-4.18 31.46 12.47-.17v-5h-11zm11.44 25.71s-1.37.32-4.66-.23c-1.01-.17-1.95.54-2.11 1.55-.65 4.38-7.27 43.62-5.05 45.91 2.99 3.33-1.16-.16-4.57-2.1-.47-.28 5.47-49.95 5.47-49.95l11.75-1.12zm23.33-2.98s-1.17 2.19-4.48 2.58c-1.02.12-1.73 1.07-1.59 2.08.58 4.39 5.48 44.36 8.25 45.94 3.8 2.37-5.97-1.28-5.61-2.94.36-1.65-9.87-49.56-9.87-49.56l15 3zm-117.3 1.06s-.74 1.13-4.06 1.52c-1.01.12-1.72 1.07-1.58 2.08.58 4.39 5.48 44.36 8.25 45.94 3.8 2.37-4.56-1.26-5.06-1.49-.49-.22-2.53-6.42-2.18-8.07.36-1.66-8.9-48.71-8.9-48.71l12.12 2.44zm57.45-76.4-8.49 12.95-8.57 5.35-20.02.84 22.74-27.86 10.64 1.03c3.74.35 5.76 4.56 3.7 7.69m-20.69 27.75s3.59 4.4-4.69 20.65c-21.83 2.5-15.35-17.74-15.35-17.74l6.85-4.22zm-18.76 30.69-23.74 6.19-6.37 8.69-26.01 1.43 19.4-27.73z" fill="#288A69" fill-opacity=".04" opacity=".77"/>
      <path d="m186.101 415.934-2.968 16.812 2.133 10.434 14.019-8.061 2.201-11.16c1.811-10.842-15.443-18.123-15.385-8.025" fill="#fff"/>
      <path d="m186.131 415.956-2.967 16.811 2.132 10.435 14.018-8.062 2.202-11.158c1.204-7.208-6.018-12.842-10.978-12.842-2.501 0-4.426 1.432-4.407 4.816m5.933-55.461s25.158 6.763 38.085 8.073c-8.591 15.198-4.599 10.085 1.168 15.73 5.767 5.646 14.142-3.173 14.142-3.173l-6.334-29.895-35.339-3.964-3.336 11.801 1.869 5.203" fill="#ebebeb"/>
      <path d="m186.084 415.996-2.967 16.811 2.132 10.435 14.018-8.062 2.202-11.158c1.204-7.208-6.018-12.842-10.978-12.842-2.501 0-4.426 1.432-4.407 4.816" fill="#ebebeb"/>
      <path d="m186.1 415.933-2.967 16.811 2.132 10.435 14.018-8.062 2.202-11.158c1.204-7.208-6.018-12.842-10.978-12.842-2.501 0-4.426 1.432-4.407 4.816m.037 8.361s4.379 4.131 13 4l2.482-16.817-13.482 2.817z" fill="#f6f6f6"/>
      <path d="m186.101 415.934-2.968 16.812 2.133 10.434 14.019-8.061 2.201-11.16c1.811-10.842-15.443-18.123-15.385-8.025" stroke="#494949" stroke-linecap="round" stroke-linejoin="round" stroke-width="2"/>
      <path d="M194.277 434.141c1.929.635 3.149.646 5.819.041 0 0 5.321 3.979 1.72 15.884 1.732.835.034 3.566-1.338 4.996l-34.928-.965-3.987-.977c-.61-7.547.723-10.125 4.562-12.977 2.015-1.498 4.443-2.346 6.932-2.674a42 42 0 0 1 3.109-.308" fill="#ebebeb"/>
      <path d="M176.385 437.065s-1.225.06-3.109.308c-2.489.329-4.917 1.177-6.933 2.675-3.838 2.852-5.171 5.43-4.561 12.977l3.986.977 34.929.965c1.372-1.43 3.069-4.16 1.338-4.996 3.601-11.905-1.72-15.884-1.72-15.884-2.671.606-3.89.594-5.82-.04zm9.793 16.519s6.964-16.07-11.363-16.583c-17.815-.499-12.323 17.802-12.323 17.802z" fill="#fff"/>
      <path d="M176.166 437.159s-1.225.06-3.109.308c-2.489.329-4.917 1.177-6.933 2.675-3.838 2.852-5.171 5.43-4.561 12.977l3.986.977 34.929.965c1.372-1.43 3.069-4.16 1.338-4.996 3.601-11.905-1.72-15.884-1.72-15.884-2.671.606-3.89.594-5.82-.04zm26.443 17.71s1.384-15.334.165-15.306c-13.034.309-8.284 14.942-8.284 14.942z" fill="#fff"/>
      <path d="M194.277 434.141c1.929.635 3.149.646 5.819.041 0 0 5.321 3.979 1.72 15.884 1.732.835.034 3.566-1.338 4.996l-34.928-.965-3.987-.977c-.61-7.547.723-10.125 4.562-12.977 2.015-1.498 4.443-2.346 6.932-2.674a42 42 0 0 1 3.109-.308" stroke="#494949" stroke-linecap="round" stroke-linejoin="round" stroke-width="2"/>
      <path d="M182.08 452.075c-11.695.512-20.519-2.778-20.519-2.778s-1.258 3.328.945 5.004c5.113 2.358 14.398 2.7 18.745 2.649 5.956-.07 13.694-.896 17.547-1.344 2.563-.299 4.811-3.257 3.445-5.446l-.061-.096-3.772.71" fill="#fff"/>
      <path d="M182.08 452.075c-11.695.512-20.519-2.778-20.519-2.778s-1.258 3.328.945 5.004c5.113 2.358 14.398 2.7 18.745 2.649 5.956-.07 13.694-.896 17.547-1.344 2.563-.299 4.811-3.257 3.445-5.446l-.061-.096-3.772.71" stroke="#494949" stroke-linecap="round" stroke-linejoin="round" stroke-width="2"/>
      <path d="M200.266 439.336c-1.87.636-6.153 4.51-5.419 12.142-4.913 1.166-9.589 1.159-9.589 1.159" stroke="#494949" stroke-linecap="round" stroke-linejoin="round" stroke-width="2"/>
      <path d="M187.859 438.923s10.586-12.629-3.431-12.89c-5.015-.093-4.692 3.201-6.855 7.329-.697 1.332-2.292 3.924-2.292 3.924l1.032.189" fill="#ebebeb"/>
      <path d="M187.859 438.923s10.586-12.629-3.431-12.89c-5.015-.093-4.692 3.201-6.855 7.329-.697 1.332-2.292 3.924-2.292 3.924l1.032.189" stroke="#494949" stroke-linecap="round" stroke-linejoin="round" stroke-width="2"/>
      <path d="M185.886 450.18c1.027-4.59-.314-10.109-4.8-11.508" stroke="#494949" stroke-linecap="round" stroke-linejoin="round" stroke-width="2"/>
      <path d="M258.692 357.415c1.884 10.516 1.71 28.083-18.917 28.931h-23.62c-5.393 24.905-7.586 32.187-8.972 37.581 0 0-20.884 1.186-28.886-6.204.413-2.325 8.297-45.326 8.297-45.326.695-2.446 1.718-4.805 3.16-6.901 7.037-10.226 17.829-7.881 25.83-9.029l-3.097-11.108" fill="#ebebeb"/>
      <path d="M258.692 357.415c1.884 10.516 1.71 28.083-18.917 28.931h-23.62c-5.393 24.905-7.586 32.187-8.972 37.581 0 0-20.884 1.186-28.886-6.204.413-2.325 8.297-45.326 8.297-45.326.695-2.446 1.718-4.805 3.16-6.901 7.037-10.226 17.829-7.881 25.83-9.029l-3.097-11.108" stroke="#494949" stroke-linecap="round" stroke-linejoin="round" stroke-width="2"/>
      <path d="m188.383 367.806 14.647 3.12 3.646-2.869-2.286 1.764s-7.342 19.71 5.975 27.239c8.798 4.974 18.686-19.929 18.686-19.929l-21.125-28.287-11.627 10.186z" fill="#288A69" fill-opacity=".04"/>
      <path d="M243.543 357.302s11.524 2.222 11.331 6.746c-.194 4.525-8.767 18.884-28.216 17.097s-17.61 8.824-17.61 8.824l-9.126 36.015 8.144-2.95 8.782-36.852 33.903-2.15 8.097-9.319.548-17.861-14.038-13.086z" fill="#288A69" fill-opacity=".04"/>
      <path d="M245.406 237.77c-1.195 1.511-.993 4.294-2.509 3.792-2.351-.78-5.306-1.758-5.529-1.804-5.642-1.16-15.431-2.997-22.484 14.062-.555 1.342-1.764-1.583-3.127-1.99-.092-.028-3.233 3.466-3.324 3.428-1.433-.592.668-2.152 1.261-3.585 7.515-18.176 19.304-18.822 26.7-18.262" fill="#fff"/>
      <path d="M245.406 237.77c-1.195 1.511-.993 4.294-2.509 3.792-2.351-.78-5.306-1.758-5.529-1.804-5.642-1.16-15.431-2.997-22.484 14.062-.555 1.342-1.764-1.583-3.127-1.99-.092-.028-3.233 3.466-3.324 3.428-1.433-.592.668-2.152 1.261-3.585 7.515-18.176 19.304-18.822 26.7-18.262" stroke="#288A69" stroke-linecap="round" stroke-linejoin="round" stroke-width="2"/>
      <path d="M221.415 276.696c-.611 1.79-2.334 2.982-4.219 2.839-6.732-.505-10.425-4.705-10.255-9.971.166-5.148 2.826-7.571 8.728-8.418 1.958-.28 4.42-.033 5.192 1.788 1.659 3.909 1.913 9.778.554 13.762" fill="#f6f6f6"/>
      <path d="M221.415 276.696c-.611 1.79-2.334 2.982-4.219 2.839-6.732-.505-10.425-4.705-10.255-9.971.166-5.148 2.826-7.571 8.728-8.418 1.958-.28 4.42-.033 5.192 1.788 1.659 3.909 1.913 9.778.554 13.762" stroke="#288A69" stroke-linecap="round" stroke-linejoin="round" stroke-width="2"/>
      <path d="M209.381 262.593s-6.903 9.204.755 4.426l.246 10.626 3.205.356-.155-14.07z" fill="#288A69" fill-opacity=".04"/>
      <path d="m249.652 326.416-21.581-.753 1.148-32.858 21.581.753z" fill="#fff"/>
      <path d="m228.478 297.434 1.153-7.189 3.524.12c-12.196.409-20.07-7.412-20.461-18.418l.23-15.952 24.451-10.945 23.588 16.587-9.379 17.651 2.41.544c-1.256 2.231-2.798 13.079-3.268 16.57-.092.683-.144 1.084-.144 1.084" fill="#fff"/>
      <path d="m212.924 255.995 24.451-10.945 23.588 16.587-9.379 17.652 2.41.544c-1.257 2.231-2.798 13.079-3.269 16.57-.092.683-.143 1.084-.143 1.084" stroke="#288A69" stroke-linecap="round" stroke-linejoin="round" stroke-width="2"/>
      <path d="m228.476 297.431 1.153-7.189 3.524.12c-12.197.41-20.071-7.413-20.463-18.418l.154-10.608" stroke="#288A69" stroke-linecap="round" stroke-linejoin="round" stroke-width="2"/>
      <path d="M207.997 256.31c1.381 1.684 13.464 9.405 20.199 3.601 9.629 5.071 14.578-1.827 15.108-1.61 2.447 1.002-2.485 13.202 2.747 13.304 2.157-.148 3.752-4.207 4.486-6.345.747-2.173-.002-2.987 1.865-3.031 4.241-.099 6.394 7.4.022 8.79-.388.084-.726.342-.862.715-1.831 5.004-1.799 9.555-1.125 8.876 9.958-7.532 12.177-6.653 10.273-14.551 4.894-1.887 4.003-11.075-.612-15.177 2.129-6.714-9.089-8.094-14.122-6.918-2.042-3.71-7.302-4.763-10.293-5.203a7.6 7.6 0 0 1-2.854-1.012c-10.567-6.452-18.557-2.171-19.478 1.559-20.003-.234-14.477 20.178-.553 25.564l.05-3.532" fill="#ebebeb"/>
      <path d="M207.997 256.31c1.381 1.683 13.464 9.403 20.199 3.599 9.629 5.071 14.578-1.826 15.108-1.609 2.447 1.002-2.485 13.202 2.747 13.304 2.157-.148 3.752-4.207 4.486-6.345.747-2.172-.002-2.988 1.865-3.032 4.241-.099 6.394 7.402.022 8.791-.388.085-.726.342-.862.715-1.831 5.005-1.799 9.556-1.125 8.877 9.958-7.532 12.177-6.653 10.273-14.552 4.894-1.887 4.003-11.075-.612-15.176 2.129-6.715-9.089-8.094-14.122-6.918-2.042-3.711-7.302-4.763-10.293-5.203a7.6 7.6 0 0 1-2.854-1.012c-10.567-6.452-18.557-2.172-19.478 1.558-20.003-.234-14.476 20.177-.553 25.563l.05-3.531" stroke="#288A69" stroke-linecap="round" stroke-linejoin="round" stroke-width="2"/>
      <path d="M234.397 239.992c-17.747-7.519-20.964-2.625-22.853.107-9.949-.394-10.946 3.074-12.667 6.807-2.822 11.743 12.659 18.491 12.659 18.491s2.142-4.385 1.742-4.703l14.002.629s13.475 4.385 13.498-2.436c.024-7.369-7.574 2.028-13.929-1.844-.506-.307-1.129-.329-1.691-.141-9.467 3.174-16.985-2.486-17.772-5.741.161-2.553.727-5.182 5.621-7.294.381-.164.694-.449.938-.783 2.786-3.834 10.751-4.13 15.449-.978.45.302.979.462 1.515.374 5.361-.872 15.779 4.184 17.074 20.76.06.778 5.204 1.265 1.136-10.126s-7.369-10.005-14.722-13.122" fill="#288A69" fill-opacity=".04"/>
      <path d="M245.423 260.164s-6.935 5.46-14.593 5.73c-8.076.284-12.247-.54-12.247-.54s-2.647 18.057 9.495 24.297c-3.429.087-7.123-1.316-10.529-5.037-7.808-8.529-4.232-21.598-4.232-21.598l.496-6.228s6.082 8.562 18.582 3.878c13.647-2.658 13.691-.402 13.691-.402" fill="#288A69" fill-opacity=".04"/>
      <path d="M247.308 278.822c.609 1.791 2.329 2.984 4.215 2.844 6.733-.496 10.431-4.696 10.267-9.961-.16-5.148-3.37-8.383-9.271-9.237a4.36 4.36 0 0 0-4.643 2.592c-1.664 3.907-1.924 9.777-.568 13.762" fill="#f6f6f6"/>
      <path d="M247.308 278.822c.609 1.791 2.329 2.984 4.215 2.844 6.733-.496 10.431-4.696 10.267-9.961-.16-5.148-3.37-8.383-9.271-9.237a4.36 4.36 0 0 0-4.643 2.592c-1.664 3.907-1.924 9.777-.568 13.762" stroke="#288A69" stroke-linecap="round" stroke-linejoin="round" stroke-width="2"/>
      <path d="M237.066 238.996c5.664 1.366 14.961 7.021 14.342 24.216a2.808 2.808 0 0 0 5.613.202c.709-19.669-9.829-26.8-16.79-29.356" fill="#fff"/>
      <path d="M237.066 238.996c5.664 1.366 14.961 7.021 14.342 24.216a2.808 2.808 0 0 0 5.613.202c.709-19.669-9.829-26.8-16.79-29.356" stroke="#288A69" stroke-linecap="round" stroke-linejoin="round" stroke-width="2"/>
      <path d="M233.556 233.585c-6.556.478-3.861 1.303-3.861 1.303s8.995.315 13.798 4.235 12.161 9.93 11.239 25.595c2.838 2.913 4.224 4.4 4.091 8.21s-9.767 3.912-9.767 3.912l-2.109-9.455s-4.581 18.352 8.411 13.427c12.993-4.924 4.63-16.161 1.974-17.129-.226-.696-.483-13.025-.483-13.025s-7.055-18.257-23.293-17.073" fill="#288A69" fill-opacity=".04"/>
      <path d="M221.023 271.503c1.993 2.472 5.749.929 6.371.196" stroke="#494949" stroke-linecap="round" stroke-linejoin="round" stroke-width="1.7"/>
      <path d="m234.487 268.567-.035 1.008a.793.793 0 0 1-1.585-.055l.035-1.009a.794.794 0 0 1 1.585.056" fill="#288A69"/>
      <path d="m216.976 267.892-.031.885a.696.696 0 0 1-1.391-.048l.031-.885a.695.695 0 0 1 1.391.048" fill="#288A69"/>
      <path d="m205.477 318.542 8.982-13.129c1.815-2.653 4.153-4.93 6.933-6.544.788-.457 1.545-.827 2.197-1.047 5.618-1.823 6.386 7.171 6.416 7.373 1.982 13.264-13.041 43.202-14.417 51.288" fill="#fff"/>
      <path d="m205.477 318.542 8.982-13.129c1.815-2.653 4.153-4.93 6.933-6.544.788-.457 1.545-.827 2.197-1.047 5.618-1.823 6.386 7.171 6.416 7.373 1.982 13.264-13.041 43.202-14.417 51.288" stroke="#494949" stroke-linecap="round" stroke-linejoin="round" stroke-width="2"/>
      <path d="m225.369 315.921-8.408 32.477 30.242 4.423 3.244-53.54s-11.733 6.054-18.548 2.207" fill="#dfdfdf"/>
      <path d="m225.369 315.921-8.408 32.477 30.242 4.423 3.244-53.54s-11.733 6.054-18.548 2.207" stroke="#494949" stroke-linecap="round" stroke-linejoin="round" stroke-width="2"/>
      <path d="M223.589 297.822c5.618-1.823 6.399 7.17 6.416 7.373.97 11.274-9.362 35.083-13.158 46.686-.621 1.896-7.52 1.296-7.714 2.432" fill="#fff"/>
      <path d="M223.589 297.822c5.618-1.823 6.399 7.17 6.416 7.373.97 11.274-9.362 35.083-13.158 46.686-.621 1.896-7.52 1.296-7.714 2.432" stroke="#494949" stroke-linecap="round" stroke-linejoin="round" stroke-width="2"/>
      <path d="M226.934 305.031c-2.957 1.321-3.252 5.165-6.356 4.41 0 0-.002-16.389 8.399-15.042-.66 4.398 1.157 7.909 1.028 10.791" fill="#f6f6f6"/>
      <path d="M226.934 305.031c-2.957 1.321-3.252 5.165-6.356 4.41 0 0-.002-16.389 8.399-15.042-.66 4.398 1.157 7.909 1.028 10.791" stroke="#494949" stroke-linecap="round" stroke-linejoin="round" stroke-width="2"/>
      <path d="m230.281 345.874 7.336-34.738a6.33 6.33 0 0 1 2.434-3.786l12.654-9.35-12.376 53.814z" fill="#d6d6d6"/>
      <path d="M218.122 315.141c-1.021 4.042-3.734 13.868-5.794 19.508Z" fill="#f6f6f6"/>
      <path d="M218.122 315.141c-1.021 4.042-3.734 13.868-5.794 19.508" stroke="#494949" stroke-linecap="round" stroke-linejoin="round" stroke-width="2"/>
      <path d="M251.853 295.5c-.605 6.354-6.581 11.17-9.275 13.328 0 0-5.159 22.349-8.311 42.493-.523 3.341 22.279 2.084 24.691.589l3.495-17.705 20.473-18.455" fill="#fff"/>
      <path d="M241.172 353.954c12.286.989 14.344 9.892 20.632 8.055l-.439-11.993" fill="#fff"/>
      <path d="M241.172 353.954c12.286.989 14.344 9.892 20.632 8.055l-.439-11.993" stroke="#494949" stroke-linecap="round" stroke-linejoin="round" stroke-width="2"/>
      <path d="M250.888 295.219c-.605 6.354-6.292 10.502-8.095 13.445-4.533 7.404-4.557 20.118-7.551 36.705" fill="#fff"/>
      <path d="M250.888 295.219c-.605 6.354-6.292 10.502-8.095 13.445-4.533 7.404-4.557 20.118-7.551 36.705" stroke="#494949" stroke-linecap="round" stroke-linejoin="round" stroke-width="2"/>
      <path d="M260.477 317.027c.171-1.915 1.069-6.839 2.823-7.625l11.218-6.129 5.341 24.853-7.511 4.414s-2.44.781-5.222-1.091" fill="#dfdfdf"/>
      <path d="M260.477 317.027c.171-1.915 1.069-6.839 2.823-7.625l11.218-6.129 5.341 24.853-7.511 4.414s-2.44.781-5.222-1.091" stroke="#494949" stroke-linecap="round" stroke-linejoin="round" stroke-width="2"/>
      <path d="M254.742 291.359c15.13 2.318 30.577 5.644 37.222 14.058 1.987 2.516 2.994 6.086 2.86 9.51-.163 4.186-2.71 7.912-6.47 9.757l-16.002 7.853c2.451-2.771 2.751-15.444-6.957-21.284" fill="#fff"/>
      <path d="M254.742 291.359c15.13 2.318 30.577 5.644 37.222 14.058 1.987 2.516 2.994 6.086 2.86 9.51-.163 4.186-2.71 7.912-6.47 9.757l-16.002 7.853c2.451-2.771 2.751-15.444-6.957-21.284" stroke="#494949" stroke-linecap="round" stroke-linejoin="round" stroke-width="2"/>
      <path d="M254.57 289.241c9.177 5.828-.68 18.007-1.876 22.811-.09.362-.325.679-.627.898-3.098 2.251-4.854-3.047-9.606-2.942.211-4.036 7.505-7.298 8.13-13.529l1.297-8.838" fill="#f6f6f6"/>
      <path d="M254.57 289.241c9.177 5.828-.68 18.007-1.876 22.811-.09.362-.325.679-.627.898-3.098 2.251-4.854-3.047-9.606-2.942.211-4.036 7.505-7.298 8.13-13.529l1.297-8.838" stroke="#494949" stroke-linecap="round" stroke-linejoin="round" stroke-width="2"/>
      <path d="m263.734 309.168 11.398-5.856Z" fill="#dfdfdf"/>
      <path d="m263.734 309.168 11.398-5.856" stroke="#494949" stroke-linecap="round" stroke-linejoin="round" stroke-width="2"/>
      <path d="M273.658 323.015s20.101-5.02 16.368-18.577c6.101 2.453 5.316 10.407 3.896 14.555s-7.243 6.029-7.243 6.029l-13.976 7.893.709-8.96z" fill="#288A69" fill-opacity=".04"/>
      <path d="M252.056 348.639c-.688 1.39-1.686 2.233-2.694 2.742-1.699.855-3.69-.481-3.611-2.381.071-1.741-.928-4.864-.707-7.761.134-1.75.287-3.683.481-5.762" fill="#fff"/>
      <path d="M252.056 348.639c-.688 1.39-1.686 2.233-2.694 2.742-1.699.855-3.69-.481-3.611-2.381.071-1.741-.928-4.864-.707-7.761.134-1.75.287-3.683.481-5.762" stroke="#494949" stroke-linecap="round" stroke-linejoin="round" stroke-width="2"/>
      <path d="M245.523 335.479c1.253-13.446 12.829-19.975 18.099-22.547Z" fill="#fff"/>
      <path d="M245.523 335.479c1.253-13.446 12.829-19.975 18.099-22.547" stroke="#494949" stroke-linecap="round" stroke-linejoin="round" stroke-width="2"/>
      <path d="M250.875 336.587c.341-1.363-.951 3.438-.907 6.897.032 2.476.208 4.756.23 5.786.041 1.902 2.114 3.11 3.754 2.147.188-.109.678-.382 1.077-.758a2.3 2.3 0 0 0 .358-.411" fill="#fff"/>
      <path d="M250.875 336.587c.341-1.363-.951 3.438-.907 6.897.032 2.476.208 4.756.23 5.786.041 1.902 2.114 3.11 3.754 2.147.188-.109.678-.382 1.077-.758a2.3 2.3 0 0 0 .358-.411" stroke="#494949" stroke-linecap="round" stroke-linejoin="round" stroke-width="2"/>
      <path d="M256.603 337.433c-.261 3.605-.574 6.55-.819 8.581-.229 1.888 1.651 3.378 3.412 2.658 1.7-.694 3.444-2.274 4.012-5.754l.099-7.078" fill="#fff"/>
      <path d="M256.603 337.433c-.261 3.605-.574 6.55-.819 8.581-.229 1.888 1.651 3.378 3.412 2.658 1.7-.694 3.444-2.274 4.012-5.754l.099-7.078" stroke="#494949" stroke-linecap="round" stroke-linejoin="round" stroke-width="2"/>
      <path d="M263.311 335.842s3.231-4.14 2.565-8.988l5.715-2.914" stroke="#494949" stroke-linecap="round" stroke-linejoin="round" stroke-width="2"/>
      <path d="m266.141 327.335 3.748-2.523s-2.003-1.985-2.821-4.333c-1.967-.598-6.665 4.809-6.665 4.809.938.467 3.216 2.427 5.738 2.047" fill="#f7f7f7"/>
      <path d="m266.141 327.335 3.748-2.523s-2.003-1.985-2.821-4.333c-1.967-.598-6.665 4.809-6.665 4.809.938.467 3.216 2.427 5.738 2.047" stroke="#494949" stroke-linecap="round" stroke-linejoin="round" stroke-width="2"/>
      <path d="m256.451 320.967-.723-1a2.104 2.104 0 0 1 .467-2.94l.896-.65 1.926-1.398 1.565-1.135a1.693 1.693 0 0 1 2.365.376l3.8 5.242a1.693 1.693 0 0 1-.376 2.365l-1.562 1.134-.915.663-1.909 1.384a2.105 2.105 0 0 1-2.942-.467l-.867-1.197" fill="#dfdfdf"/>
      <path d="m256.451 320.967-.723-1a2.104 2.104 0 0 1 .467-2.94l.896-.65 1.926-1.398 1.565-1.135a1.693 1.693 0 0 1 2.365.376l3.8 5.242a1.693 1.693 0 0 1-.376 2.365l-1.562 1.134-.915.663-1.909 1.384a2.105 2.105 0 0 1-2.942-.467l-.867-1.197" stroke="#494949" stroke-linecap="round" stroke-linejoin="round" stroke-width="2"/>
      <g fill="#f6f6f6" opacity=".31">
        <path d="m256.583 315.75 9.907 5.608-2.822-7.061-1.697-.959z"/>
        <path d="m256.329 322.391 5.113 2.894 2.521-1.774-8.635-4.886z"/>
      </g>
      <path d="m256.451 320.967-.723-1a2.104 2.104 0 0 1 .467-2.94l.896-.65 1.926-1.398 1.565-1.135a1.693 1.693 0 0 1 2.365.376l3.8 5.242a1.693 1.693 0 0 1-.376 2.365l-1.562 1.134-.915.663-1.909 1.384a2.105 2.105 0 0 1-2.942-.467l-.867-1.197" stroke="#494949" stroke-linecap="round" stroke-linejoin="round" stroke-width="2"/>
      <path d="M217.834 315.2c-2.609-2.358-6.636 13.458-8.824 15.938-6.193-1.631-14.247-5.873-14.247-5.873l-6.654 10.633 18.558 7.722 8.893-17.589 1.408-4.146.624-4.719c-.664-.921 1.019-1.263.242-1.966" fill="#288A69" fill-opacity=".04"/>
      <path d="M215.592 356.461c-1.487 8.73-24.108-25.955-24.108-25.955 6.72-10.731 2.826-17.826 2.826-17.826l11.171 5.84" fill="#fff"/>
      <path d="M215.592 356.461c-1.487 8.73-24.108-25.955-24.108-25.955 6.72-10.731 2.826-17.826 2.826-17.826l11.171 5.84" stroke="#494949" stroke-linecap="round" stroke-linejoin="round" stroke-width="2"/>
      <path d="M191.902 312.21s2.306-.938 3.443 2.051c2.237 5.88-2.933 16.494-2.933 16.494l-4.308 4.925-10.174-13.198 8.203-9.19" fill="#dfdfdf"/>
      <path d="M191.902 312.21s2.306-.938 3.443 2.051c2.237 5.88-2.933 16.494-2.933 16.494l-4.308 4.925-10.174-13.198 8.203-9.19" stroke="#494949" stroke-linecap="round" stroke-linejoin="round" stroke-width="2"/>
      <path d="m186.625 344.067-3.859-28.875 1.37-3.895 5.586 5.762 3.563 1.326" fill="#fff"/>
      <path d="m186.625 344.067-3.859-28.875 1.37-3.895 5.586 5.762 3.563 1.326" stroke="#494949" stroke-linecap="round" stroke-linejoin="round" stroke-width="2"/>
      <path d="m202.812 317.172 4.323 2.124Z" fill="#dfdfdf"/>
      <path d="m202.812 317.172 4.323 2.124" stroke="#494949" stroke-linecap="round" stroke-linejoin="round" stroke-width="2"/>
      <path d="M210.006 340.906c-1.229 4.2.801 1.162-.998 5.416l10.073 4.854" fill="#f6f6f6"/>
      <path d="M210.006 340.906c-1.229 4.2.801 1.162-.998 5.416l10.073 4.854" stroke="#494949" stroke-linecap="round" stroke-linejoin="round" stroke-width="2"/>
      <path d="M203.24 366.399c-1 1.101-1.967 1.726-2.568 1.701-9.395-2.843 5.03-34.313 11.798-29.165 2.603 4.269-.875 12.07-4.548 19.324" fill="#dfdfdf"/>
      <path d="M203.24 366.399c-1 1.101-1.967 1.726-2.568 1.701-9.395-2.843 5.03-34.313 11.798-29.165 2.603 4.269-.875 12.07-4.548 19.324" stroke="#494949" stroke-linecap="round" stroke-linejoin="round" stroke-width="2"/>
      <path d="m203.39 342.43 12.731 5.709 16.317 4.665-5.976 18.136-15.49-6.423L199 360.189" fill="#fff"/>
      <path d="m203.39 342.43 12.731 5.709 16.317 4.665-5.976 18.136-15.49-6.423L199 360.189" stroke="#494949" stroke-linecap="round" stroke-linejoin="round" stroke-width="2"/>
      <path d="M208.227 345.102s-6.566 10.156-3.615 17.595c-8.473-4.406-17.987-2.002-17.987-2.002l7.266-19.222 9.241-.864z" fill="#f6f6f6"/>
      <path d="m203.39 342.43 12.731 5.709 16.317 4.665-5.976 18.136-15.49-6.423L199 360.189" stroke="#494949" stroke-linecap="round" stroke-linejoin="round" stroke-width="2"/>
      <path d="M212.445 338.921c-2.09-1.21-9.788-2.779-19.55-6.856l-19.085-7.799c-15.557 2.136-21.52 22.749-3.353 31.537 7.84 3.792 30.208 12.301 30.208 12.301-2.024-3.168-3.235-21.49 9.478-27.215" fill="#ebebeb"/>
      <path d="M212.445 338.921c-2.09-1.21-9.788-2.779-19.55-6.856l-19.085-7.799c-15.557 2.136-21.52 22.749-3.353 31.537 7.84 3.792 30.208 12.301 30.208 12.301-2.024-3.168-3.235-21.49 9.478-27.215" stroke="#494949" stroke-linecap="round" stroke-linejoin="round" stroke-width="2"/>
      <path d="M160.772 333.578s-.074 10.232 7.351 14.157c5.177 2.737 30.875 12.457 30.875 12.457l1.205 7.378s-11.706-1.941-24.916-8.697c-13.983-7.152-17.084-17.295-17.084-17.295z" fill="#288A69" fill-opacity=".04"/>
      <path d="M231.615 360.562c-.724-.21 1.841-12.394 1.17-12.662-7.121-2.861-13.502-1.678-15.432-.475 3.334 3.745-2.076 6.92-6.715 9.565" fill="#e4e4e4"/>
      <path d="M231.615 360.562c-.724-.21 1.841-12.394 1.17-12.662-7.121-2.861-13.502-1.678-15.432-.475 3.334 3.745-2.076 6.92-6.715 9.565" stroke="#494949" stroke-linecap="round" stroke-linejoin="round" stroke-width="2"/>
      <path d="M213.835 363.762c-2.127-1.123-4.388 1.7-7.328-.766-2.704-2.267-.034-9.268 5.765-7.206 1.3.462 2.634.732 4.193 1.119" fill="#fff"/>
      <path d="M213.835 363.762c-2.127-1.123-4.388 1.7-7.328-.766-2.704-2.267-.034-9.268 5.765-7.206 1.3.462 2.634.732 4.193 1.119" stroke="#494949" stroke-linecap="round" stroke-linejoin="round" stroke-width="2"/>
      <path d="M219.443 359.722c-6.974-.363-12.824 3.293-14.889 10.841-2.205 8.064 2.432 16.776 8.936 17.445 4.366.449 9.969-5.644 12.569-8.471 0 0 6.429-13.653 9.617-25.045" fill="#fff"/>
      <path d="M219.443 359.722c-6.974-.363-12.824 3.293-14.889 10.841-2.205 8.064 2.432 16.776 8.936 17.445 4.366.449 9.969-5.644 12.569-8.471 0 0 6.429-13.653 9.617-25.045" stroke="#494949" stroke-linecap="round" stroke-linejoin="round" stroke-width="2"/>
      <path d="M207.952 376.538c1.403-7.049 7.73-11.472 13.185-14.692a4.53 4.53 0 0 0 1.875-2.205c2.73-6.675 3.63-8.475 7.448-11.56 0 0 .103-.067.285-.159 1.144-.578 1.94-.067 3.115.448 1.46.639 2.82 2.1 2.82 2.1s-4.511-.539-4.145 6.137c-.776 9.488-5.948 13.922-7.451 15.179" fill="#fff"/>
      <path d="M207.952 376.538c1.403-7.049 7.73-11.472 13.185-14.692a4.53 4.53 0 0 0 1.875-2.205c2.73-6.675 3.63-8.475 7.448-11.56 0 0 .103-.067.285-.159 1.144-.578 1.94-.067 3.115.448 1.46.639 2.82 2.1 2.82 2.1s-4.511-.539-4.145 6.137c-.776 9.488-5.948 13.922-7.451 15.179" stroke="#494949" stroke-linecap="round" stroke-linejoin="round" stroke-width="2"/>
      <path d="M210.752 384.442c-.827-6.083 4.24-13.057 13.685-19.021.436-.31.843-.658 1.213-1.041.846-.872 1.416-1.974 1.813-3.122 2.192-6.329 4.472-11.084 8.157-11.12 3.565.458 5.332 8.088-.702 18.736-2.623 5.177-7.762 13.519-13.038 17.369-1.52 1.108-6.304 2.785-8.386 1.777-1.272-.615-2.424-1.752-2.742-3.578" fill="#ebebeb"/>
      <path d="M210.752 384.442c-.827-6.083 4.24-13.057 13.685-19.021.436-.31.843-.658 1.213-1.041.846-.872 1.416-1.974 1.813-3.122 2.192-6.329 4.472-11.084 8.157-11.12 3.565.458 5.332 8.088-.702 18.736-2.623 5.177-7.762 13.519-13.038 17.369-1.52 1.108-6.304 2.785-8.386 1.777-1.272-.615-2.424-1.752-2.742-3.578" stroke="#494949" stroke-linecap="round" stroke-linejoin="round" stroke-width="2"/>
      <path d="M221.766 347.039c.112 1.156.561 2.858 2.672 3.537" stroke="#494949" stroke-linecap="round" stroke-linejoin="round" stroke-width="2"/>
      <path d="M189.163 320.173a13.8 13.8 0 0 0-1.383-4.764c-.404-.806-.978-1.506-1.525-2.223-1.359-1.781-2.895-6.842-3.338-10.366-.494-3.942-5.06-2.224-6.502-.381-1.443 1.845-1.578 5.573-1.578 5.573l5.108 18.375 8.002 3.158" fill="#fff"/>
      <path d="M189.163 320.173a13.8 13.8 0 0 0-1.383-4.764c-.404-.806-.978-1.506-1.525-2.223-1.359-1.781-2.895-6.842-3.338-10.366-.494-3.942-5.06-2.224-6.502-.381-1.443 1.845-1.578 5.573-1.578 5.573l5.108 18.375 8.002 3.158" stroke="#494949" stroke-linecap="round" stroke-linejoin="round" stroke-width="2"/>
      <path d="m177.167 327.683 6.312 2.556c3.592.811 6.109-2.379 5.635-3.895l-7.6-24.317a4.49 4.49 0 0 0-2.6-2.822l-8.886-3.427c-2.796-1.13-5.482 2.462-5.009 3.978l7.601 24.317c.4 1.283 3.302 3.106 4.547 3.61" fill="#ebebeb"/>
      <path d="m177.167 327.683 6.312 2.556c3.592.811 6.109-2.379 5.635-3.895l-7.6-24.317a4.49 4.49 0 0 0-2.6-2.822l-8.886-3.427c-2.796-1.13-5.482 2.462-5.009 3.978l7.601 24.317c.4 1.283 3.302 3.106 4.547 3.61" stroke="#494949" stroke-linecap="round" stroke-linejoin="round" stroke-width="2"/>
      <path d="m184.194 326.179-6.577-21.585a4.49 4.49 0 0 0-2.6-2.822l-3.165-1.28" fill="#ebebeb"/>
      <path d="m184.194 326.179-6.577-21.585a4.49 4.49 0 0 0-2.6-2.822l-3.165-1.28" stroke="#494949" stroke-linecap="round" stroke-linejoin="round" stroke-width="2"/>
      <path d="M176.555 325.107c.904 1.483.361 3.957-1.376 3.965-2.643.014-7.925-2.979-8.873-6.487-.977-3.617 5.178-.572 5.178-.572s3.753.935 5.071 3.094" fill="#fff"/>
      <path d="M176.555 325.107c.904 1.483.361 3.957-1.376 3.965-2.643.014-7.925-2.979-8.873-6.487-.977-3.617 5.178-.572 5.178-.572s3.753.935 5.071 3.094" stroke="#494949" stroke-linecap="round" stroke-linejoin="round" stroke-width="2"/>
      <path d="M175.81 319.028c.278.529.439 1.184.428 2.011-.034 2.554-1.827 4.039-2.905 3.761-3.262-.838-9.135-2.078-9.743-6.456-.258-2.942 1.995-5.745 4.538-5.076.659.173 1.312 2.141 1.974 2.555.639.389 1.474.644 2.321.932" fill="#fff"/>
      <path d="M175.81 319.028c.278.529.439 1.184.428 2.011-.034 2.554-1.827 4.039-2.905 3.761-3.262-.838-9.135-2.078-9.743-6.456-.258-2.942 1.995-5.745 4.538-5.076.659.173 1.312 2.141 1.974 2.555.639.389 1.474.644 2.321.932" stroke="#494949" stroke-linecap="round" stroke-linejoin="round" stroke-width="2"/>
      <path d="M174.91 314.361c.096 2.553-1.619 4.124-2.71 3.903-3.301-.672-9.23-1.612-10.059-5.954-.408-2.926 1.7-5.839 4.274-5.3.666.139 1.418 2.072 2.101 2.451 2.131 1.152 6.241.811 6.394 4.9" fill="#fff"/>
      <path d="M174.91 314.361c.096 2.553-1.619 4.124-2.71 3.903-3.301-.672-9.23-1.612-10.059-5.954-.408-2.926 1.7-5.839 4.274-5.3.666.139 1.418 2.072 2.101 2.451 2.131 1.152 6.241.811 6.394 4.9" stroke="#494949" stroke-linecap="round" stroke-linejoin="round" stroke-width="2"/>
    </g>
  </g>
  <defs>
    <clipPath id="clip0_4038_156070">
      <path d="M0 0h778v475H0z" fill="#fff"/>
    </clipPath>
  </defs>
</svg>