<?xml version="1.0" encoding="UTF-8"?>
<svg id="Layer_2" data-name="Layer 2" xmlns="http://www.w3.org/2000/svg" viewBox="0 0 1707.04 506.83">
  <defs>
    <style>
      .cls-1 {
        letter-spacing: -.08em;
      }

      .cls-2 {
        font-family: LTRenovate-Bold, 'LT Renovate';
        font-size: 365.11px;
        font-weight: 700;
      }

      .cls-2, .cls-3 {
        fill: #0d4969;
      }

      .cls-4 {
        letter-spacing: 0em;
      }

      .cls-5 {
        fill: #4bbb86;
        stroke: #4bbb86;
        stroke-miterlimit: 10;
        stroke-width: 2px;
      }

      .cls-3 {
        font-family: LTRenovate-Medium, 'LT Renovate';
        font-size: 85px;
        font-weight: 500;
        letter-spacing: .35em;
      }
    </style>
  </defs>
  <g id="Layer_1-2" data-name="Layer 1">
    <g>
      <text class="cls-3" transform="translate(961.15 462.66)"><tspan x="0" y="0">INSURANCE</tspan></text>
      <text class="cls-2" transform="translate(627.06 334.49)"><tspan class="cls-1" x="0" y="0">W</tspan><tspan class="cls-4" x="349.41" y="0">ASS</tspan></text>
    </g>
    <g>
      <g id="_Radial_Repeat_" data-name="&amp;lt;Radial Repeat&amp;gt;">
        <g>
          <path class="cls-5" d="m183.93,497.43l55.05-170.99,7.43-23.06,4.25,23.83h0s3.5,19.57,3.5,19.57l3.24-19.61,3.95-23.9,7.72,22.97,57.26,170.27c-3.65,1-7.35,1.91-11.07,2.74l-50.13-149.11-4.99,30.13-5.55,33.57-5.98-33.5h0s-5.38-30.07-5.38-30.07l-48.2,149.74c-3.73-.78-7.44-1.65-11.1-2.6Z"/>
          <path class="cls-5" d="m254.59,413.85l5.55-33.57,22.22,124.37c-3.76.39-7.56.7-11.38.93l-16.39-91.73Z"/>
          <path class="cls-5" d="m228,505l20.61-124.65,5.98,33.5-15.2,91.93c-3.82-.18-7.62-.44-11.39-.78Z"/>
        </g>
      </g>
      <g id="_Radial_Repeat_-2" data-name="&amp;lt;Radial Repeat&amp;gt;">
        <g>
          <path class="cls-5" d="m43.7,395.71l152.08-95.6,20.51-12.89-12.06,20.99h0s-9.9,17.24-9.9,17.24l15.09-12.93,18.39-15.77-8.85,22.56-65.59,167.23c-3.44-1.58-6.86-3.26-10.24-5.01l57.44-146.45-23.19,19.88-25.83,22.15,16.95-29.5h0s15.2-26.49,15.2-26.49l-133.18,83.72c-2.35-2.99-4.64-6.04-6.83-9.13Z"/>
          <path class="cls-5" d="m151.55,377.1l25.83-22.15-62.92,109.56c-3.13-2.12-6.24-4.32-9.32-6.6l46.41-80.8Z"/>
          <path class="cls-5" d="m72.59,429.83l95.91-82.23-16.95,29.5-70.74,60.65c-2.81-2.59-5.55-5.24-8.22-7.92Z"/>
        </g>
      </g>
      <g id="_Radial_Repeat_-3" data-name="&amp;lt;Radial Repeat&amp;gt;">
        <g>
          <path class="cls-5" d="m1.66,227.64l177.95,24.52,23.99,3.31-22.73,8.33h-.01s-18.66,6.84-18.66,6.84l19.87-.21,24.22-.27-21.28,11.59L27.29,367.71c-1.62-3.42-3.16-6.9-4.62-10.42l138.14-75.26-30.54.32-34.02.37,31.95-11.7h.01s28.67-10.52,28.67-10.52L1.03,239.03c.12-3.81.33-7.61.63-11.38Z"/>
          <path class="cls-5" d="m96.24,282.72l34.02-.37-118.62,43.48c-1.04-3.64-2.01-7.32-2.89-11.04l87.49-32.07Z"/>
          <path class="cls-5" d="m1.86,272.35l126.33-1.34-31.95,11.7-93.18.99c-.49-3.79-.89-7.58-1.21-11.35Z"/>
        </g>
      </g>
      <g id="_Radial_Repeat_-4" data-name="&amp;lt;Radial Repeat&amp;gt;">
        <g>
          <path class="cls-5" d="m77.49,71.87l120.56,133.17,16.25,17.96-22.76-8.23h0s-18.69-6.76-18.69-6.76l15.36,12.61,18.73,15.37-23.75-4.79L7.09,195.65c.96-3.66,2.02-7.32,3.16-10.96l154.2,31.14-23.6-19.39-26.3-21.59,32,11.57h0s28.72,10.38,28.72,10.38l-105.58-116.62c2.54-2.84,5.15-5.62,7.8-8.31Z"/>
          <path class="cls-5" d="m114.54,174.86l26.3,21.59-118.82-42.94c1.55-3.45,3.17-6.9,4.88-10.32l87.64,31.67Z"/>
          <path class="cls-5" d="m48.9,106.25l97.64,80.18-32-11.57-72.02-59.13c2.07-3.22,4.2-6.38,6.37-9.47Z"/>
        </g>
      </g>
      <g id="_Radial_Repeat_-5" data-name="&amp;lt;Radial Repeat&amp;gt;">
        <g>
          <path class="cls-5" d="m235.7,1.29l6.75,179.51.91,24.21-12.15-20.94h0s-9.98-17.2-9.98-17.2l3.66,19.53,4.47,23.81-15.11-18.94L102.21,50.86c3.09-2.19,6.25-4.31,9.46-6.36l98.11,122.97-5.62-30.02-6.27-33.44,17.07,29.43h0s15.33,26.41,15.33,26.41L224.38,2.65c3.77-.54,7.55-1,11.32-1.35Z"/>
          <path class="cls-5" d="m197.89,104l6.27,33.44-63.42-109.27c3.4-1.65,6.86-3.25,10.37-4.77l46.77,80.59Z"/>
          <path class="cls-5" d="m191.71,9.25l23.26,124.18-17.07-29.43-17.16-91.59c3.65-1.14,7.31-2.19,10.97-3.16Z"/>
        </g>
      </g>
      <g id="_Radial_Repeat_-6" data-name="&amp;lt;Radial Repeat&amp;gt;">
        <g>
          <path class="cls-5" d="m402.27,48.92l-110.21,141.85-14.86,19.12,4.15-23.85h0s3.41-19.59,3.41-19.59l-9.75,17.31-11.88,21.11.6-24.22L268.15,1.08c3.77.31,7.56.71,11.34,1.21l-3.89,157.26,14.99-26.61,16.69-29.65-5.84,33.52h0s-5.23,30.09-5.23,30.09l96.51-124.22c3.24,2.01,6.42,4.09,9.54,6.24Z"/>
          <path class="cls-5" d="m307.29,103.29l-16.69,29.65,21.66-124.47c3.67.92,7.35,1.93,11.01,3.02l-15.97,91.8Z"/>
          <path class="cls-5" d="m363.45,26.74l-62,110.08,5.84-33.52,45.73-81.19c3.53,1.48,7.01,3.02,10.44,4.63Z"/>
        </g>
      </g>
      <g id="_Radial_Repeat_-7" data-name="&amp;lt;Radial Repeat&amp;gt;">
        <g>
          <path class="cls-5" d="m499.26,192.48l-175.61,37.82-23.68,5.1,18.51-15.6h0s15.19-12.81,15.19-12.81l-18.6,6.99-22.67,8.53,16.03-18.17,118.83-134.72c2.69,2.66,5.33,5.41,7.91,8.21l-104.06,117.97,28.59-10.75,31.85-11.98-26.02,21.93h0s-23.34,19.69-23.34,19.69l153.78-33.13c1.19,3.62,2.29,7.26,3.3,10.91Z"/>
          <path class="cls-5" d="m391.54,173.07l-31.85,11.98,96.6-81.43c2.22,3.07,4.39,6.2,6.5,9.39l-71.25,60.06Z"/>
          <path class="cls-5" d="m483.78,150.53l-118.25,44.47,26.02-21.93,87.22-32.8c1.76,3.4,3.43,6.82,5.02,10.26Z"/>
        </g>
      </g>
      <g id="_Radial_Repeat_-8" data-name="&amp;lt;Radial Repeat&amp;gt;">
        <g>
          <path class="cls-5" d="m481.27,364.78l-158.83-83.91-21.42-11.32,24.2-.05h.01s19.87-.04,19.87-.04l-18.74-6.6-22.85-8.04,23.96-3.62,177.62-26.82c.35,3.77.61,7.57.78,11.38l-155.55,23.48,28.81,10.15,32.1,11.29-34.03.07h-.01s-30.53.07-30.53.07l139.1,73.47c-1.42,3.54-2.91,7.04-4.49,10.48Z"/>
          <path class="cls-5" d="m411.23,280.68l-32.1-11.29,126.34-.29c-.27,3.77-.62,7.57-1.06,11.37l-93.18.21Z"/>
          <path class="cls-5" d="m496.38,322.7l-119.17-41.95,34.03-.07,87.9,30.94c-.84,3.73-1.76,7.43-2.75,11.08Z"/>
        </g>
      </g>
      <g id="_Radial_Repeat_-9" data-name="&amp;lt;Radial Repeat&amp;gt;">
        <g>
          <path class="cls-5" d="m356.74,485.22l-67.74-166.37-9.13-22.44,18.57,15.52h0s15.25,12.75,15.25,12.75l-10.12-17.1-12.34-20.85,20.68,12.63,153.31,93.63c-2.16,3.11-4.4,6.19-6.72,9.22l-134.25-82,15.55,26.29,17.33,29.28-26.11-21.82h0s-23.44-19.58-23.44-19.58l59.33,145.69c-3.36,1.8-6.76,3.52-10.18,5.14Z"/>
          <path class="cls-5" d="m357.15,375.78l-17.33-29.28,96.97,80.99c-2.63,2.72-5.34,5.4-8.12,8.03l-71.52-59.74Z"/>
          <path class="cls-5" d="m395.37,462.69l-64.33-108.74,26.11,21.82,47.45,80.2c-3.04,2.32-6.12,4.56-9.23,6.72Z"/>
        </g>
      </g>
    </g>
  </g>
</svg>