<?xml version="1.0" encoding="UTF-8"?>
<svg id="Layer_2" data-name="Layer 2" xmlns="http://www.w3.org/2000/svg" viewBox="0 0 1687.38 521.81">
  <defs>
    <style>
      .cls-1 {
        letter-spacing: -.08em;
      }

      .cls-2 {
        font-family: LTRenovate-Bold, 'LT Renovate';
        font-size: 365.11px;
        font-weight: 700;
      }

      .cls-2, .cls-3 {
        fill: #0d4969;
      }

      .cls-4 {
        letter-spacing: 0em;
      }

      .cls-5 {
        fill: #4bbb86;
      }

      .cls-3 {
        font-family: LTRenovate-Medium, 'LT Renovate';
        font-size: 85px;
        font-weight: 500;
        letter-spacing: .35em;
      }
    </style>
  </defs>
  <g id="Layer_1-2" data-name="Layer 1">
    <g>
      <text class="cls-3" transform="translate(941.5 473.93)"><tspan x="0" y="0">INSURANCE</tspan></text>
      <text class="cls-2" transform="translate(607.41 345.77)"><tspan class="cls-1" x="0" y="0">W</tspan><tspan class="cls-4" x="349.41" y="0">ASS</tspan></text>
    </g>
    <g>
      <g>
        <g>
          <path class="cls-5" d="m362.24,494.61c-3.19,1.6-6.43,3.02-9.79,4.01l-5.09-9.18-26.86-48.77-3.97-29.02,40.62,73.77,5.09,9.18Z"/>
          <path class="cls-5" d="m271.17,515.82c-3.62.04-7.24.13-10.65.13l-16.38-121.42-10.39,25.18-11.12,26.91.6-28.85.56-27.68-58.08,95.68-5.48,9.18c-3.11-1.34-6.47-2.85-9.62-4.4l5.48-8.97h.21l67.91-112.58,10.91-18.15-.43,21.08-.39,18.71,6.99-17.07,7.98-19.62,2.85,20.96,19.06,140.91Z"/>
        </g>
        <g>
          <path class="cls-5" d="m233.74,419.71l-1.94,94.43c-3.54-.52-7.07-.99-10.48-1.51h-.04l1.33-66.01,11.12-26.91Z"/>
          <g>
            <path class="cls-5" d="m57.02,413.1l-5.56,3.06-5.09-9.18,4.27-2.46c2.07,3.02,4.14,5.78,6.38,8.58Z"/>
            <path class="cls-5" d="m204.42,335.54l-7.85,19.14-50.15,121.98-4.01,9.92c-3.19-1.72-6.21-3.45-9.19-5.17l3.97-9.87,42.6-103.91-21.73,16.86-23.24,18.07,14.83-24.58,14.7-24.32-98.18,54.37-9.18,5.09c-2.24-2.8-4.31-5.56-6.38-8.58l9.4-5.09,115.25-63.51,18.37-10.18-10.74,17.72-10,16.56,14.96-11.6,16.56-12.89Z"/>
          </g>
        </g>
        <g>
          <g>
            <path class="cls-5" d="m149.66,377.97l-14.83,24.58-43.68,33.89-8.24,6.42c1.25,1.29,2.5,2.5,3.8,3.79-1.29-1.21-2.59-2.46-3.88-3.71l-.04-.04c-.52-.52-.99-.99-1.47-1.51-.26-.22-.48-.47-.73-.73-1.77-1.72-3.49-3.54-5.17-5.35l8.36-6.38,65.88-50.97Z"/>
            <path class="cls-5" d="m100.81,459.03c2.76,2.29,5.48,4.4,8.32,6.47l-2.59,4.1-8.97-5.26,3.19-5.3h.04Z"/>
            <path class="cls-5" d="m133.23,481.41c2.97,1.72,5.99,3.45,9.19,5.17l-1.94,4.53-9.66-3.84,2.41-5.86Z"/>
            <path class="cls-5" d="m150.61,490.55c3.15,1.55,6.51,3.06,9.62,4.4l-3.23,5.22-8.75-5.43,2.37-4.18Z"/>
            <path class="cls-5" d="m231.8,514.14h.04l-.09,4.61-10.56-.22.13-5.91c3.41.52,6.94.99,10.48,1.51Z"/>
            <path class="cls-5" d="m187.3,505c3.32,1.03,6.86,2.07,10.18,2.89l-2.41,5.65-9.49-4.05,1.72-4.48Z"/>
            <path class="cls-5" d="m271.17,515.82l.6,4.57-10.43,1.42-.82-5.86c3.41,0,7.03-.09,10.65-.13Z"/>
            <path class="cls-5" d="m280.35,514.91c3.58-.17,7.2-.52,10.56-1.08l-.13,6.12-10.56-.22.13-4.83Z"/>
            <path class="cls-5" d="m329.51,506.42l.82,6.08-10.44,1.42-.65-4.83c1.77-.35,3.49-.73,5.22-1.21h.04c1.68-.43,3.41-.95,5-1.47Z"/>
            <path class="cls-5" d="m364.69,499.05l-9.18,5.13-3.06-5.56c3.36-.99,6.6-2.41,9.79-4.01l2.46,4.44Z"/>
            <path class="cls-5" d="m109.18,465.42l-.04.04v.04c-2.85-2.07-5.56-4.18-8.32-6.47l.04-.04v-.04c1.34,1.08,2.67,2.16,4.05,3.23s2.8,2.16,4.27,3.23Z"/>
            <path class="cls-5" d="m158.07,384.48l-43.46,71.79-5.43,9.14-.04.04c-1.47-1.12-2.85-2.2-4.23-3.28s-2.72-2.11-4.05-3.19v-.04h-.04l5.48-9.18,28.54-47.21,23.24-18.07Z"/>
          </g>
          <path class="cls-5" d="m174.73,296.94l-16.34,12.89-104.26,80.72-8.5,6.47c-1.9-2.93-3.84-6.08-5.52-9.05l8.5-6.68,88.87-68.64-27.42,3.79-29.41,4.1,25.7-14.14,24.66-13.58-112.24-1.81-10.78-.22c-.34-3.41-.69-6.99-1.03-10.61l10.74.22,131.86,2.24,20.7.43-18.15,10.18-16.47,9.1,18.63-2.59,20.48-2.8Z"/>
        </g>
        <g>
          <g>
            <path class="cls-5" d="m27.25,362.06l-4.27,2.44-5.09-9.39,5.33-2.84c1.2,3.19,2.61,6.6,4.03,9.79Z"/>
            <path class="cls-5" d="m110.06,316.43l-73.43,40.53-9.4,5.09c-1.38-3.19-2.8-6.6-4.01-9.79l9.4-5.3,48.03-26.43,29.41-4.1Z"/>
          </g>
          <g>
            <path class="cls-5" d="m148.89,241.29l19.4,8.02-20.91,2.8L6.47,271.17c-.09-3.62-.13-7.03-.17-10.61l121.68-16.47-25.74-10.52-27.12-11.08,29.1.56,27.94.56-95.89-57.82-9.18-5.69c1.33-3.36,2.89-6.47,4.4-9.4l8.97,5.22v.22l112.8,67.91,17.94,10.91-21.13-.43-18.63-.39,17.46,7.16Z"/>
            <polygon class="cls-5" points="171.2 234.94 150.11 234.55 150.07 234.51 171.2 234.94"/>
          </g>
        </g>
        <g>
          <path class="cls-5" d="m8.67,226.41c-.26,1.72-.52,3.45-.73,5.26h-.04c.26-1.81.52-3.54.78-5.26Z"/>
          <path class="cls-5" d="m102.23,233.57l-94.3-1.9h-.04c.26-1.81.52-3.54.78-5.26.21-1.72.47-3.45.73-5.26l65.71,1.34,27.12,11.08Z"/>
        </g>
        <g>
          <g>
            <path class="cls-5" d="m178.25,182.48l-15.69-9.49,11.47,14.83,12.8,16.51.09.09-19.62-8.02-121.72-49.97-9.87-3.97c1.68-3.23,3.36-6.42,5.3-9.44l9.7,4.01,103.7,42.6-16.9-21.82-18.15-23.37,25.18,15.22,23.63,14.32-54.16-97.92-5.09-9.4c2.8-2.07,5.6-4.1,8.58-6.17l5.3,9.4,63.51,115.25,10.18,18.33-.09-.09-18.02-10.82-.13-.09Z"/>
            <g>
              <path class="cls-5" d="m63.34,100.46c-.3.35-.6.69-.91,1.08.26-.39.56-.73.86-1.08h.04Z"/>
              <path class="cls-5" d="m137.5,157.81l-71.75-43.38-9.14-5.43v-.04c1.08-1.47,2.16-2.89,3.28-4.31.82-1.03,1.64-2.11,2.54-3.1.26-.39.56-.73.86-1.08h.04l8.93,5.48,47.08,28.5,18.15,23.37Z"/>
            </g>
          </g>
          <path class="cls-5" d="m242.06,6.77l-2.89,142.2-.43,20.87-10.18-18.33-8.8-16.04,2.46,18.37,2.8,20.7-12.85-16.56-80.29-104.13-6.68-8.24c2.93-1.9,6.08-3.79,9.06-5.48l6.47,8.49,68.64,88.65-3.71-27.47-3.88-28.54,14.1,25.57,13.11,23.76,2.46-122.76c3.41-.35,6.99-.73,10.61-1.08Z"/>
        </g>
        <path class="cls-5" d="m205.69,109.81l-40.4-73.56-5.3-9.18c3.19-1.42,6.6-2.8,9.79-4.01l5.09,9.36,26.95,48.85,3.88,28.54Z"/>
        <path class="cls-5" d="m301.11,9.43l-.21,10.56-1.21,55.88-11.17,27.16,1.85-84.51.21-10.56c3.58.26,7.16.78,10.52,1.47Z"/>
        <path class="cls-5" d="m421.13,62.95l-5.43,8.97-29.24,48.38-22.33,17.25,43.46-71.92,5.43-8.97h.04c2.93,1.98,5.6,4.14,8.06,6.3Z"/>
        <g>
          <path class="cls-5" d="m498.96,169.63l-9.36,5.09-49.16,27.16-28.93,3.92,74.04-40.88,9.4-5.09c1.12,2.54,2.24,5.04,3.28,7.72.26.69.47,1.38.73,2.07Z"/>
          <g>
            <path class="cls-5" d="m507.89,324.76l5.39,2.24-3.97,9.92-4.27-1.77c.52-1.77.99-3.49,1.47-5.17.52-1.72.95-3.45,1.38-5.22Z"/>
            <path class="cls-5" d="m495.12,361.8l5,3.06-5.48,9.14-3.97-2.37c1.55-3.36,3.1-6.51,4.44-9.83Z"/>
            <path class="cls-5" d="m519.14,290.53l-.21,10.52-6.12-.13c.47-3.41.99-6.9,1.47-10.52l4.87.13Z"/>
            <path class="cls-5" d="m505.3,263.36l-111.07,14.62,25.48,10.52,26.35,10.87-29.75-.69-26.26-.65,95.9,58.3,9.18,5.48c-1.34,3.32-2.89,6.47-4.44,9.83l-9.19-5.48-112.8-68.56-17.94-10.48,21.13.43,18.37.34-17.16-7.07-19.32-7.63,20.91-2.8,141.12-19.1c.04,3.62.13,7.24.17,10.65l-10.69,1.42Z"/>
          </g>
        </g>
        <path class="cls-5" d="m514.27,290.4c-.47,3.62-.99,7.11-1.47,10.52v.04l-10.78-.26-55.97-1.34-26.35-10.87,94.56,1.9Z"/>
        <g>
          <g>
            <path class="cls-5" d="m486.37,380.04c-1.51,2.98-3.23,5.99-4.96,9.01l-9.92-4.01-103.96-42.99,16.86,21.9,17.25,22.42-24.49-14.92-23.37-14.23,54.16,98.83,5.09,9.18c-2.59,2.03-5.35,4.1-8.32,5.95l-5.13-9.18-63.51-115.47-9.96-18.11,17.51,10.91,16.39,9.87-11.6-15.01-12.63-16.43,18.97,8.11,121.94,49.97,9.7,4.18Z"/>
            <path class="cls-5" d="m465.37,413.11c-1.47,2.03-3.06,4.05-4.66,6.08-.56.69-1.12,1.34-1.64,2.03l-9.19-5.48-48.25-29.36-17.25-22.42,72.01,43.46,8.97,5.69Z"/>
          </g>
          <path class="cls-5" d="m396.99,476.45c-2.89,2.11-5.87,3.97-9.06,5.48l-6.43-8.28-68.64-88.87,3.67,26.86,3.97,29.02-14.14-25.74-13.15-23.84-2.07,112.19-.21,10.56c-3.36.56-6.99.91-10.56,1.08l.22-10.56,2.46-131.85.39-21.08,10.18,18.54,8.8,15.95-2.46-17.89-2.8-20.91,12.89,16.77,80.55,104.3,6.43,8.28Z"/>
        </g>
      </g>
      <g>
        <path class="cls-5" d="m223.22,417.77l-.6,28.85-21.17,51.35-3.97,9.92c-3.32-.82-6.86-1.85-10.18-2.89l4.01-9.7.21-.04,31.69-77.48Z"/>
        <g>
          <path class="cls-5" d="m82.9,442.87l-5.02,3.87-6.44-8.28,3.85-3.08c2.49,2.65,4.95,5.08,7.61,7.49Z"/>
          <path class="cls-5" d="m149.66,377.97l-14.83,24.58-43.68,33.89-8.24,6.42h-.04c-.52-.47-1.04-.95-1.55-1.47-.26-.22-.48-.47-.73-.73-.52-.43-1.03-.95-1.55-1.47-1.25-1.21-2.5-2.46-3.75-3.79l.13-.09,8.36-6.38,65.88-50.97Z"/>
        </g>
        <g>
          <path class="cls-5" d="m158.07,384.48l-43.46,71.79-5.43,9.14-.04.04v.04c-2.85-2.07-5.56-4.18-8.32-6.47l.04-.04v-.04h-.04l5.48-9.18,28.54-47.21,23.24-18.07Z"/>
          <path class="cls-5" d="m106.35,306.39l-25.7,14.14-54.37,7.55-10.65,1.47c-.86-3.28-1.77-6.81-2.67-10.31l10.7-1.42,82.7-11.43Z"/>
        </g>
        <g>
          <path class="cls-5" d="m45.64,397.02l-3.88,3.06-6.47-8.49,4.83-3.62c1.68,2.98,3.62,6.12,5.52,9.05Z"/>
          <g>
            <path class="cls-5" d="m16.51,189.89c-.78,2.41-1.51,4.96-2.11,7.59h-.04c.6-2.63,1.34-5.17,2.16-7.59Z"/>
            <path class="cls-5" d="m3.06,221.02l6.34.13c-.26,1.81-.52,3.54-.73,5.26-.26,1.72-.52,3.45-.78,5.26l-5.04-.09.21-10.56Z"/>
            <path class="cls-5" d="m17.29,187.52c-.26.78-.52,1.55-.78,2.37-.82,2.41-1.55,4.96-2.16,7.59l-5.6-2.2,4.05-9.7,4.48,1.94Z"/>
            <path class="cls-5" d="m104.22,223.05l-29.1-.56-50.79-20.78-9.92-4.23h-.04c.6-2.63,1.34-5.17,2.16-7.59.26-.82.52-1.6.78-2.37l9.66,3.79.04.22,77.22,31.52Z"/>
          </g>
        </g>
        <path class="cls-5" d="m6.47,271.17l-5.04.69-1.42-10.48,6.3-.82c.04,3.58.09,6.99.17,10.61Z"/>
        <g>
          <g>
            <path class="cls-5" d="m144.53,149.66l-25.18-15.22-33.55-43.25-6.47-8.49.04-.04c1.21-1.21,2.41-2.41,3.67-3.66.6-.6,1.25-1.21,1.9-1.85.6-.6,1.25-1.21,1.94-1.85l6.64,8.45,51.01,65.93Z"/>
            <g>
              <path class="cls-5" d="m35.14,130.6l5.87,2.41c-1.94,3.02-3.62,6.21-5.3,9.44l-4.53-1.94,3.97-9.92Z"/>
              <path class="cls-5" d="m27.34,148.07l4.14,2.63c-1.51,2.93-3.06,6.04-4.4,9.4l-5.22-3.06,5.47-8.97Z"/>
              <path class="cls-5" d="m86.88,75.28c-.69.65-1.34,1.25-1.94,1.85-.65.6-1.29,1.25-1.9,1.85-1.25,1.25-2.46,2.46-3.67,3.66l-3.88-5,8.28-6.42,3.1,4.05Z"/>
              <path class="cls-5" d="m57.91,97.19l5.39,3.28c-.3.35-.6.69-.86,1.08-.86.99-1.72,2.03-2.54,3.1-1.12,1.42-2.2,2.85-3.28,4.31l-4.18-2.59,5.48-9.18Z"/>
            </g>
          </g>
          <path class="cls-5" d="m215.89,106.85l-14.1-25.57-8.88-65.67h.04c3.32-.86,6.77-1.77,10.26-2.67l12.68,93.91Z"/>
        </g>
        <path class="cls-5" d="m334.98,17.46l-4.01,9.7-31.95,78,.65-29.28,21.13-51.57,4.01-9.7c1.72.26,3.45.69,5.13,1.16s3.36,1.08,5.04,1.68Z"/>
        <g>
          <g>
            <path class="cls-5" d="m115.04,46.01l2.46,4.48c-2.97,2.07-5.78,4.1-8.58,6.17l-3.02-5.56,9.14-5.09Z"/>
            <path class="cls-5" d="m130.43,35.31l3.84,4.83c-2.97,1.68-6.12,3.58-9.06,5.48l-2.85-3.88,8.06-6.42Z"/>
            <path class="cls-5" d="m166.69,17.72l3.06,5.35c-3.19,1.16-6.6,2.59-9.79,4.01l-2.2-4.27,8.93-5.09Z"/>
            <path class="cls-5" d="m202.57,7.89l.65,5.04c-3.49.91-6.94,1.81-10.26,2.67l-.86-6.3,10.48-1.42Z"/>
            <path class="cls-5" d="m231.59,1.51l10.56.22-.09,5.04c-3.62.34-7.2.73-10.61,1.08l.13-6.34Z"/>
            <path class="cls-5" d="m261.94,6.47c-3.41-.17-7.03-.09-10.61.17l-.73-5.22,10.48-1.42.86,6.47Z"/>
            <path class="cls-5" d="m371.55,31.56l-5.43,8.97-68.13,112.8-10.91,17.94.39-21.13.39-17.76-6.86,16.73-8.02,19.4-2.8-20.91-17.42-130.47-1.42-10.48c3.58-.26,7.2-.35,10.61-.17l1.42,10.48,14.83,111.24,10.31-25.14,11.17-27.16-.65,29.28-.6,27.08,58.08-96.15,5.43-8.97c3.36,1.16,6.51,2.67,9.62,4.44Z"/>
          </g>
          <g>
            <path class="cls-5" d="m504.13,166.74l-5.13,2.85c-.26-.69-.52-1.38-.77-2.03-1.04-2.67-2.16-5.17-3.28-7.72v-.04l4.05-2.2,5.13,9.14Z"/>
            <path class="cls-5" d="m444.59,75.28l6.04,8.54-3.88,2.85c-1.17-1.34-2.41-2.59-3.62-3.79-.6-.6-1.25-1.25-1.9-1.85h-.04c-.6-.65-1.21-1.25-1.81-1.85l5.22-3.88Z"/>
            <path class="cls-5" d="m480.29,122.41l6.47,8.28-4.61,3.62c-1.73-3.19-3.62-6.12-5.52-9.05l3.67-2.85Z"/>
            <path class="cls-5" d="m470.94,105.51l4.66,9.4-4.27,2.24c-1.81-3.02-4.09-5.78-6.17-8.58l5.78-3.06Z"/>
            <path class="cls-5" d="m446.75,86.67v.04l-8.28,6.64-67.13,51.96,15.13-25.01,44.63-34.45,8.24-6.68c.6.6,1.25,1.21,1.85,1.85h.04c.65.65,1.25,1.25,1.9,1.85,1.21,1.21,2.46,2.46,3.62,3.79Z"/>
          </g>
        </g>
        <g>
          <g>
            <path class="cls-5" d="m327.22,8.75l9.7,4.01-1.94,4.7c-1.68-.6-3.36-1.21-5.04-1.68s-3.41-.91-5.13-1.21l2.41-5.82Z"/>
            <path class="cls-5" d="m365.21,21.73l8.97,5.43-2.63,4.4c-3.1-1.77-6.25-3.28-9.62-4.44l3.28-5.39Z"/>
            <path class="cls-5" d="m381.72,30.96l9.48,4.05-2.41,5.86c-2.76-1.77-5.78-3.49-8.97-4.96l1.9-4.96Z"/>
            <path class="cls-5" d="m424.45,57.52l-3.28,5.43h-.04c-2.46-2.16-5.13-4.31-8.06-6.3l2.63-4.61,8.75,5.48Z"/>
            <path class="cls-5" d="m471.32,117.15l-9.18,5.3-115.43,63.73-17.94,9.96,10.91-18.15,9.27-15.35-14.75,11.43-16.17,12.63,7.98-19.62,49.8-121.46,4.01-9.7c3.19,1.47,6.21,3.19,8.97,4.96l-4.01,9.7-42.6,103.91,21.95-16.95,22.33-17.25-15.13,25.01-13.71,22.72,98.35-54.16,9.18-5.3c2.07,2.8,4.36,5.56,6.17,8.58Z"/>
          </g>
          <g>
            <path class="cls-5" d="m522.03,261.12l-6.04.82c-.04-3.41-.13-7.03-.17-10.65l4.83-.65,1.38,10.48Z"/>
            <path class="cls-5" d="m512.76,192.09l1.38,10.48-4.79.65c-.91-3.49-1.77-6.77-2.67-10.31l6.08-.82Z"/>
            <path class="cls-5" d="m520.09,242.02l-4.83-.13c-.35-3.58-.73-6.99-1.08-10.56l6.12.13-.21,10.56Z"/>
            <path class="cls-5" d="m509.33,203.21l-10.65,1.47-83.99,11.47,25.78-14.27,66.18-8.93c.91,3.49,1.81,6.77,2.67,10.26Z"/>
          </g>
        </g>
        <g>
          <path class="cls-5" d="m515.26,241.89l-10.78-.22-131.64-2.41-21.09-.43,18.76-10.39,15.05-8.32-17.33,2.37-20.91,2.85,16.94-13.15,103.87-80.46,8.49-6.47c1.9,2.93,3.79,5.86,5.52,9.05l-8.5,6.47-88.48,68.56,26.34-3.54,28.93-3.92-25.78,14.27-23.02,12.72,122.54,2.46c.35,3.58.73,6.99,1.08,10.56Z"/>
          <path class="cls-5" d="m507.89,324.76c-.43,1.77-.86,3.49-1.38,5.22-.47,1.68-.99,3.41-1.51,5.17l-9.87-3.97-78.82-32.51,29.75.69,51.91,21.43,9.92,3.97Z"/>
        </g>
        <path class="cls-5" d="m442.69,439.63c-1.12,1.21-2.28,2.41-3.49,3.62-1.25,1.21-2.5,2.37-3.84,3.54l-6.47-8.28-51.74-67.05,24.49,14.92,34.62,44.97,6.42,8.28Z"/>
        <g>
          <g>
            <path class="cls-5" d="m396.99,476.45l3.1,4.05-8.28,6.42-3.88-5c3.19-1.51,6.16-3.36,9.06-5.48Z"/>
            <path class="cls-5" d="m413.03,465.24l3.06,5.52-8.97,4.92-2.41-4.48c2.97-1.85,5.73-3.92,8.32-5.95Z"/>
            <path class="cls-5" d="m442.69,439.63l3.88,5-8.11,6.21-3.1-4.05c1.34-1.16,2.59-2.33,3.84-3.54,1.25-1.21,2.37-2.41,3.49-3.62Z"/>
            <path class="cls-5" d="m465.37,413.11l4.18,2.37-5.04,9.01-5.39-3.28c.56-.69,1.08-1.38,1.6-2.03,1.6-2.03,3.19-4.05,4.66-6.08Z"/>
            <path class="cls-5" d="m490.85,381.81l-3.58,9.62-5.87-2.37c1.73-3.02,3.45-6.04,4.96-9.01l4.48,1.77Z"/>
          </g>
          <path class="cls-5" d="m329.51,506.42c-1.64.52-3.32,1.04-5,1.47h-.04c-1.72.47-3.45.86-5.22,1.21h-.04l-1.42-10.43-11.43-83.73,14.14,25.74,7.59,55.32,1.42,10.43Z"/>
        </g>
      </g>
    </g>
  </g>
</svg>