<?xml version="1.0" encoding="UTF-8"?>
<svg id="Layer_2" data-name="Layer 2" xmlns="http://www.w3.org/2000/svg" viewBox="0 0 436.62 133.43">
  <defs>
    <style>
      .cls-1 {
        fill: #0d4969;
      }

      .cls-2 {
        fill: #4bbb86;
      }
    </style>
  </defs>
  <g id="Layer_1-2" data-name="Layer 1">
    <g>
      <g>
        <path class="cls-1" d="m223.9,120.02v13.3h-2.34v-12.71l2.34-.59Z"/>
        <path class="cls-1" d="m234.68,120.02l6.84,9.38v-9.38h2.34v13.3h-2.02l-6.82-9.4v9.4h-2.34v-13.3h2Z"/>
        <path class="cls-1" d="m258.63,125.85c1.59.59,3.72,1.37,3.72,3.86s-1.98,3.72-5.33,3.72c-1.51,0-2.81-.27-4.5-.86l-.25-1.82c1.96.57,3.65.82,4.85.82,2.08,0,2.87-.76,2.87-1.71,0-1.41-1.83-1.81-4.17-2.75-1.36-.55-3.46-1.31-3.46-3.69s1.91-3.51,4.91-3.51c1.38,0,3,.25,4.27.8v1.86c-1.32-.57-2.8-.8-4.04-.8-2.1,0-2.8.66-2.8,1.48,0,1.33,1.87,1.84,3.91,2.6Z"/>
        <path class="cls-1" d="m270.77,120.02h2.34v7.98c0,2.41,1.08,3.57,3.25,3.57s3.23-1.16,3.23-3.57v-7.98h2.34v7.64c0,3.88-1.83,5.78-5.57,5.78s-5.59-1.9-5.59-5.78v-7.64Z"/>
        <path class="cls-1" d="m297.66,127.84l3.95,5.47h-2.78l-3.74-5.3h-2.06v5.3h-2.32v-13.3h5.25c2.91,0,4.61,1.29,4.61,3.99,0,2.15-1.06,3.4-2.91,3.84Zm-1.79-1.6c1.51,0,2.36-.7,2.36-2.18s-.83-2.18-2.27-2.18h-2.93v4.37h2.83Z"/>
        <path class="cls-1" d="m314.69,120h2.32l5.44,13.32h-2.57l-.98-2.58h-6.1l-1,2.58h-2.57l5.46-13.32Zm3.53,8.89l-2.36-6.17-2.4,6.17h4.76Z"/>
        <path class="cls-1" d="m332.63,120.02l6.84,9.38v-9.38h2.34v13.3h-2.02l-6.82-9.4v9.4h-2.34v-13.3h2Z"/>
        <path class="cls-1" d="m360.72,132.94c-.98.32-2.25.49-3.63.49-4.02,0-6.72-2.13-6.72-6.63v-.27c0-4.5,2.74-6.63,6.82-6.63,1.4,0,2.68.15,3.66.47v1.9c-1.02-.36-2.04-.51-3.48-.51-3.14,0-4.67,1.56-4.67,4.81v.17c0,3.27,1.51,4.83,4.59,4.83,1.53,0,2.59-.17,3.66-.53l-.25,1.9Z"/>
        <path class="cls-1" d="m369.32,120.02h8.73l-.47,1.86h-5.91v3.82h6.01l-.47,1.86h-5.54v3.89h6.38l-.47,1.86h-8.25v-13.3Z"/>
        <path class="cls-1" d="m403.07,125.85c1.59.59,3.72,1.37,3.72,3.86s-1.98,3.72-5.33,3.72c-1.51,0-2.81-.27-4.5-.86l-.25-1.82c1.96.57,3.65.82,4.85.82,2.08,0,2.87-.76,2.87-1.71,0-1.41-1.83-1.81-4.17-2.75-1.36-.55-3.46-1.31-3.46-3.69s1.91-3.51,4.91-3.51c1.38,0,3,.25,4.27.8v1.86c-1.32-.57-2.8-.8-4.04-.8-2.1,0-2.8.66-2.8,1.48,0,1.33,1.87,1.84,3.91,2.6Z"/>
        <path class="cls-1" d="m417.27,130.9v2.41h-2.15v-1.69l2.15-.72Z"/>
        <path class="cls-1" d="m436.1,132.94c-.98.32-2.25.49-3.63.49-4.02,0-6.72-2.13-6.72-6.63v-.27c0-4.5,2.74-6.63,6.82-6.63,1.4,0,2.68.15,3.66.47v1.9c-1.02-.36-2.04-.51-3.48-.51-3.14,0-4.67,1.56-4.67,4.81v.17c0,3.27,1.51,4.83,4.59,4.83,1.53,0,2.59-.17,3.66-.53l-.25,1.9Z"/>
      </g>
      <g>
        <path class="cls-1" d="m172.27,30.07l10.93,45.74,10.63-45.74h16.39l10.73,45.74,10.93-45.74h19.31l-20.97,68.8h-17.56l-10.54-41.12-10.73,41.12h-17.46l-20.97-68.8h19.31Z"/>
        <path class="cls-1" d="m273.13,30.07h17.07l27.02,68.8h-19.41l-3.41-9.91h-25.56l-3.41,9.91h-19.41l27.12-68.8Zm16.68,44.85l-8.1-23.85-8.29,23.85h16.39Z"/>
        <path class="cls-1" d="m359.26,58.82c6.83,2.45,17.07,6.67,17.07,19.92s-10.63,20.71-28.68,20.71c-7.9,0-14.92-1.37-23.9-4.42l-1.95-13.45c9.95,2.65,18.34,3.83,24.48,3.83,8.97,0,12.29-2.65,12.29-5.89,0-4.91-8.68-6.38-21.17-11.48-5.27-2.06-15.32-6.18-15.32-18.84s10.44-19.63,27.31-19.63c7.02,0,15.71,1.18,22.53,3.63v14.04c-6.83-2.55-14.34-3.63-20.49-3.63-8.78,0-11.61,2.26-11.61,4.91,0,4.71,8.88,6.38,19.41,10.31Z"/>
        <path class="cls-1" d="m419.55,58.82c6.83,2.45,17.07,6.67,17.07,19.92s-10.63,20.71-28.68,20.71c-7.9,0-14.92-1.37-23.9-4.42l-1.95-13.45c9.95,2.65,18.34,3.83,24.48,3.83,8.97,0,12.29-2.65,12.29-5.89,0-4.91-8.68-6.38-21.17-11.48-5.27-2.06-15.32-6.18-15.32-18.84s10.44-19.63,27.31-19.63c7.02,0,15.71,1.18,22.53,3.63v14.04c-6.83-2.55-14.34-3.63-20.49-3.63-8.78,0-11.61,2.26-11.61,4.91,0,4.71,8.88,6.38,19.41,10.31Z"/>
      </g>
    </g>
    <g>
      <g>
        <path class="cls-2" d="m42.41,95.81c5.49-4.84,10.91-9.63,16.38-14.45l5.37,5.41c5.28,5.31,10.84,10.29,17.23,14.26,2.71,1.68,5.53,3.15,8.73,3.7,4.53.78,7.59-1.4,8.26-5.96.63-4.29-.25-8.41-1.62-12.45-3.01-8.89-8.36-16.28-14.78-22.98-6.13-6.41-12.81-12.18-20.41-16.79-6.97-4.22-14.35-7.41-22.61-7.99-5.57-.39-10.97.34-15.85,3.28-6.54,3.94-9.44,11.08-7.51,18.73,1.59,6.3,5.32,10.74,11.79,12.36,4.18,1.05,8.1-.04,11.79-2.07,4.38-2.41,8.08-5.73,11.84-8.96,4.29-3.68,8.54-7.42,12.78-11.17.59-.52.99-.65,1.65-.1,3.42,2.83,6.88,5.6,10.31,8.41.54.44,1.01.96,1.56,1.48-.15.18-.26.36-.41.46-8.02,5.52-15.96,11.17-24.11,16.5-6.3,4.13-13.07,7.35-20.46,9.17-10.23,2.52-18.64-.24-24.88-8.71C.48,68.47-1.71,57.83,1.35,46.47c2.65-9.83,9.46-15.63,19.32-17.88,7.79-1.77,15.49-.91,23.11,1.08,9.08,2.38,17.2,6.76,24.83,12.11,9.32,6.54,17.64,14.16,24.58,23.21,9.54,12.43,15.32,26.39,16.72,42.05.44,4.92-.03,9.77-1.94,14.4-3.49,8.42-11.22,12.35-20.06,10.16-4.71-1.16-8.95-3.38-12.97-6.01-12.06-7.87-22.53-17.49-31.63-28.63-.24-.29-.46-.61-.88-1.17Z"/>
        <path class="cls-2" d="m128.23,0c.46,2.16.88,4.09,1.29,6.03,1.02,4.75,2.01,9.5,3.07,14.23.22,1-.02,1.54-.88,2.12-8.52,5.79-17.04,11.58-25.5,17.47-6.62,4.61-13.15,9.35-19.72,14.03-.25.18-.52.34-.68.44-4.34-3.8-8.61-7.54-12.91-11.3C90.14,27.33,108.89,13.5,128.23,0Z"/>
      </g>
      <path class="cls-2" d="m58.92,23.52c-4.05-3.95-4.16-10.73-.24-14.7,3.98-4.03,10.68-4.08,14.7-.11,4.23,4.19,4.4,10.76.37,14.9-3.94,4.06-10.61,4.02-14.83-.1Z"/>
    </g>
  </g>
</svg>