<?xml version="1.0" encoding="UTF-8"?>
<svg version="1.1" xmlns="http://www.w3.org/2000/svg" width="400" height="400">
<path d="M0 0 C0.8712149 -0.00067474 1.74242981 -0.00134949 2.64004517 -0.00204468 C15.71573144 0.01404228 28.36479745 0.47988182 41.1875 3.25 C42.41509033 3.49943359 42.41509033 3.49943359 43.66748047 3.75390625 C66.71838952 8.52580232 87.2422647 17.65382385 104.1875 34.25 C104.87344238 34.78165771 105.55938477 35.31331543 106.26611328 35.86108398 C108.95457034 39.20372087 108.89139724 42.39228136 109.015625 46.515625 C109.07372345 47.70572174 109.07372345 47.70572174 109.13299561 48.91986084 C109.2522519 51.44614095 109.3452102 53.97260525 109.4375 56.5 C109.51389171 58.21622386 109.59199711 59.93237236 109.671875 61.6484375 C109.86362269 65.84834384 110.03179916 70.04860914 110.1875 74.25 C111.14084229 74.70673096 112.09418457 75.16346191 113.07641602 75.6340332 C114.34409551 76.25174098 115.61158209 76.86984478 116.87890625 77.48828125 C117.81845154 77.93645203 117.81845154 77.93645203 118.77697754 78.39367676 C129.0132649 83.41973738 135.52764432 91.97411047 140.1875 102.25 C146.85441043 121.88597631 145.7968535 141.75935491 143.875 162.125 C143.69855957 164.04820068 143.69855957 164.04820068 143.51855469 166.01025391 C141.01506563 190.8882762 141.01506563 190.8882762 133.25 199.3125 C132.6737085 199.97531982 132.09741699 200.63813965 131.50366211 201.32104492 C130.3218241 202.67067774 129.12796242 204.00988349 127.921875 205.33789062 C126.30269757 207.12299728 124.72561974 208.93676952 123.15625 210.765625 C116.27391035 218.65022478 108.59439265 225.04432037 100.1875 231.25 C101.24380422 232.87872062 101.24380422 232.87872062 103.1875 234.25 C106.46630858 234.67441264 106.46630858 234.67441264 110.28588867 234.55883789 C111.36454697 234.55467613 111.36454697 234.55467613 112.46499634 234.5504303 C114.8454613 234.53813315 117.22519977 234.50503484 119.60546875 234.47265625 C121.26352501 234.46197672 122.92159246 234.45292108 124.57966614 234.44541931 C128.95138466 234.42260946 133.32278611 234.38357861 137.69433594 234.3394165 C144.67336268 234.26934021 151.65236582 234.21378057 158.63164711 234.17706108 C161.06232364 234.16045108 163.49260541 234.13087677 165.92314148 234.10035706 C167.42947023 234.08988478 168.93580265 234.079925 170.44213867 234.07055664 C171.74769211 234.0570668 173.05324554 234.04357697 174.39836121 234.02967834 C184.55791123 234.62041123 184.55791123 234.62041123 188.125 238.1875 C191.24407145 247.17776477 190.37021122 257.67171129 190.375 267.0625 C190.38724609 268.34576172 190.39949219 269.62902344 190.41210938 270.95117188 C190.41404297 272.19060547 190.41597656 273.43003906 190.41796875 274.70703125 C190.42207764 275.82053955 190.42618652 276.93404785 190.43041992 278.08129883 C190.17206476 281.45134072 189.46652834 284.12757385 188.1875 287.25 C183.29987761 290.91571679 176.2307285 290.39902606 170.38134766 290.39526367 C169.24351082 290.40030159 169.24351082 290.40030159 168.08268738 290.40544128 C165.58896217 290.4148967 163.09530449 290.41689162 160.6015625 290.41796875 C158.85810316 290.42118493 157.11464409 290.42454927 155.3711853 290.42805481 C151.72140884 290.43403243 148.07165601 290.4358961 144.421875 290.43530273 C139.75940079 290.43520115 135.097079 290.44885536 130.43464088 290.46607494 C126.83484204 290.47722658 123.23507969 290.47922098 119.63526535 290.47869301 C117.91698048 290.47986827 116.19869453 290.48426445 114.48042679 290.49202538 C112.07099152 290.50189004 109.66188262 290.49892199 107.25244141 290.49291992 C106.55192154 290.49853943 105.85140167 290.50415894 105.12965393 290.50994873 C99.33087995 290.47348506 93.40401035 290.01184156 88.75 286.3125 C86.41504879 283.2303644 86.06298486 280.70966254 86.07397461 276.9621582 C86.07405014 276.10149246 86.07412567 275.24082672 86.07420349 274.3540802 C86.07936478 273.42899155 86.08452606 272.50390289 86.08984375 271.55078125 C86.09196617 270.12550362 86.09196617 270.12550362 86.09413147 268.6714325 C86.09973125 265.63508971 86.11228368 262.59882052 86.125 259.5625 C86.13001503 257.50455836 86.13457793 255.44661556 86.13867188 253.38867188 C86.1497006 248.34241954 86.16696507 243.29622225 86.1875 238.25 C84.52291748 239.05207886 84.52291748 239.05207886 82.82470703 239.87036133 C75.02642373 243.60228319 67.3096264 247.29113709 59.0625 249.9375 C58.19834473 250.21875732 57.33418945 250.50001465 56.44384766 250.78979492 C3.53440775 267.46086643 -56.48979423 263.37028798 -105.9375 237.8125 C-113.81168171 233.60913072 -120.99311469 229.0418067 -127.8125 223.25 C-128.69035156 222.51007813 -129.56820312 221.77015625 -130.47265625 221.0078125 C-148.39694543 205.38150911 -155.68074913 189.8250888 -157.47265625 166.421875 C-158.13509103 156.04541562 -157.98198855 145.6409517 -157.8125 135.25 C-154.8125 136.25 -154.8125 136.25 -153.12109375 139.390625 C-152.49282326 140.75832544 -151.86944163 142.12827832 -151.25 143.5 C-141.07619093 164.8370372 -124.44435798 177.19575042 -103.22265625 186.70703125 C-100.04281408 188.14579145 -96.92333054 189.66846325 -93.8125 191.25 C-93.8125 195.21 -93.8125 199.17 -93.8125 203.25 C-92.52472656 203.65992188 -92.52472656 203.65992188 -91.2109375 204.078125 C-87.86455625 205.23204957 -84.68425376 206.59231655 -81.4375 208 C-64.0877273 215.12892178 -45.37673838 218.30443681 -26.8125 220.25 C-25.58789062 220.38148438 -24.36328125 220.51296875 -23.1015625 220.6484375 C16.09676293 224.09342097 56.5803515 217.49779608 91.1875 198.25 C92.27289063 197.66347656 93.35828125 197.07695312 94.4765625 196.47265625 C116.6993742 184.0672639 131.64514865 166.35858735 139.1875 142.25 C143.19917531 127.23067903 139.99775698 110.42718118 132.83984375 97.00390625 C128.04031084 89.00468473 121.66670631 83.26830519 113.1875 79.25 C107.59190157 77.94603319 104.67970408 78.45284785 99.609375 81.08203125 C99.00498596 81.38922592 98.40059692 81.69642059 97.77789307 82.01292419 C95.82181509 83.01248624 93.88005581 84.0369441 91.9375 85.0625 C90.58022371 85.76228944 89.2221435 86.46052176 87.86328125 87.15722656 C83.95930866 89.1654696 80.07210269 91.20460957 76.1875 93.25 C75.23037109 93.75128418 74.27324219 94.25256836 73.28710938 94.76904297 C70.17386365 96.39981944 67.06315745 98.03511876 63.95898438 99.68310547 C50.60075214 106.76977082 37.0141351 113.41118631 23.375 119.9375 C21.93858154 120.62634277 21.93858154 120.62634277 20.47314453 121.32910156 C16.09692871 123.41916721 11.7129032 125.47619205 7.27734375 127.4375 C0.23621231 130.57174482 -5.97307941 133.58305719 -11.53125 139.06640625 C-14.36002439 141.77408585 -17.3981272 144.11592292 -20.5 146.5 C-25.39014119 150.28819331 -30.14287013 154.19332871 -34.8125 158.25 C-39.94165507 162.70390822 -45.19268348 166.94625818 -50.5625 171.10546875 C-55.35393334 174.83808088 -59.95206786 178.76474635 -64.53613281 182.74755859 C-69.35957042 186.91597828 -74.32832726 190.87427896 -79.37109375 194.7734375 C-81.62848919 196.52041952 -83.79154621 198.22904621 -85.8125 200.25 C-86.8025 200.25 -87.7925 200.25 -88.8125 200.25 C-89.81906987 195.62723466 -90.00057756 191.85441677 -88.8125 187.25 C-85.40068347 182.82653243 -80.44419718 179.79984797 -75.87744141 176.68212891 C-72.76861635 174.52602016 -69.83002414 172.1725012 -66.875 169.8125 C-65.72167914 168.90843944 -64.56802833 168.00479965 -63.4140625 167.1015625 C-59.48903916 164.00879148 -55.61978783 160.84891051 -51.75 157.6875 C-45.97175528 152.96799128 -40.1145357 148.38471797 -34.1796875 143.86328125 C-29.52161789 140.28069008 -24.9884526 136.54109343 -20.45507812 132.80273438 C-19.82279297 132.28388672 -19.19050781 131.76503906 -18.5390625 131.23046875 C-17.92579102 130.72563965 -17.31251953 130.22081055 -16.68066406 129.70068359 C-14.79538129 128.23670683 -12.84158703 126.96771773 -10.8359375 125.67578125 C-9.83820313 124.87527344 -8.84046875 124.07476562 -7.8125 123.25 C-7.56008716 120.6483474 -7.56008716 120.6483474 -7.8125 118.25 C-8.34915283 118.66137207 -8.88580566 119.07274414 -9.4387207 119.49658203 C-19.00704142 126.82494658 -28.58880705 134.1285387 -38.3125 141.25 C-45.99814364 146.88065008 -53.59287999 152.62262887 -61.16113281 158.40991211 C-67.25767095 163.07106711 -73.37245719 167.70609788 -79.53735352 172.27661133 C-83.78055658 175.43127576 -87.86837449 178.72089244 -91.8203125 182.23828125 C-94.85888626 183.78140008 -96.55769471 183.16662774 -99.8125 182.25 C-102.65108045 181.05101318 -105.35283841 179.65220648 -108.0625 178.1875 C-108.81466797 177.784104 -109.56683594 177.38070801 -110.34179688 176.96508789 C-116.38609539 173.6429363 -121.6554063 169.83612976 -126.8125 165.25 C-127.555 164.64929688 -128.2975 164.04859375 -129.0625 163.4296875 C-144.38101697 150.71744598 -155.04621805 132.07528413 -157.01953125 112.16064453 C-157.9404822 98.05364941 -154.99043959 83.65586982 -145.59472656 72.65283203 C-143.35679499 70.16288114 -141.09892426 67.69543001 -138.8125 65.25 C-139.64149055 65.24120064 -139.64149055 65.24120064 -140.48722839 65.23222351 C-146.24645947 65.16822178 -152.00513526 65.08378484 -157.76391602 64.98754883 C-159.91227898 64.95432254 -162.06072875 64.92628347 -164.20922852 64.90356445 C-167.30001776 64.86997669 -170.39001312 64.81765779 -173.48046875 64.76171875 C-174.43898239 64.75532883 -175.39749603 64.7489389 -176.38505554 64.74235535 C-181.29496133 64.63443598 -184.87240668 64.52653007 -188.8125 61.25 C-192.29950202 55.11030932 -191.58094256 47.15527152 -191.8125 40.25 C-191.85552246 39.01854248 -191.85552246 39.01854248 -191.89941406 37.76220703 C-191.97611983 35.23722783 -192.024432 32.71333636 -192.0625 30.1875 C-192.08393066 29.40294434 -192.10536133 28.61838867 -192.12744141 27.81005859 C-192.15783768 22.54699983 -191.59735347 18.78387729 -188.8125 14.25 C-182.92544983 10.93709426 -177.460157 10.70622905 -170.80078125 10.51953125 C-169.7305069 10.47915741 -168.66023254 10.43878357 -167.55752563 10.39718628 C-164.0803464 10.27078046 -160.60294759 10.16543033 -157.125 10.0625 C-154.73314471 9.98377049 -152.34129903 9.9047487 -149.94946289 9.82543945 C-136.65410918 9.4018614 -123.3531501 9.04339535 -110.0508728 8.95346069 C-108.52562868 8.94288038 -107.00040798 8.92797661 -105.47525024 8.90859985 C-103.38812128 8.88527917 -101.30207481 8.88235168 -99.21484375 8.88671875 C-98.06491943 8.88373779 -96.91499512 8.88075684 -95.73022461 8.87768555 C-92.47618699 9.29291501 -91.09735528 9.92381747 -88.8125 12.25 C-88.0625 15.4375 -88.0625 15.4375 -87.8125 18.25 C-86.90113281 17.81429687 -85.98976563 17.37859375 -85.05078125 16.9296875 C-58.23245842 4.45793395 -29.35201961 0.0204052 0 0 Z M-40.8125 6.25 C-41.60076172 6.41628906 -42.38902344 6.58257812 -43.20117188 6.75390625 C-66.76954593 11.53795719 -66.76954593 11.53795719 -87.8125 22.25 C-88.50052255 24.84752465 -88.50052255 24.84752465 -88.30078125 27.79296875 C-88.28466797 28.86611328 -88.26855469 29.93925781 -88.25195312 31.04492188 C-88.21005859 32.16447266 -88.16816406 33.28402344 -88.125 34.4375 C-88.10244141 35.56865234 -88.07988281 36.69980469 -88.05664062 37.86523438 C-87.99764811 40.66147976 -87.9153824 43.45508097 -87.8125 46.25 C-87.10343506 46.65726318 -86.39437012 47.06452637 -85.66381836 47.48413086 C-82.95125246 49.04305909 -80.23943888 50.60328684 -77.52807617 52.16430664 C-75.81028232 53.15281056 -74.0916791 54.13990755 -72.37304688 55.12695312 C-65.74049773 58.94684532 -59.14879679 62.82620657 -52.5920105 66.77470398 C-47.94832178 69.5711191 -43.29251391 72.34631242 -38.62890625 75.109375 C-37.94936386 75.51217178 -37.26982147 75.91496857 -36.56968689 76.32997131 C-33.8015149 77.97052522 -31.03301943 79.61053042 -28.26391602 81.24951172 C-26.8722216 82.07339481 -25.48088795 82.89788767 -24.0899353 83.72302246 C-22.7592354 84.511404 -21.42709801 85.29736513 -20.09341431 86.08068848 C-16.69991957 88.08283774 -13.43921692 90.19185641 -10.21484375 92.453125 C-7.03553207 94.60696655 -7.03553207 94.60696655 -4.15736389 93.63446045 C0.0312834 91.90075268 4.06292088 89.93953479 8.10766602 87.89550781 C8.98498886 87.45618927 9.86231171 87.01687073 10.76622009 86.5642395 C13.6598071 85.11420699 16.55055931 83.65861143 19.44140625 82.203125 C21.46414535 81.18861698 23.48709281 80.17452429 25.51023865 79.16082764 C30.83834623 76.49012574 36.16421216 73.81498648 41.48944092 71.1385498 C49.98639776 66.86851923 58.48599577 62.60376017 66.98698235 58.34175873 C69.93953411 56.86042142 72.89068084 55.37631404 75.84169006 53.89190674 C85.22061045 49.18163369 94.60811702 44.54272457 104.1875 40.25 C97.4902408 26.06571918 78.44007105 18.21559232 64.52148438 13.0012207 C43.20058315 5.46122862 20.93077431 2.83503582 -1.5625 2.9375 C-2.81374664 2.94023422 -2.81374664 2.94023422 -4.090271 2.94302368 C-16.56165734 2.98884693 -28.60605474 3.49894668 -40.8125 6.25 Z M-153.9375 13.125 C-155.00920441 13.16402435 -156.08090881 13.20304871 -157.18508911 13.24325562 C-160.27229777 13.35843827 -163.35875775 13.48574668 -166.4453125 13.6171875 C-167.81690269 13.66736275 -167.81690269 13.66736275 -169.21620178 13.71855164 C-174.76984496 13.97345892 -180.56717165 14.26362077 -185.8125 16.25 C-189.97401303 21.79868404 -189.16064892 28.46902023 -188.89501953 35.15820312 C-188.83704082 36.62791197 -188.78945905 38.09804994 -188.74951172 39.56835938 C-188.68360384 41.98400518 -188.59531842 44.3978487 -188.5 46.8125 C-188.47776367 47.57409424 -188.45552734 48.33568848 -188.43261719 49.12036133 C-188.21202622 53.58931565 -187.86082362 56.87484581 -184.8125 60.25 C-179.82322766 62.04568152 -175.67024329 62.43468032 -170.39941406 62.17895508 C-168.93931385 62.11612256 -167.47921035 62.05336664 -166.019104 61.99067688 C-165.25515572 61.95379572 -164.49120743 61.91691456 -163.70410919 61.87891579 C-159.61408723 61.69062112 -155.52179092 61.56927332 -151.4296875 61.43554688 C-146.24229812 61.26179647 -141.05775527 61.06885773 -135.87402344 60.80639648 C-131.66501021 60.59504563 -127.45804822 60.44971982 -123.24504852 60.34665489 C-121.65110594 60.29579244 -120.05771748 60.22135885 -118.46607208 60.12183571 C-106.36095309 59.38154986 -106.36095309 59.38154986 -102.04814148 62.54357529 C-98.39624818 66.04943067 -95.61099276 70.05287899 -92.8125 74.25 C-92.1525 74.91 -91.4925 75.57 -90.8125 76.25 C-90.76617611 68.34841497 -90.7306306 60.44688661 -90.70887566 52.54519939 C-90.6984348 48.87619419 -90.6842702 45.20728184 -90.66162109 41.53833008 C-90.63990331 37.99812214 -90.62793364 34.45800356 -90.62274551 30.91773415 C-90.61724727 28.90856095 -90.60163265 26.89942374 -90.58590698 24.89030457 C-90.58575592 23.66926529 -90.58560486 22.44822601 -90.58544922 21.19018555 C-90.581008 20.11318893 -90.57656677 19.03619232 -90.57199097 17.92655945 C-90.61783598 15.02415373 -90.61783598 15.02415373 -92.8125 12.25 C-95.59900446 11.79650024 -95.59900446 11.79650024 -98.94140625 11.88671875 C-99.58263931 11.88540451 -100.22387238 11.88409027 -100.88453674 11.88273621 C-103.04843876 11.88435255 -105.21128159 11.90997446 -107.375 11.9375 C-108.90543507 11.94760039 -110.43587132 11.95752436 -111.96630859 11.96728516 C-125.96284425 12.09485498 -139.95157027 12.5903392 -153.9375 13.125 Z M101.39990234 44.0949707 C100.59238525 44.50036072 99.78486816 44.90575073 98.95288086 45.32342529 C98.06866455 45.76970276 97.18444824 46.21598022 96.2734375 46.67578125 C94.39113258 47.62121356 92.50880758 48.56660588 90.62646484 49.51196289 C89.63652527 50.01003448 88.64658569 50.50810608 87.62664795 51.02127075 C82.52472717 53.58747502 77.41895635 56.14596101 72.3125 58.703125 C71.37659027 59.17313431 70.44068054 59.64314362 69.47640991 60.12739563 C61.22139077 64.26255725 52.89369097 68.23780546 44.546875 72.18359375 C34.90893082 76.79109056 25.36878071 81.6012275 15.8125 86.375 C14.36722931 87.09576218 14.36722931 87.09576218 12.89276123 87.83108521 C10.14869917 89.20018423 7.40611825 90.57220041 4.6640625 91.9453125 C3.82361389 92.36454483 2.98316528 92.78377716 2.11724854 93.2157135 C1.34975281 93.6010173 0.58225708 93.98632111 -0.20849609 94.38330078 C-0.88302826 94.72096466 -1.55756042 95.05862854 -2.25253296 95.40652466 C-3.81083771 96.15310894 -3.81083771 96.15310894 -4.8125 97.25 C-4.90025605 99.39558827 -4.91945219 101.54404421 -4.91015625 103.69140625 C-4.90693359 104.99658203 -4.90371094 106.30175781 -4.90039062 107.64648438 C-4.89203401 109.0351569 -4.88356905 110.42382877 -4.875 111.8125 C-4.86998666 113.20507656 -4.86542347 114.59765481 -4.86132812 115.99023438 C-4.84949434 119.4101987 -4.8330088 122.83007844 -4.8125 126.25 C1.07332262 124.41098975 6.63511761 122.26643819 12.18359375 119.58203125 C13.29083298 119.05445473 13.29083298 119.05445473 14.42044067 118.51622009 C16.82425061 117.36970548 19.22457938 116.21609139 21.625 115.0625 C23.31929814 114.25299038 25.01388282 113.44408023 26.70874023 112.63574219 C29.3118745 111.39418855 31.91484755 110.15231236 34.516922 108.90853882 C42.21197901 105.23130443 49.92945961 101.60300511 57.6519165 97.98376465 C69.3793463 92.48492207 81.08024487 86.93272876 92.75 81.3125 C93.38253693 81.0086438 94.01507385 80.7047876 94.66677856 80.39172363 C96.4260984 79.54600767 98.18379915 78.69692598 99.94140625 77.84765625 C100.93470947 77.36820557 101.9280127 76.88875488 102.95141602 76.39477539 C105.10125331 75.43864118 105.10125331 75.43864118 106.1875 74.25 C106.2758967 71.8743148 106.30280305 69.52791326 106.28515625 67.15234375 C106.2837413 66.44348526 106.28232635 65.73462677 106.28086853 65.00428772 C106.27525443 62.73198288 106.26269963 60.45977525 106.25 58.1875 C106.24498681 56.65039204 106.24042359 55.11328255 106.23632812 53.57617188 C106.22528042 49.80074358 106.20800641 46.02538829 106.1875 42.25 C104.42121419 42.25 102.95319229 43.31259785 101.39990234 44.0949707 Z M-87.8125 49.25 C-88.77152401 54.61787048 -89.5249371 59.96224541 -87.8125 65.25 C-83.97444365 69.25442949 -79.47346951 71.38699414 -74.54296875 73.83886719 C-69.21565517 76.59207467 -64.1362051 79.78449332 -59 82.875 C-56.67356835 84.25509426 -54.34275277 85.62769723 -52.01171875 87 C-47.15354213 89.86395553 -42.3026397 92.73983471 -37.45703125 95.625 C-35.65497831 96.69694083 -33.8528419 97.76874121 -32.0506897 98.84051514 C-30.3692653 99.84121609 -28.6888865 100.84367327 -27.00854492 101.84619141 C-20.35471479 105.7995818 -13.63556039 109.596241 -6.8125 113.25 C-5.8524751 107.87652731 -5.11694038 102.54681793 -6.8125 97.25 C-10.58611348 93.25611415 -15.05186503 91.1665958 -19.93457031 88.73925781 C-25.23592872 85.99593526 -30.32632474 82.87434242 -35.45550537 79.82476807 C-38.62766896 77.94531485 -41.81439549 76.09092108 -45 74.234375 C-52.30879632 69.96804455 -59.57067526 65.62886219 -66.8125 61.25 C-70.43579361 59.05965922 -74.06118955 56.87284177 -77.6875 54.6875 C-78.57574463 54.14955811 -79.46398926 53.61161621 -80.37915039 53.05737305 C-81.61072876 52.31547729 -81.61072876 52.31547729 -82.8671875 51.55859375 C-83.60437012 51.11314209 -84.34155273 50.66769043 -85.10107422 50.20874023 C-86.63095978 49.168544 -86.63095978 49.168544 -87.8125 49.25 Z M140.1875 150.25 C139.76791016 151.37535156 139.76791016 151.37535156 139.33984375 152.5234375 C128.25271759 180.82947662 103.18363245 197.02128085 76.54296875 208.87109375 C26.43462871 229.772189 -34.22981745 230.35011973 -84.8125 210.25 C-87.83003644 208.95424475 -90.8267257 207.61723636 -93.8125 206.25 C-93.69420234 210.75253816 -93.56995066 215.25485779 -93.44018555 219.75708008 C-93.39688167 221.28861018 -93.35520333 222.82018715 -93.31518555 224.35180664 C-93.25737268 226.55369182 -93.19371031 228.75534211 -93.12890625 230.95703125 C-93.11219376 231.64150833 -93.09548126 232.32598541 -93.07826233 233.03120422 C-92.9851445 236.02120104 -92.76562563 238.39062311 -91.8125 241.25 C-89.14372326 242.52569999 -86.58914494 243.57433039 -83.8125 244.5625 C-82.97307861 244.86446289 -82.13365723 245.16642578 -81.26879883 245.47753906 C-28.85270787 263.67194774 29.65425929 261.74519959 79.9375 237.8125 C82.33 236.636875 84.7225 235.46125 87.1875 234.25 C87.5175 227.98 87.8475 221.71 88.1875 215.25 C88.8475 215.25 89.5075 215.25 90.1875 215.25 C90.59742188 216.10464844 91.00734375 216.95929688 91.4296875 217.83984375 C91.96851563 218.94457031 92.50734375 220.04929687 93.0625 221.1875 C93.59617187 222.28964844 94.12984375 223.39179688 94.6796875 224.52734375 C95.90409845 227.34404511 95.90409845 227.34404511 98.1875 228.25 C110.87622746 219.46549637 121.56885296 209.08021646 130.9375 196.8125 C131.43894531 196.16273193 131.94039062 195.51296387 132.45703125 194.84350586 C138.21336028 187.03578312 138.7818314 178.60549728 139.8125 169.1875 C139.9465625 168.02927734 140.080625 166.87105469 140.21875 165.67773438 C140.8017659 160.49900636 141.26033283 155.46725838 141.1875 150.25 C140.8575 150.25 140.5275 150.25 140.1875 150.25 Z M90.1875 223.25 C89.81006028 234.58222606 89.47238816 245.91506076 89.1875 257.25 C89.15591797 258.49974609 89.12433594 259.74949219 89.09179688 261.03710938 C89.02099429 264.21233296 88.97336968 267.38671501 88.9375 270.5625 C88.91623047 271.48426025 88.89496094 272.40602051 88.87304688 273.35571289 C88.84787542 278.08749649 88.88996619 281.54385874 92.1875 285.25 C96.4091402 287.46147142 100.41873893 287.53469288 105.07958984 287.50878906 C106.24887779 287.51404602 106.24887779 287.51404602 107.44178772 287.51940918 C110.01076242 287.52818903 112.57946014 287.52238947 115.1484375 287.515625 C116.94056247 287.516973 118.73268707 287.51891466 120.52481079 287.52142334 C124.27894577 287.52436976 128.03298548 287.52009347 131.78710938 287.51074219 C136.58760885 287.49936443 141.38788426 287.50589954 146.18837547 287.51788712 C149.88937043 287.52513279 153.59031276 287.52280508 157.29130936 287.51763153 C159.06065523 287.51630167 160.83000595 287.51791942 162.59934616 287.52259064 C165.07856546 287.52769862 167.55742818 287.51988529 170.03662109 287.50878906 C170.76100876 287.51283752 171.48539642 287.51688599 172.23173523 287.52105713 C176.95042607 287.48214783 180.77674267 286.80977059 185.1875 285.25 C187.90452695 282.03701891 187.43116294 278.22950274 187.41796875 274.17578125 C187.41751053 273.49251266 187.41705231 272.80924408 187.4165802 272.10527039 C187.413565 270.66041323 187.40570058 269.21555913 187.39331055 267.77075195 C187.37520549 265.58728158 187.37280012 263.40424033 187.37304688 261.22070312 C188.25270201 248.82512131 188.25270201 248.82512131 184.1875 238.25 C181.35369907 237.30502559 178.75078886 237.12159027 175.77734375 237.1171875 C174.88724609 237.11525391 173.99714844 237.11332031 173.08007812 237.11132812 C172.10490234 237.11583984 171.12972656 237.12035156 170.125 237.125 C168.5790918 237.12790039 168.5790918 237.12790039 167.00195312 237.13085938 C155.9380921 237.18892045 144.88120922 237.52656644 133.82397461 237.89404297 C130.3154172 238.0095644 126.80675657 238.10936252 123.29736328 238.19580078 C121.86071904 238.23270601 120.42418769 238.27422945 118.98779297 238.31982422 C116.82524114 238.38526924 114.66316677 238.42943112 112.5 238.46875 C111.23800781 238.49904297 109.97601563 238.52933594 108.67578125 238.56054688 C104.82259804 238.21751433 102.47204179 237.25545816 99.1875 235.25 C97.39453125 233.09375 97.39453125 233.09375 96 230.75 C94.26073481 227.8751815 92.60004721 225.5812535 90.1875 223.25 Z " fill="#288A69" transform="translate(200.8125,92.75)"/>
<path d="M0 0 C0.80571945 -0.00525696 1.6114389 -0.01051392 2.4415741 -0.01593018 C5.09300391 -0.02908371 7.74382821 -0.02040621 10.39526367 -0.01025391 C12.24842951 -0.01227657 14.10159457 -0.01518962 15.95475769 -0.01895142 C19.83580108 -0.02336898 23.71663702 -0.01696419 27.59765625 -0.00292969 C32.55384078 0.01412595 37.50953657 0.0043404 42.46570301 -0.01364708 C46.29289881 -0.02453092 50.1199804 -0.02101693 53.94717979 -0.0132637 C55.77348578 -0.01127253 57.59980238 -0.01368264 59.42609596 -0.02070236 C61.98876681 -0.02838885 64.55066722 -0.01661152 67.11328125 0 C67.85695953 -0.00607269 68.60063782 -0.01214539 69.36685181 -0.0184021 C74.79469078 0.04622465 79.81681049 1.0428601 84.75073242 3.38818359 C85.90704094 5.70080063 85.9011348 7.09130461 85.94360352 9.66674805 C85.95966644 10.55139236 85.97572937 11.43603668 85.99227905 12.3474884 C86.03672957 16.39514412 86.07779383 20.44263581 86.10083008 24.49047852 C86.11739084 26.62535502 86.1446823 28.76017606 86.18286133 30.89477539 C86.23762575 33.9722979 86.25950355 37.0485207 86.27416992 40.12646484 C86.29683929 41.07870438 86.31950867 42.03094391 86.34286499 43.01203918 C86.34001495 43.90613998 86.33716492 44.80024078 86.33422852 45.72143555 C86.34231537 46.50372025 86.35040222 47.28600494 86.35873413 48.09199524 C85.40506187 51.69364816 83.68546246 53.15667149 80.75073242 55.38818359 C77.95161761 55.84861708 75.77894076 56.00637416 72.99462891 55.92407227 C72.22979187 55.92158981 71.46495483 55.91910736 70.67694092 55.91654968 C68.15778463 55.90290984 65.6405383 55.85430159 63.12182617 55.80615234 C61.36737394 55.79173875 59.61289942 55.77983784 57.8584137 55.77033997 C53.24492512 55.73995165 48.63226064 55.68128673 44.01916504 55.6149292 C36.6323604 55.51252492 29.2452085 55.44900011 21.85792732 55.39312172 C19.27853309 55.36894948 16.69965191 55.33030837 14.12046814 55.2898407 C12.53946343 55.27298803 10.95845462 55.25651358 9.37744141 55.24047852 C8.30273338 55.21790985 8.30273338 55.21790985 7.20631409 55.19488525 C3.55177338 55.17021004 0.81590602 55.29457659 -2.24926758 57.38818359 C-3.55671796 59.02528626 -3.55671796 59.02528626 -4.53833008 60.97802734 C-4.9224707 61.67992187 -5.30661133 62.38181641 -5.70239258 63.10498047 C-6.2824707 64.20422852 -6.2824707 64.20422852 -6.87426758 65.32568359 C-7.65729369 66.77274656 -8.44111831 68.21937778 -9.22583008 69.66552734 C-9.56694824 70.3073999 -9.90806641 70.94927246 -10.25952148 71.6105957 C-11.17342448 73.2519691 -12.20718013 74.82505242 -13.24926758 76.38818359 C-13.90926758 76.38818359 -14.56926758 76.38818359 -15.24926758 76.38818359 C-16.89402212 73.09867451 -16.4931705 69.43413499 -16.56567383 65.81396484 C-16.5866362 64.9458165 -16.60759857 64.07766815 -16.62919617 63.18321228 C-16.6956264 60.35579623 -16.75444543 57.52829813 -16.81176758 54.70068359 C-16.83194946 53.74633423 -16.85213135 52.79198486 -16.8729248 51.80871582 C-16.99182765 46.16309424 -17.10009112 40.51734241 -17.20245361 34.87139893 C-17.24408365 32.66316178 -17.29071468 30.45513413 -17.34057617 28.24707031 C-17.40973738 25.04406936 -17.45972518 21.84166339 -17.49926758 18.63818359 C-17.52061768 17.75557861 -17.54196777 16.87297363 -17.56396484 15.96362305 C-17.59102668 11.05657482 -17.19412097 7.52087701 -14.24926758 3.38818359 C-9.53699091 0.41867651 -5.43823826 -0.04404763 0 0 Z M-13.04125977 7.171875 C-14.54071668 9.92289963 -14.60779238 11.72265851 -14.57739258 14.84912109 C-14.57288086 15.94708008 -14.56836914 17.04503906 -14.5637207 18.17626953 C-14.54245117 19.35995117 -14.52118164 20.54363281 -14.49926758 21.76318359 C-14.48831055 22.98295898 -14.47735352 24.20273437 -14.46606445 25.45947266 C-14.30262063 39.44102541 -13.80455232 53.41745575 -13.24926758 67.38818359 C-10.30273003 63.72580985 -7.51600546 60.00096597 -4.81176758 56.15771484 C-2.07564766 53.05905904 0.06612423 52.43177754 4.21070862 52.16786194 C5.61026134 52.17119572 7.00981444 52.18559227 8.40917969 52.20874023 C9.17547699 52.21326706 9.94177429 52.21779388 10.73129272 52.22245789 C12.39170803 52.23340004 14.05209822 52.24889346 15.71243477 52.26841927 C18.33899347 52.29859089 20.9653298 52.31539175 23.59202576 52.32847595 C31.05875363 52.36822955 38.5252123 52.43343283 45.99169922 52.50463867 C50.56093679 52.54729262 55.13008441 52.57542456 59.69947624 52.59493828 C61.44147135 52.60552041 63.183441 52.62193469 64.92532539 52.64424324 C67.35756472 52.67535234 69.78927236 52.68819437 72.22167969 52.69702148 C72.94331802 52.7109494 73.66495636 52.72487732 74.40846252 52.73922729 C77.25178438 52.73393709 79.27121861 52.69600062 81.70001221 51.13687134 C83.00690606 48.96184013 83.11359083 47.63308945 83.09130859 45.1003418 C83.091082 44.23967606 83.09085541 43.37901031 83.09062195 42.49226379 C83.07513809 41.56717514 83.05965424 40.64208649 83.04370117 39.68896484 C83.03945633 38.73877975 83.03521149 37.78859467 83.03083801 36.80961609 C83.01403727 33.77301771 82.97638235 30.73708157 82.93823242 27.70068359 C82.9231874 25.64275047 82.90949867 23.58480694 82.8972168 21.52685547 C82.86412913 16.48037612 82.81233705 11.43439216 82.75073242 6.38818359 C77.55396197 3.81710868 73.3304854 2.95521385 67.50805664 3.01586914 C66.71527313 3.01221848 65.92248962 3.00856781 65.10568237 3.00480652 C62.50537173 2.99675135 59.90569407 3.01026641 57.30541992 3.02490234 C55.48894247 3.02542145 53.67246445 3.02490179 51.85598755 3.02339172 C48.0582841 3.02348121 44.26079395 3.03386531 40.46313477 3.05200195 C35.59970628 3.07472064 30.73658825 3.07522485 25.87312126 3.06848431 C22.12587737 3.06514088 18.37870404 3.07178095 14.63147354 3.08161354 C12.83814997 3.08545693 11.04481853 3.08661733 9.25149155 3.08502769 C6.74571548 3.0846562 4.24033559 3.09729976 1.73461914 3.11352539 C0.99683228 3.11104797 0.25904541 3.10857056 -0.50109863 3.10601807 C-5.48461728 3.1574326 -9.41882094 3.56621587 -13.04125977 7.171875 Z " fill="#288A69" transform="translate(304.249267578125,33.61181640625)"/>
<path d="M0 0 C4.4267442 3.79435217 6.15458884 7.24858512 6.6875 13.1328125 C6.53295426 18.36804943 4.5228565 22.19098977 1.1875 26.125 C-3.72156383 30.19593098 -7.38939968 30.69659734 -13.68359375 30.5625 C-18.91614731 29.95494661 -21.4574807 27.36590185 -24.6875 23.4375 C-27.42530312 18.26609411 -27.87148658 14.22064828 -26.3125 8.625 C-24.18811895 2.95676511 -20.99617118 0.53146147 -15.5625 -2.125 C-9.83436707 -3.24816332 -5.18889805 -2.69053973 0 0 Z M-20.375 4.25 C-23.28717429 8.03172493 -24.39343135 11.16255009 -24.3125 15.9375 C-23.06704218 20.33811762 -21.74834733 23.07861552 -18.25 26.0625 C-14.21144705 27.73059796 -10.68315275 27.94143192 -6.375 27.25 C-2.47511719 25.22783854 0.40275643 23.07719725 2.625 19.25 C2.625 18.26 2.625 17.27 2.625 16.25 C-2.325 16.25 -7.275 16.25 -12.375 16.25 C-12.375 10.97 -12.375 5.69 -12.375 0.25 C-15.28885872 0.25 -18.15170017 2.5207668 -20.375 4.25 Z " fill="#288A69" transform="translate(323.375,339.75)"/>
<path d="M0 0 C0.33 3.63 0.66 7.26 1 11 C-0.32 11 -1.64 11 -3 11 C-4.65 14.63 -6.3 18.26 -8 22 C-10.31 21.67 -12.62 21.34 -15 21 C-15.99 23.31 -16.98 25.62 -18 28 C-20.38564077 27.42415568 -22.66682784 26.77772405 -25 26 C-25.99 28.31 -26.98 30.62 -28 33 C-28.66 33 -29.32 33 -30 33 C-29.69106068 31.3743193 -29.3777305 29.74947252 -29.0625 28.125 C-28.88847656 27.22007812 -28.71445313 26.31515625 -28.53515625 25.3828125 C-28 23 -28 23 -27 21 C-22.25 21.875 -22.25 21.875 -20 23 C-19.566875 22.030625 -19.13375 21.06125 -18.6875 20.0625 C-17 17 -17 17 -14 16 C-13.01 16.66 -12.02 17.32 -11 18 C-9.35 14.7 -7.7 11.4 -6 8 C-6.66 8 -7.32 8 -8 8 C-6.48291727 4.46014029 -4.24676932 0 0 0 Z " fill="#288A69" transform="translate(99,110)"/>
<path d="M0 0 C1.65 0 3.3 0 5 0 C6.83034055 1.83034055 6.13042797 4.73211992 6.1328125 7.1875 C6.13474609 9.07082031 6.13474609 9.07082031 6.13671875 10.9921875 C6.13462402 11.64928711 6.1325293 12.30638672 6.13037109 12.98339844 C6.12502234 14.99161335 6.13031691 16.99960459 6.13671875 19.0078125 C6.13542969 20.26335937 6.13414062 21.51890625 6.1328125 22.8125 C6.13168457 23.97394531 6.13055664 25.13539062 6.12939453 26.33203125 C6 29 6 29 5 30 C3.35 30 1.7 30 0 30 C0 20.1 0 10.2 0 0 Z " fill="#288A69" transform="translate(325,45)"/>
<path d="M0 0 C1.86328125 0.046875 1.86328125 0.046875 4 1 C5.66796875 3.765625 5.66796875 3.765625 7.1875 7.25 C7.69667969 8.38953125 8.20585937 9.5290625 8.73046875 10.703125 C9.81451321 13.51830507 10.63470581 16.01222066 11 19 C10.67 19.33 10.34 19.66 10 20 C8.37146465 19.93579251 6.74550788 19.7987936 5.125 19.625 C4.24070312 19.53476563 3.35640625 19.44453125 2.4453125 19.3515625 C0 19 0 19 -3 18 C-3.21586845 12.06361776 -2.71249434 6.71248111 -1 1 C-0.67 0.67 -0.34 0.34 0 0 Z M2 8 C0.64381501 9.12534105 0.64381501 9.12534105 0.9375 12.0625 C0.958125 13.031875 0.97875 14.00125 1 15 C2.32 15 3.64 15 5 15 C4.34 12.69 3.68 10.38 3 8 C2.67 8 2.34 8 2 8 Z " fill="#288A69" transform="translate(364,183)"/>
<path d="M0 0 C1.98 0 3.96 0 6 0 C6.02886537 4.31248609 6.04675255 8.62494762 6.0625 12.9375 C6.07087891 14.16919922 6.07925781 15.40089844 6.08789062 16.66992188 C6.09111328 17.83974609 6.09433594 19.00957031 6.09765625 20.21484375 C6.10289307 21.29886475 6.10812988 22.38288574 6.11352539 23.49975586 C6 26 6 26 5 27 C3.35 27 1.7 27 0 27 C0 18.09 0 9.18 0 0 Z " fill="#288A69" transform="translate(308,48)"/>
<path d="M0 0 C1.9375 1.125 1.9375 1.125 3 3 C2.87938384 6.37725252 2.57377738 8.95370007 0.9375 11.9375 C-2.26134102 13.69170314 -5.45262657 13.64899971 -9 13 C-11.0625 11.4375 -11.0625 11.4375 -12 9 C-12 5.4375 -12 5.4375 -11 2 C-7.3487558 -1.33828041 -4.64215415 -1.41282953 0 0 Z M-6 3 C-6.66 3.66 -7.32 4.32 -8 5 C-7.91428339 7.09291157 -7.91428339 7.09291157 -7 9 C-6.01 9.33 -5.02 9.66 -4 10 C-3.01 9.34 -2.02 8.68 -1 8 C-1.33 6.35 -1.66 4.7 -2 3 C-3.32 3 -4.64 3 -6 3 Z " fill="#288A69" transform="translate(387,167)"/>
<path d="M0 0 C0.99 0 1.98 0 3 0 C3.33 3.3 3.66 6.6 4 10 C6.64 10.99 9.28 11.98 12 13 C11.67 13.66 11.34 14.32 11 15 C8.36 14.67 5.72 14.34 3 14 C3 16.97 3 19.94 3 23 C2.01 23.33 1.02 23.66 0 24 C0 20.7 0 17.4 0 14 C-2.64 13.67 -5.28 13.34 -8 13 C-8 12.01 -8 11.02 -8 10 C-4.535 9.505 -4.535 9.505 -1 9 C-0.67 6.03 -0.34 3.06 0 0 Z " fill="#288A69" transform="translate(60,340)"/>
<path d="M0 0 C2.0625 1.5625 2.0625 1.5625 3 4 C3 7.5625 3 7.5625 2 11 C-0.82291337 13.58094937 -2.30522028 14.01389559 -6.125 13.9375 C-9 13 -9 13 -10.875 11.25 C-12.24863504 8.50272993 -12.53062116 7.03212094 -12 4 C-8.80946787 -0.91873703 -5.3904099 -0.68449649 0 0 Z M-8 5 C-7.67 6.32 -7.34 7.64 -7 9 C-5.10820797 9.6814823 -5.10820797 9.6814823 -3 10 C-2.34 9.34 -1.68 8.68 -1 8 C-1.32041397 5.39719432 -1.32041397 5.39719432 -2 3 C-5.18490007 2.7226499 -5.18490007 2.7226499 -8 5 Z " fill="#288A69" transform="translate(46,318)"/>
<path d="M0 0 C13.86 0 27.72 0 42 0 C42 0.99 42 1.98 42 3 C27.81 3 13.62 3 -1 3 C-0.67 2.01 -0.34 1.02 0 0 Z " fill="#288A69" transform="translate(338,48)"/>
<path d="M0 0 C0.66 0 1.32 0 2 0 C2.33 3.3 2.66 6.6 3 10 C5.31 10.66 7.62 11.32 10 12 C10 12.99 10 13.98 10 15 C7.69 14.67 5.38 14.34 3 14 C2.67 17.3 2.34 20.6 2 24 C1.01 24 0.02 24 -1 24 C-1 20.7 -1 17.4 -1 14 C-3.64 13.67 -6.28 13.34 -9 13 C-9 12.01 -9 11.02 -9 10 C-6.36 10 -3.72 10 -1 10 C-1.020625 8.72125 -1.04125 7.4425 -1.0625 6.125 C-1.125 2.25 -1.125 2.25 0 0 Z " fill="#288A69" transform="translate(127,17)"/>
<path d="M0 0 C2.0625 1.625 2.0625 1.625 3 4 C2.87304813 7.11032079 2.47953174 9.20078043 0.875 11.875 C-2.16832808 13.70099685 -4.54249555 13.42460581 -8 13 C-10.8520847 11.02547983 -11.81895125 9.90524375 -12.5 6.5 C-11.09282653 -0.53586735 -6.10102314 -0.7747331 0 0 Z M-8 5 C-7.73323796 6.98491642 -7.73323796 6.98491642 -7 9 C-6.01 9.33 -5.02 9.66 -4 10 C-2.43750191 8.68798827 -2.43750191 8.68798827 -1 7 C-1 6.01 -1 5.02 -1 4 C-4.48581856 2.7979936 -4.67992344 2.78661563 -8 5 Z " fill="#288A69" transform="translate(101,44)"/>
<path d="M0 0 C1.65 0 3.3 0 5 0 C5 8.25 5 16.5 5 25 C3.35 25 1.7 25 0 25 C0 16.75 0 8.5 0 0 Z " fill="#288A69" transform="translate(300,50)"/>
<path d="M0 0 C0.85715607 0.00141495 1.71431213 0.0028299 2.59744263 0.00428772 C5.3176024 0.00985603 8.03767788 0.02240261 10.7578125 0.03515625 C12.60937381 0.04017535 14.46093641 0.04473754 16.3125 0.04882812 C20.83596965 0.05981508 25.35937682 0.07705773 29.8828125 0.09765625 C29.8828125 0.75765625 29.8828125 1.41765625 29.8828125 2.09765625 C20.30784026 3.03333999 10.7435447 3.39559115 1.1328125 3.66015625 C-0.3541753 3.70348075 -1.84115458 3.74709873 -3.328125 3.79101562 C-6.92438755 3.89660294 -10.52074808 3.99825235 -14.1171875 4.09765625 C-14.4471875 3.10765625 -14.7771875 2.11765625 -15.1171875 1.09765625 C-10.02526463 0.06279992 -5.16771409 -0.03244342 0 0 Z " fill="#288A69" transform="translate(346.1171875,363.90234375)"/>
<path d="M0 0 C13.86 0 27.72 0 42 0 C42 0.66 42 1.32 42 2 C37.15667095 2.96799592 32.45861984 3.13122086 27.5390625 3.09765625 C26.74849457 3.0962413 25.95792664 3.09482635 25.1434021 3.09336853 C22.63722834 3.08780504 20.13114642 3.07525944 17.625 3.0625 C15.91797005 3.05748028 14.21093868 3.0529182 12.50390625 3.04882812 C8.33590252 3.03784759 4.16796679 3.02060839 0 3 C0 2.01 0 1.02 0 0 Z " fill="#288A69" transform="translate(337,60)"/>
<path d="M0 0 C0 0.99 0 1.98 0 3 C-4.39226339 3.28854565 -8.78475652 3.57321946 -13.17749023 3.85449219 C-14.66811701 3.95046427 -16.1586791 4.04744704 -17.64916992 4.14550781 C-25.43832365 4.65729934 -33.18895174 5.14089828 -41 5 C-41 4.01 -41 3.02 -41 2 C-33.97897068 1.12877738 -27.005464 0.70646182 -19.9375 0.4375 C-18.90044922 0.39431641 -17.86339844 0.35113281 -16.79492188 0.30664062 C-11.19154334 0.08278974 -5.60769792 -0.04712351 0 0 Z " fill="#288A69" transform="translate(375,351)"/>
<path d="M0 0 C5.23274388 -0.02467917 10.46545403 -0.04285003 15.69824219 -0.05493164 C17.47917267 -0.05996711 19.260099 -0.06679581 21.04101562 -0.07543945 C23.59766665 -0.08753942 26.15426312 -0.09323609 28.7109375 -0.09765625 C29.50994476 -0.10281754 30.30895203 -0.10797882 31.13217163 -0.11329651 C36.77225659 -0.11387171 36.77225659 -0.11387171 39 1 C39 1.66 39 2.32 39 3 C26.13 3 13.26 3 0 3 C0 2.01 0 1.02 0 0 Z " fill="#288A69" transform="translate(335,339)"/>
<path d="M0 0 C12.54 0 25.08 0 38 0 C38 0.99 38 1.98 38 3 C25.79 3 13.58 3 1 3 C0.67 2.01 0.34 1.02 0 0 Z " fill="#288A69" transform="translate(28,142)"/>
<path d="M0 0 C0 0.66 0 1.32 0 2 C-4.3952487 2.34134328 -8.79126985 2.67155878 -13.1875 3 C-15.02731445 3.14308594 -15.02731445 3.14308594 -16.90429688 3.2890625 C-24.95340658 3.88371968 -32.92979423 4.12213449 -41 4 C-41 3.01 -41 2.02 -41 1 C-27.34628986 -0.26172899 -13.69966067 -0.10117918 0 0 Z " fill="#288A69" transform="translate(66,129)"/>
<path d="M0 0 C1.08809212 0.00212242 1.08809212 0.00212242 2.19816589 0.00428772 C4.50064325 0.00985694 6.8030211 0.02240364 9.10546875 0.03515625 C10.67252463 0.04017523 12.23958205 0.04473744 13.80664062 0.04882812 C17.63545464 0.05981627 21.46419486 0.07705952 25.29296875 0.09765625 C25.29296875 0.75765625 25.29296875 1.41765625 25.29296875 2.09765625 C17.65193374 3.25745621 10.00998593 3.42962831 2.29296875 3.66015625 C0.93228086 3.7034376 -0.4283964 3.74705464 -1.7890625 3.79101562 C-5.09496282 3.89652308 -8.40093124 3.99863881 -11.70703125 4.09765625 C-12.03703125 3.10765625 -12.36703125 2.11765625 -12.70703125 1.09765625 C-8.45757272 0.05778028 -4.34775269 -0.03224006 0 0 Z " fill="#288A69" transform="translate(40.70703125,116.90234375)"/>
<path d="M0 0 C19.305 0.495 19.305 0.495 39 1 C39 1.66 39 2.32 39 3 C25.8 3 12.6 3 -1 3 C-0.67 2.01 -0.34 1.02 0 0 Z " fill="#288A69" transform="translate(337,71)"/>
<path d="M0 0 C1.65 0 3.3 0 5 0 C5 5.28 5 10.56 5 16 C3.35 16 1.7 16 0 16 C0 10.72 0 5.44 0 0 Z " fill="#288A69" transform="translate(317,59)"/>
</svg>

